<?xml version="1.0" encoding="UTF-8" standalone="no"?>
<svg
   xmlns:dc="http://purl.org/dc/elements/1.1/"
   xmlns:cc="http://creativecommons.org/ns#"
   xmlns:rdf="http://www.w3.org/1999/02/22-rdf-syntax-ns#"
   xmlns:svg="http://www.w3.org/2000/svg"
   xmlns="http://www.w3.org/2000/svg"
   xmlns:sodipodi="http://sodipodi.sourceforge.net/DTD/sodipodi-0.dtd"
   xmlns:inkscape="http://www.inkscape.org/namespaces/inkscape"
   height="1024"
   version="1.1"
   width="1024"
   id="svg13"
   sodipodi:docname="ClearAll.svg"
   inkscape:version="0.92.4 5da689c313, 2019-01-14">
  <metadata
     id="metadata19">
    <rdf:RDF>
      <cc:Work
         rdf:about="">
        <dc:format>image/svg+xml</dc:format>
        <dc:type
           rdf:resource="http://purl.org/dc/dcmitype/StillImage" />
        <dc:title></dc:title>
      </cc:Work>
    </rdf:RDF>
  </metadata>
  <defs
     id="defs17" />
  <sodipodi:namedview
     pagecolor="#ffffff"
     bordercolor="#666666"
     borderopacity="1"
     objecttolerance="10"
     gridtolerance="10"
     guidetolerance="10"
     inkscape:pageopacity="0"
     inkscape:pageshadow="2"
     inkscape:window-width="3840"
     inkscape:window-height="2081"
     id="namedview15"
     showgrid="false"
     inkscape:zoom="1.3037281"
     inkscape:cx="644.19803"
     inkscape:cy="481.7026"
     inkscape:window-x="0"
     inkscape:window-y="0"
     inkscape:window-maximized="1"
     inkscape:current-layer="svg13" />
  <g
     id="View Layer_LineSet"
     inkscape:groupmode="lineset"
     inkscape:label="View Layer_LineSet"
     style="fill:#b57369;fill-opacity:1">
    <g
       id="fills"
       inkscape:groupmode="layer"
       inkscape:label="fills"
       style="fill:#b57369;fill-opacity:1">
      <path
         d=" M 336.772, 433.726 340.342, 597.093 537.477, 777.886 829.887, 395.779 878.643, 185.636 617.716, 66.602 336.772, 433.726  z"
         fill="rgb(204, 204, 204)"
         fill-opacity="1.0"
         fill_rule="evenodd"
         stroke="none"
         id="path2"
         style="fill:#b57369;fill-opacity:1" />
    </g>
    <g
       id="strokes"
       inkscape:groupmode="layer"
       inkscape:label="strokes"
       style="fill:#b57369;fill-opacity:1">
      <path
         d=" M 336.772, 433.726 336.990, 443.724 337.209, 453.721 337.427, 463.719 337.646, 473.716 337.864, 483.714 338.083, 493.712 338.301, 503.709 338.520, 513.707 338.738, 523.704 338.957, 533.702 339.175, 543.700 339.394, 553.697 339.612, 563.695 339.831, 573.692 340.050, 583.690 340.268, 593.688 340.342, 597.093 347.712, 603.852 355.082, 610.611 362.452, 617.370 369.822, 624.129 377.192, 630.888 384.562, 637.647 391.932, 644.406 399.302, 651.165 406.672, 657.924 414.042, 664.683 421.412, 671.442 428.782, 678.201 436.152, 684.960 443.522, 691.719 450.892, 698.478 458.261, 705.237 465.631, 711.996 473.001, 718.755 480.371, 725.514 487.741, 732.273 495.111, 739.032 502.481, 745.791 509.851, 752.550 517.221, 759.309 524.591, 766.068 531.961, 772.827 537.477, 777.886 543.554, 769.944 549.631, 762.003 555.708, 754.061 561.786, 746.120 567.863, 738.178 573.940, 730.237 580.018, 722.295 586.095, 714.354 592.172, 706.412 598.249, 698.471 604.327, 690.530 610.404, 682.588 616.481, 674.647 622.558, 666.705 628.636, 658.764 634.713, 650.822 640.790, 642.881 646.868, 634.939 652.945, 626.998 659.022, 619.056 665.099, 611.115 671.177, 603.174 677.254, 595.232 683.331, 587.291 689.408, 579.349 695.486, 571.408 701.563, 563.466 707.640, 555.525 713.718, 547.583 719.795, 539.642 725.872, 531.700 731.949, 523.759 738.027, 515.817 744.104, 507.876 750.181, 499.935 756.258, 491.993 762.336, 484.052 768.413, 476.110 774.490, 468.169 780.568, 460.227 786.645, 452.286 792.722, 444.344 798.799, 436.403 804.877, 428.461 810.954, 420.520 817.031, 412.578 823.108, 404.637 829.887, 395.779 832.147, 386.038 834.407, 376.297 836.667, 366.555 838.928, 356.814 841.188, 347.073 843.448, 337.332 845.708, 327.590 847.968, 317.849 850.228, 308.108 852.488, 298.367 854.748, 288.625 857.008, 278.884 859.269, 269.143 861.529, 259.402 863.789, 249.661 866.049, 239.919 868.309, 230.178 870.569, 220.437 872.829, 210.696 875.089, 200.954 877.350, 191.213 878.643, 185.636 869.545, 181.486 860.448, 177.335 851.349, 173.185 842.251, 169.034 833.154, 164.884 824.055, 160.734 814.957, 156.583 805.859, 152.433 796.761, 148.282 787.663, 144.132 778.565, 139.981 769.467, 135.831 760.369, 131.680 751.271, 127.530 742.173, 123.379 733.076, 119.229 723.977, 115.078 714.879, 110.928 705.781, 106.777 696.683, 102.627 687.585, 98.477 678.487, 94.326 669.389, 90.176 660.291, 86.025 651.193, 81.875 642.095, 77.724 632.997, 73.574 623.899, 69.423 617.716, 66.602 611.639, 74.544 605.562, 82.485 599.484, 90.427 593.407, 98.368 587.330, 106.310 581.253, 114.251 575.175, 122.193 569.098, 130.134 563.021, 138.076 556.943, 146.017 550.866, 153.958 544.789, 161.900 538.712, 169.841 532.634, 177.783 526.557, 185.724 520.480, 193.666 514.402, 201.607 508.325, 209.549 502.248, 217.490 496.171, 225.432 490.093, 233.373 484.016, 241.315 477.939, 249.256 471.862, 257.197 465.784, 265.139 459.707, 273.080 453.630, 281.022 447.552, 288.963 441.475, 296.905 435.398, 304.846 429.321, 312.788 423.243, 320.729 417.166, 328.671 411.089, 336.612 405.012, 344.553 398.934, 352.495 392.857, 360.436 386.780, 368.378 380.702, 376.319 374.625, 384.261 368.548, 392.202 362.471, 400.144 356.393, 408.085 350.316, 416.027 344.239, 423.968 336.772, 433.726 "
         fill="none"
         stroke="rgb(72, 72, 72)"
         stroke-linecap="butt"
         stroke-linejoin="round"
         stroke-opacity="1.0"
         stroke-width="3.0"
         id="path5"
         style="fill:#b57369;fill-opacity:1" />
      <path
         d=" M 336.772, 433.726 344.563, 439.994 352.355, 446.263 360.146, 452.531 367.938, 458.799 375.729, 465.068 383.520, 471.336 391.312, 477.605 399.103, 483.873 406.895, 490.141 414.686, 496.410 422.478, 502.678 430.269, 508.947 438.061, 515.215 445.852, 521.483 453.644, 527.752 461.435, 534.020 469.227, 540.288 477.018, 546.557 484.810, 552.825 492.601, 559.094 500.393, 565.362 508.184, 571.630 515.976, 577.899 523.767, 584.167 531.559, 590.436 539.350, 596.704 547.142, 602.972 554.651, 609.013 "
         fill="none"
         stroke="rgb(72, 72, 72)"
         stroke-linecap="butt"
         stroke-linejoin="round"
         stroke-opacity="1.0"
         stroke-width="3.0"
         id="path7"
         style="fill:#b57369;fill-opacity:1" />
      <path
         d=" M 537.477, 777.886 538.488, 767.937 539.500, 757.988 540.512, 748.040 541.524, 738.091 542.535, 728.142 543.547, 718.193 544.559, 708.245 545.571, 698.296 546.582, 688.347 547.594, 678.399 548.606, 668.450 549.618, 658.501 550.629, 648.553 551.641, 638.604 552.653, 628.655 553.665, 618.707 554.651, 609.013 560.728, 601.072 566.805, 593.130 572.882, 585.189 578.960, 577.247 585.037, 569.306 591.114, 561.364 597.191, 553.423 603.269, 545.481 609.346, 537.540 615.423, 529.599 621.500, 521.657 627.578, 513.716 633.655, 505.774 639.732, 497.833 645.810, 489.891 651.887, 481.950 657.964, 474.008 664.041, 466.067 670.119, 458.125 676.196, 450.184 682.273, 442.242 688.351, 434.301 694.428, 426.360 700.505, 418.418 706.582, 410.477 712.660, 402.535 718.737, 394.594 724.814, 386.652 730.891, 378.711 736.969, 370.769 743.046, 362.828 749.123, 354.886 755.201, 346.945 761.278, 339.004 767.355, 331.062 773.432, 323.121 779.510, 315.179 785.587, 307.238 791.664, 299.296 797.741, 291.355 803.819, 283.413 809.896, 275.472 815.973, 267.530 822.051, 259.589 828.128, 251.648 834.205, 243.706 840.282, 235.765 846.360, 227.823 852.437, 219.882 858.514, 211.940 864.591, 203.999 870.669, 196.057 878.643, 185.636 "
         fill="none"
         stroke="rgb(72, 72, 72)"
         stroke-linecap="butt"
         stroke-linejoin="round"
         stroke-opacity="1.0"
         stroke-width="3.0"
         id="path9"
         style="fill:#b57369;fill-opacity:1" />
    </g>
  </g>
  <g
     inkscape:groupmode="layer"
     id="layer1"
     inkscape:label="Layer 1"
     style="display:inline">
    <g
       inkscape:label="View Layer_LineSet"
       id="View Layer_LineSet-3"
       style="fill:#678dbb;fill-opacity:1">
      <g
         inkscape:label="fills"
         inkscape:groupmode="layer"
         id="fills-6"
         style="fill:#678dbb;fill-opacity:1">
        <path
           id="path1103"
           fill_rule="evenodd"
           d="m 537.477,777.886 4.554,-44.787 12.62,-124.086 -32.3,-25.986 -185.579,-149.301 -114,148.968 -25.939,33.896 11.39,108.158 4.165,39.55 153.131,174.019 26.308,29.896 26.998,-35.279 z"
           inkscape:connector-curvature="0"
           style="fill:#678dbb;fill-opacity:1;stroke:none" />
      </g>
      <g
         inkscape:label="strokes"
         inkscape:groupmode="layer"
         id="strokes-7"
         style="fill:#678dbb;fill-opacity:1">
        <path
           id="path1106"
           d="m 537.477,777.886 1.011,-9.949 1.012,-9.949 1.012,-9.948 1.012,-9.949 0.507,-4.992 1.012,-9.948 1.012,-9.949 1.012,-9.949 1.011,-9.948 1.012,-9.949 1.012,-9.949 1.012,-9.948 1.011,-9.949 1.012,-9.949 1.012,-9.948 1.012,-9.949 1.011,-9.949 0.479,-4.702 -7.792,-6.268 -7.791,-6.269 -7.792,-6.268 -7.791,-6.268 -1.134,-0.913 -7.792,-6.268 -7.791,-6.269 -7.792,-6.268 -7.791,-6.268 -7.792,-6.269 -7.791,-6.268 -7.792,-6.268 -7.791,-6.269 -7.792,-6.268 -7.791,-6.269 -7.792,-6.268 -7.791,-6.268 -7.792,-6.269 -7.791,-6.268 -7.792,-6.269 -7.791,-6.268 -7.792,-6.268 -7.791,-6.269 -7.792,-6.268 -7.791,-6.268 -7.792,-6.269 -7.791,-6.268 -7.792,-6.269 -6.374,-5.128 -6.078,7.941 -6.077,7.942 -6.077,7.941 -6.078,7.942 -6.077,7.941 -6.077,7.942 -6.077,7.941 -6.078,7.942 -6.077,7.941 -6.077,7.942 -6.077,7.941 -6.078,7.941 -6.077,7.942 -6.077,7.941 -6.078,7.942 -6.077,7.941 -6.077,7.942 -6.077,7.941 -4.609,6.022 -6.077,7.942 -6.078,7.941 -6.077,7.942 -6.077,7.941 -1.63,2.13 1.047,9.945 1.047,9.945 1.048,9.945 1.047,9.945 1.047,9.945 1.048,9.945 1.047,9.945 1.047,9.945 1.047,9.945 1.048,9.945 0.917,8.708 1.047,9.945 1.047,9.945 1.048,9.945 1.023,9.715 6.606,7.507 6.606,7.507 6.606,7.507 6.606,7.508 6.606,7.507 6.606,7.507 6.607,7.507 6.606,7.508 6.606,7.507 6.606,7.507 6.606,7.507 6.606,7.508 6.607,7.507 6.606,7.507 6.606,7.507 6.606,7.508 6.606,7.507 6.606,7.507 6.606,7.507 6.607,7.508 6.606,7.507 6.606,7.507 7.796,8.86 6.607,7.508 6.606,7.507 6.606,7.507 6.489,7.374 6.077,-7.941 6.077,-7.942 6.078,-7.941 6.077,-7.942 2.689,-3.513 6.077,-7.942 6.077,-7.941 6.077,-7.942 6.078,-7.941 6.077,-7.942 6.077,-7.941 6.078,-7.941 6.077,-7.942 6.077,-7.941 6.077,-7.942 6.078,-7.941 6.077,-7.942 6.077,-7.941 6.077,-7.942 6.078,-7.941 6.077,-7.942 6.077,-7.941 6.078,-7.942 6.077,-7.941 3.184,-4.16"
           inkscape:connector-curvature="0"
           style="fill:#678dbb;stroke:#484848;stroke-width:3;stroke-linecap:butt;stroke-linejoin:round;stroke-opacity:1;fill-opacity:1" />
        <path
           id="path1108"
           d="m 391.827,968.213 0.097,-9.999 0.097,-10 0.098,-10 0.09,-9.335 0.098,-10 0.097,-9.999 0.097,-10 0.097,-9.999 0.098,-10 0.097,-9.999 0.097,-10 0.097,-9.999 0.098,-10 0.097,-9.999 0.087,-8.987"
           inkscape:connector-curvature="0"
           style="fill:#678dbb;stroke:#484848;stroke-width:3;stroke-linecap:butt;stroke-linejoin:round;stroke-opacity:1;fill-opacity:1" />
        <path
           id="path1110"
           d="m 554.651,609.013 -6.078,7.942 -6.077,7.941 -6.077,7.941 -6.078,7.942 -6.077,7.941 -6.077,7.942 -6.077,7.941 -6.078,7.942 -6.077,7.941 -6.077,7.942 -6.078,7.941 -6.077,7.942 -6.077,7.941 -6.077,7.942 -6.078,7.941 -6.077,7.941 -6.077,7.942 -6.077,7.941 -6.078,7.942 -6.077,7.941 -6.077,7.942 -3.845,5.024 -6.077,7.941 -6.077,7.942 -6.078,7.941 -6.077,7.941 -5.605,7.324 -6.948,-7.191 -6.949,-7.192 -6.948,-7.191 -6.949,-7.192 -1.327,-1.373 -6.948,-7.192 -6.949,-7.191 -6.948,-7.192 -6.949,-7.192 -6.948,-7.191 -6.949,-7.192 -6.948,-7.191 -6.949,-7.192 -6.948,-7.191 -6.949,-7.192 -6.948,-7.191 -6.949,-7.192 -6.948,-7.191 -6.949,-7.192 -6.948,-7.191 -6.949,-7.192 -6.949,-7.191 -6.948,-7.192 -6.949,-7.192 -6.948,-7.191 -6.949,-7.192 -6.948,-7.191 -6.949,-7.192 -7.499,-7.762"
           inkscape:connector-curvature="0"
           style="fill:#678dbb;stroke:#484848;stroke-width:3;stroke-linecap:butt;stroke-linejoin:round;stroke-opacity:1;fill-opacity:1" />
      </g>
    </g>
  </g>
</svg>
