<?xml version="1.0" encoding="UTF-8" standalone="no"?>
<svg
   xmlns:dc="http://purl.org/dc/elements/1.1/"
   xmlns:cc="http://creativecommons.org/ns#"
   xmlns:rdf="http://www.w3.org/1999/02/22-rdf-syntax-ns#"
   xmlns:svg="http://www.w3.org/2000/svg"
   xmlns="http://www.w3.org/2000/svg"
   xmlns:sodipodi="http://sodipodi.sourceforge.net/DTD/sodipodi-0.dtd"
   xmlns:inkscape="http://www.inkscape.org/namespaces/inkscape"
   height="1024"
   version="1.1"
   width="1024"
   id="svg13"
   sodipodi:docname="CreateNewCustomerDocument.svg"
   inkscape:version="0.92.4 5da689c313, 2019-01-14">
  <metadata
     id="metadata19">
    <rdf:RDF>
      <cc:Work
         rdf:about="">
        <dc:format>image/svg+xml</dc:format>
        <dc:type
           rdf:resource="http://purl.org/dc/dcmitype/StillImage" />
        <dc:title></dc:title>
      </cc:Work>
    </rdf:RDF>
  </metadata>
  <defs
     id="defs17" />
  <sodipodi:namedview
     pagecolor="#ffffff"
     bordercolor="#666666"
     borderopacity="1"
     objecttolerance="10"
     gridtolerance="10"
     guidetolerance="10"
     inkscape:pageopacity="0"
     inkscape:pageshadow="2"
     inkscape:window-width="3840"
     inkscape:window-height="2081"
     id="namedview15"
     showgrid="false"
     inkscape:zoom="0.65186406"
     inkscape:cx="510.1179"
     inkscape:cy="499.483"
     inkscape:window-x="0"
     inkscape:window-y="0"
     inkscape:window-maximized="1"
     inkscape:current-layer="layer5" />
  <g
     inkscape:groupmode="layer"
     id="layer3"
     inkscape:label="Layer 3">
    <g
       inkscape:label="View Layer_LineSet"
       id="View Layer_LineSet"
       transform="translate(10.66385,-2.7904551)"
       style="fill:#969696;fill-opacity:1">
      <g
         inkscape:label="fills"
         inkscape:groupmode="layer"
         id="fills"
         style="fill:#969696;fill-opacity:1">
        <path
           id="path1304"
           fill_rule="evenodd"
           d="m 78.75,897.347 12.101,1.192 h 824.792 l 12.101,-1.192 11.636,-3.53 10.724,-5.732 9.4,-7.714 7.714,-9.399 5.732,-10.724 3.53,-11.636 1.191,-12.101 V 207.657 l -1.191,-12.101 -3.53,-11.636 -5.732,-10.724 -7.714,-9.399 -9.4,-7.714 -10.724,-5.732 -11.636,-3.53 -12.101,-1.192 H 90.851 l -12.101,1.192 -11.636,3.53 -10.724,5.732 -9.399,7.714 -7.714,9.399 -5.732,10.724 -3.53,11.636 -1.192,12.101 v 628.854 l 1.192,12.101 3.53,11.636 5.732,10.724 7.714,9.399 9.399,7.714 10.724,5.732 11.636,3.53 h 848.994 z"
           inkscape:connector-curvature="0"
           style="fill:#969696;fill-opacity:1;stroke:none" />
      </g>
      <g
         inkscape:label="strokes"
         inkscape:groupmode="layer"
         id="strokes"
         style="fill:#969696;fill-opacity:1">
        <path
           id="path1307"
           d="m 78.75,897.347 9.952,0.98 2.149,0.212 h 10 10 10 10 10 10 10 10 10 10 10 10 10 10 10 10 10 10 10 10 10 10 10 10 10 10 10 10 10 10 10 10 10 10 10 10 10 10 10 10 10 10 10 10 10 10 10 10 10 10 10 10 10 10 10 10 10 10 10 10 10 10 10 10 10 10 10 10 10 10 10 10 10 10 10 10 10 10 10 10 10 14.792 l 9.952,-0.98 2.149,-0.212 9.57,-2.903 2.066,-0.627 8.82,-4.714 1.904,-1.018 7.73,-6.344 1.67,-1.37 6.344,-7.73 1.37,-1.669 4.714,-8.82 1.018,-1.904 2.903,-9.57 0.627,-2.066 0.98,-9.952 0.211,-2.149 v -10 -10 -10 -10 -10 -10 -10 -10 -10 -10 -10 -10 -10 -10 -10 -10 -10 -10 -10 -10 -10 -10 -10 -10 -10 -10 -10 -10 -10 -10 -10 -10 -10 -10 -10 -10 -10 -10 -10 -10 -10 -10 -10 -10 -10 -10 -10 -10 -10 -10 -10 -10 -10 -10 -10 -10 -10 -10 -10 -10 -10 -10 -8.854 l -0.98,-9.951 -0.211,-2.15 -2.903,-9.569 -0.627,-2.067 -4.714,-8.819 -1.018,-1.905 -6.344,-7.73 -1.37,-1.669 -7.73,-6.344 -1.67,-1.37 -8.819,-4.714 -1.905,-1.018 -9.569,-2.903 -2.067,-0.627 -9.952,-0.98 -2.149,-0.212 h -10 -10 -10 -10 -10 -10 -10 -10 -10 -10 -10 -10 -10 -10 -10 -10 -10 -10 -10 -10 -10 -10 -10 -10 -10 -10 -10 -10 -10 -10 -10 -10 -10 -10 -10 -10 -10 -10 -10 -10 -10 -10 -10 -10 -10 -10 -10 -10 -10 -10 -10 -10 -10 -10 -10 -10 -10 -10 -10 -10 -10 -10 -10 -10 -10 -10 -10 -10 -10 -10 -10 -10 -10 -10 -10 -10 -10 -10 -10 -10 -10 -14.792 l -9.952,0.98 -2.149,0.212 -9.569,2.903 -2.067,0.627 -8.819,4.714 -1.905,1.018 -7.73,6.344 -1.669,1.37 -6.344,7.73 -1.37,1.669 -4.714,8.82 -1.018,1.904 -2.903,9.57 -0.627,2.066 -0.98,9.952 -0.212,2.149 v 10 10 10 10 10 10 10 10 10 10 10 10 10 10 10 10 10 10 10 10 10 10 10 10 10 10 10 10 10 10 10 10 10 10 10 10 10 10 10 10 10 10 10 10 10 10 10 10 10 10 10 10 10 10 10 10 10 10 10 10 10 10 8.854 l 0.98,9.951 0.212,2.15 2.903,9.569 0.627,2.067 4.714,8.819 1.018,1.905 6.344,7.73 1.37,1.669 7.73,6.344 1.669,1.37 8.819,4.714 1.905,1.018 9.569,2.903 2.067,0.627"
           inkscape:connector-curvature="0"
           style="fill:#969696;stroke:#484848;stroke-width:3;stroke-linecap:butt;stroke-linejoin:round;stroke-opacity:1;fill-opacity:1" />
        <path
           id="path1309"
           d="m 78.75,897.347 h 10 10 10 10 10 10 10 10 10 10 10 10 10 10 10 10 10 10 10 10 10 10 10 10 10 10 10 10 10 10 10 10 10 10 10 10 10 10 10 10 10 10 10 10 10 10 10 10 10 10 10 10 10 10 10 10 10 10 10 10 10 10 10 10 10 10 10 10 10 10 10 10 10 10 10 10 10 10 10 10 10 10 10 10 8.994"
           inkscape:connector-curvature="0"
           style="fill:#969696;stroke:#484848;stroke-width:3;stroke-linecap:butt;stroke-linejoin:round;stroke-opacity:1;fill-opacity:1" />
      </g>
    </g>
  </g>
  <g
     inkscape:groupmode="layer"
     id="layer4"
     inkscape:label="Layer 4">
    <g
       inkscape:label="View Layer_LineSet"
       id="View Layer_LineSet-6"
       transform="translate(13.073,-38.332)">
      <g
         inkscape:label="fills"
         inkscape:groupmode="layer"
         id="fills-2">
        <path
           id="path1532"
           fill_rule="evenodd"
           d="m 879.307,775.619 h -755.31 l -5.918,4.021 v 27.079 h 766.83 V 779.64 Z"
           inkscape:connector-curvature="0"
           style="fill:#cccccc;fill-opacity:1;stroke:none" />
        <path
           id="path1534"
           fill_rule="evenodd"
           d="m 879.307,622.81 h -755.31 l -5.918,1.69 v 27.079 h 766.83 V 624.5 Z"
           inkscape:connector-curvature="0"
           style="fill:#cccccc;fill-opacity:1;stroke:none" />
        <path
           id="path1536"
           fill_rule="evenodd"
           d="m 879.307,549.538 h -755.31 l -5.918,0.572 v 27.08 h 766.83 v -27.08 z"
           inkscape:connector-curvature="0"
           style="fill:#cccccc;fill-opacity:1;stroke:none" />
        <path
           id="path1538"
           fill_rule="evenodd"
           d="m 449.574,443.919 h 429.733 l 5.602,-1.038 V 415.802 H 448.622 v 27.079 z"
           inkscape:connector-curvature="0"
           style="fill:#cccccc;fill-opacity:1;stroke:none" />
        <path
           id="path1540"
           fill_rule="evenodd"
           d="m 449.574,369.9 h 429.733 l 5.602,-2.167 v -27.08 H 448.622 v 27.08 z"
           inkscape:connector-curvature="0"
           style="fill:#cccccc;fill-opacity:1;stroke:none" />
        <path
           id="path1542"
           fill_rule="evenodd"
           d="m 449.574,296.628 h 429.733 l 5.602,-3.284 v -27.08 H 448.622 v 27.08 z"
           inkscape:connector-curvature="0"
           style="fill:#cccccc;fill-opacity:1;stroke:none" />
      </g>
      <g
         inkscape:label="strokes"
         inkscape:groupmode="layer"
         id="strokes-9">
        <path
           id="path1545"
           d="m 449.574,296.628 h 10 10 10 10 10 10 10 10 10 10 10 10 10 10 10 10 10 10 10 10 10 10 10 10 10 10 10 10 10 10 10 10 10 10 10 10 10 10 10 10 10 10 9.733 l 5.602,-3.284 v -10 -10 -7.08 h -10 -10 -10 -10 -10 -10 -10 -10 -10 -10 -10 -10 -10 -10 -10 -10 -10 -10 -10 -10 -10 -10 -10 -10 -10 -10 -10 -10 -10 -10 -10 -10 -10 -10 -10 -10 -10 -10 -10 -10 -10 -10 -10 -6.287 v 10 10 7.08 l 0.952,3.284"
           inkscape:connector-curvature="0"
           style="fill:none;stroke:#484848;stroke-width:3;stroke-linecap:butt;stroke-linejoin:round;stroke-opacity:1" />
        <path
           id="path1547"
           d="m 449.574,369.9 h 10 10 10 10 10 10 10 10 10 10 10 10 10 10 10 10 10 10 10 10 10 10 10 10 10 10 10 10 10 10 10 10 10 10 10 10 10 10 10 10 10 10 9.733 l 5.602,-2.167 v -10 -10 -7.08 h -10 -10 -10 -10 -10 -10 -10 -10 -10 -10 -10 -10 -10 -10 -10 -10 -10 -10 -10 -10 -10 -10 -10 -10 -10 -10 -10 -10 -10 -10 -10 -10 -10 -10 -10 -10 -10 -10 -10 -10 -10 -10 -10 -6.287 v 10 10 7.08 l 0.952,2.167"
           inkscape:connector-curvature="0"
           style="fill:none;stroke:#484848;stroke-width:3;stroke-linecap:butt;stroke-linejoin:round;stroke-opacity:1" />
        <path
           id="path1549"
           d="m 449.574,443.919 h 10 10 10 10 10 10 10 10 10 10 10 10 10 10 10 10 10 10 10 10 10 10 10 10 10 10 10 10 10 10 10 10 10 10 10 10 10 10 10 10 10 10 9.733 l 5.602,-1.038 v -10 -10 -7.079 h -10 -10 -10 -10 -10 -10 -10 -10 -10 -10 -10 -10 -10 -10 -10 -10 -10 -10 -10 -10 -10 -10 -10 -10 -10 -10 -10 -10 -10 -10 -10 -10 -10 -10 -10 -10 -10 -10 -10 -10 -10 -10 -10 -6.287 v 10 10 7.079 l 0.952,1.038"
           inkscape:connector-curvature="0"
           style="fill:none;stroke:#484848;stroke-width:3;stroke-linecap:butt;stroke-linejoin:round;stroke-opacity:1" />
        <path
           id="path1551"
           d="m 448.622,293.344 h 10 10 10 10 10 10 10 10 10 10 10 10 10 10 10 10 10 10 10 10 10 10 10 10 10 10 10 10 10 10 10 10 10 10 10 10 10 10 10 10 10 10 10 6.287"
           inkscape:connector-curvature="0"
           style="fill:none;stroke:#484848;stroke-width:3;stroke-linecap:butt;stroke-linejoin:round;stroke-opacity:1" />
        <path
           id="path1553"
           d="m 448.622,367.733 h 10 10 10 10 10 10 10 10 10 10 10 10 10 10 10 10 10 10 10 10 10 10 10 10 10 10 10 10 10 10 10 10 10 10 10 10 10 10 10 10 10 10 10 6.287"
           inkscape:connector-curvature="0"
           style="fill:none;stroke:#484848;stroke-width:3;stroke-linecap:butt;stroke-linejoin:round;stroke-opacity:1" />
        <path
           id="path1555"
           d="m 448.622,442.881 h 10 10 10 10 10 10 10 10 10 10 10 10 10 10 10 10 10 10 10 10 10 10 10 10 10 10 10 10 10 10 10 10 10 10 10 10 10 10 10 10 10 10 10 6.287"
           inkscape:connector-curvature="0"
           style="fill:none;stroke:#484848;stroke-width:3;stroke-linecap:butt;stroke-linejoin:round;stroke-opacity:1" />
        <path
           id="path1557"
           d="m 879.307,549.538 h -10 -10 -10 -10 -10 -10 -10 -10 -10 -10 -10 -10 -10 -10 -10 -10 -10 -10 -10 -10 -10 -10 -10 -10 -10 -10 -10 -10 -10 -10 -10 -10 -10 -10 -10 -10 -10 -10 -10 -10 -10 -10 -10 -10 -10 -10 -10 -10 -10 -10 -10 -10 -10 -10 -10 -10 -10 -10 -10 -10 -10 -10 -10 -10 -10 -10 -10 -10 -10 -10 -10 -10 -10 -10 -15.31 l -5.918,0.572 v 10 10 7.08 h 10 10 10 10 10 10 10 10 10 10 10 10 10 10 10 10 10 10 10 10 10 10 10 10 10 10 10 10 10 10 10 10 10 10 10 10 10 10 10 10 10 10 10 10 10 10 10 10 10 10 10 10 10 10 10 10 10 10 10 10 10 10 10 10 10 10 10 10 10 10 10 10 10 10 10 16.83 v -10 -10 -7.08 l -5.602,-0.572"
           inkscape:connector-curvature="0"
           style="fill:none;stroke:#484848;stroke-width:3;stroke-linecap:butt;stroke-linejoin:round;stroke-opacity:1" />
        <path
           id="path1559"
           d="m 879.307,622.81 h -10 -10 -10 -10 -10 -10 -10 -10 -10 -10 -10 -10 -10 -10 -10 -10 -10 -10 -10 -10 -10 -10 -10 -10 -10 -10 -10 -10 -10 -10 -10 -10 -10 -10 -10 -10 -10 -10 -10 -10 -10 -10 -10 -10 -10 -10 -10 -10 -10 -10 -10 -10 -10 -10 -10 -10 -10 -10 -10 -10 -10 -10 -10 -10 -10 -10 -10 -10 -10 -10 -10 -10 -10 -10 -15.31 l -5.918,1.69 v 10 10 7.079 h 10 10 10 10 10 10 10 10 10 10 10 10 10 10 10 10 10 10 10 10 10 10 10 10 10 10 10 10 10 10 10 10 10 10 10 10 10 10 10 10 10 10 10 10 10 10 10 10 10 10 10 10 10 10 10 10 10 10 10 10 10 10 10 10 10 10 10 10 10 10 10 10 10 10 10 16.83 v -10 -10 -7.079 l -5.602,-1.69"
           inkscape:connector-curvature="0"
           style="fill:none;stroke:#484848;stroke-width:3;stroke-linecap:butt;stroke-linejoin:round;stroke-opacity:1" />
        <path
           id="path1561"
           d="m 884.909,550.11 h -10 -10 -10 -10 -10 -10 -10 -10 -10 -10 -10 -10 -10 -10 -10 -10 -10 -10 -10 -10 -10 -10 -10 -10 -10 -10 -10 -10 -10 -10 -10 -10 -10 -10 -10 -10 -10 -10 -10 -10 -10 -10 -10 -10 -10 -10 -10 -10 -10 -10 -10 -10 -10 -10 -10 -10 -10 -10 -10 -10 -10 -10 -10 -10 -10 -10 -10 -10 -10 -10 -10 -10 -10 -10 -10 -16.83"
           inkscape:connector-curvature="0"
           style="fill:none;stroke:#484848;stroke-width:3;stroke-linecap:butt;stroke-linejoin:round;stroke-opacity:1" />
        <path
           id="path1563"
           d="m 884.909,624.5 h -10 -10 -10 -10 -10 -10 -10 -10 -10 -10 -10 -10 -10 -10 -10 -10 -10 -10 -10 -10 -10 -10 -10 -10 -10 -10 -10 -10 -10 -10 -10 -10 -10 -10 -10 -10 -10 -10 -10 -10 -10 -10 -10 -10 -10 -10 -10 -10 -10 -10 -10 -10 -10 -10 -10 -10 -10 -10 -10 -10 -10 -10 -10 -10 -10 -10 -10 -10 -10 -10 -10 -10 -10 -10 -10 -16.83"
           inkscape:connector-curvature="0"
           style="fill:none;stroke:#484848;stroke-width:3;stroke-linecap:butt;stroke-linejoin:round;stroke-opacity:1" />
        <path
           id="path1565"
           d="m 879.307,775.619 h -10 -10 -10 -10 -10 -10 -10 -10 -10 -10 -10 -10 -10 -10 -10 -10 -10 -10 -10 -10 -10 -10 -10 -10 -10 -10 -10 -10 -10 -10 -10 -10 -10 -10 -10 -10 -10 -10 -10 -10 -10 -10 -10 -10 -10 -10 -10 -10 -10 -10 -10 -10 -10 -10 -10 -10 -10 -10 -10 -10 -10 -10 -10 -10 -10 -10 -10 -10 -10 -10 -10 -10 -10 -10 -15.31 l -5.918,4.021 v 10 10 7.079 h 10 10 10 10 10 10 10 10 10 10 10 10 10 10 10 10 10 10 10 10 10 10 10 10 10 10 10 10 10 10 10 10 10 10 10 10 10 10 10 10 10 10 10 10 10 10 10 10 10 10 10 10 10 10 10 10 10 10 10 10 10 10 10 10 10 10 10 10 10 10 10 10 10 10 10 16.83 v -10 -10 -7.079 l -5.602,-4.021"
           inkscape:connector-curvature="0"
           style="fill:none;stroke:#484848;stroke-width:3;stroke-linecap:butt;stroke-linejoin:round;stroke-opacity:1" />
        <path
           id="path1567"
           d="m 884.909,779.64 h -10 -10 -10 -10 -10 -10 -10 -10 -10 -10 -10 -10 -10 -10 -10 -10 -10 -10 -10 -10 -10 -10 -10 -10 -10 -10 -10 -10 -10 -10 -10 -10 -10 -10 -10 -10 -10 -10 -10 -10 -10 -10 -10 -10 -10 -10 -10 -10 -10 -10 -10 -10 -10 -10 -10 -10 -10 -10 -10 -10 -10 -10 -10 -10 -10 -10 -10 -10 -10 -10 -10 -10 -10 -10 -10 -16.83"
           inkscape:connector-curvature="0"
           style="fill:none;stroke:#484848;stroke-width:3;stroke-linecap:butt;stroke-linejoin:round;stroke-opacity:1" />
      </g>
    </g>
  </g>
  <g
     inkscape:groupmode="layer"
     id="layer2"
     inkscape:label="Layer 2">
    <g
       inkscape:label="View Layer_LineSet"
       id="View Layer_LineSet-5"
       transform="translate(-28.144,23.293)">
      <g
         inkscape:label="fills"
         inkscape:groupmode="layer"
         id="fills-3">
        <path
           id="path1098"
           fill_rule="evenodd"
           d="m 718.441,822.211 67.952,-0.711 v -94.532 l 93.263,-0.677 v -68.287 l -25.226,-8.459 -68.037,0.317 v -85.929 l -19.881,-3.018 -64.038,0.106 v 89.232 l -88.827,0.414 v 64.855 l 10.507,12.625 78.32,-0.569 v 76.567 z"
           inkscape:connector-curvature="0"
           style="fill:#aecce5;fill-opacity:1;stroke:none" />
        <path
           id="path1100"
           fill_rule="evenodd"
           d="m 956.563,553.213 -14.3,-19.574 -16.137,-18.074 -17.826,-16.4 -19.347,-14.567 -20.689,-12.593 -21.837,-10.494 -22.778,-8.29 -23.503,-6.003 -24.007,-3.653 -24.28,-1.261 -24.319,1.149 -24.124,3.553 -23.696,5.928 -14.072,3.53 -21.668,7.762 -20.834,9.875 -19.795,11.897 -18.56,13.807 -17.143,15.586 -15.553,17.214 -13.811,18.677 -11.929,19.959 -9.928,21.045 -7.828,21.925 -5.648,22.591 -3.412,23.034 -1.141,23.25 1.141,23.236 3.412,22.995 5.648,22.526 4.112,15.332 8.327,23.227 10.561,22.262 12.688,21.08 14.689,19.691 16.543,18.112 18.23,16.357 19.737,14.446 21.048,12.396 22.15,10.232 23.036,7.972 23.696,5.64 24.124,3.259 24.319,0.852 24.28,-1.557 24.006,-3.945 23.504,-6.289 22.778,-8.569 21.836,-10.76 20.689,-12.844 19.348,-14.803 17.826,-16.617 16.137,-18.271 14.3,-19.749 12.33,-21.038 10.246,-22.129 8.069,-23.01 5.816,-23.673 3.512,-24.114 1.174,-24.328 -1.174,-24.314 -3.512,-24.072 -5.816,-23.602 -8.069,-22.911 -10.246,-22.004 z M 702.87,528.18 l 16.279,-4.117 16.582,-2.487 12.842,-0.64 1.191,0.058 15.55,2.323 15.233,3.847 14.771,5.332 14.168,6.763 13.43,8.128 12.566,9.413 11.582,10.606 10.489,11.699 9.299,12.677 8.02,13.536 6.666,14.264 5.251,14.856 3.786,15.308 2.286,15.615 0.764,15.772 -0.764,15.782 -2.286,15.64 -3.786,15.352 -5.251,14.917 -6.666,14.34 -8.02,13.627 -9.299,12.784 -10.489,11.819 -11.583,10.74 -12.565,9.557 -13.43,8.282 -14.168,6.925 -14.771,5.501 -15.234,4.022 -15.55,2.502 -15.718,0.955 -15.734,-0.604 -15.6,-2.158 -15.313,-3.695 -14.879,-5.199 -14.3,-6.653 -13.58,-8.046 -12.729,-9.362 -11.752,-10.589 -10.659,-11.714 -8.859,-11.917 -6.577,-13.906 -5.7,-15.943 -4.112,-16.445 -2.483,-16.785 -0.831,-16.962 0.831,-16.972 2.483,-16.816 4.112,-16.496 5.7,-16.013 7.23,-15.374 8.689,-14.586 10.062,-13.656 11.335,-12.593 12.496,-11.409 13.535,-10.116 14.439,-8.725 15.203,-7.253 z"
           inkscape:connector-curvature="0"
           style="fill:#9bd4cd;fill-opacity:1;stroke:none" />
      </g>
      <g
         inkscape:label="strokes"
         inkscape:groupmode="layer"
         id="strokes-5">
        <path
           id="path1103"
           d="m 752.456,520.742 9.988,0.492 6.718,0.331 9.89,1.479 6.636,0.992 9.695,2.449 6.493,1.641 9.406,3.397 6.29,2.272 9.024,4.31 6.031,2.881 8.553,5.18 5.716,3.462 8.002,5.998 5.348,4.01 7.373,6.756 4.932,4.52 6.673,7.448 4.47,4.989 5.912,8.066 3.966,5.412 5.095,8.605 3.424,5.785 4.232,9.06 2.85,6.104 3.33,9.429 2.247,6.365 2.399,9.708 1.622,6.566 1.448,9.894 0.98,6.706 0.484,9.988 0.328,6.78 -0.483,9.989 -0.329,6.79 -1.444,9.895 -0.984,6.735 -2.392,9.709 -1.629,6.614 -3.317,9.434 -2.26,6.428 -4.212,9.07 -2.87,6.18 -5.067,8.621 -3.452,5.873 -5.877,8.091 -4.001,5.507 -6.632,7.484 -4.511,5.089 -7.328,6.805 -4.977,4.622 -7.954,6.061 -5.396,4.11 -8.507,5.256 -5.763,3.56 -8.98,4.399 -6.074,2.976 -9.368,3.498 -6.328,2.362 -9.667,2.561 -6.521,1.728 -9.872,1.596 -6.655,1.076 -9.981,0.613 -6.724,0.414 -9.993,-0.376 -6.732,-0.254 -9.906,-1.364 -6.676,-0.92 -9.722,-2.34 -6.557,-1.579 -9.442,-3.293 -6.376,-2.225 -9.068,-4.215 -6.135,-2.851 -8.605,-5.095 -5.834,-3.454 -8.057,-5.924 -5.478,-4.027 -7.43,-6.693 -5.066,-4.563 -6.731,-7.396 -4.604,-5.059 -5.967,-8.025 -4.095,-5.508 -5.145,-8.575 -3.544,-5.905 -0.653,-1.381 -4.276,-9.04 -2.301,-4.866 -3.366,-9.416 -2.334,-6.527 -2.425,-9.701 -1.687,-6.744 -1.463,-9.892 -1.02,-6.893 -0.49,-9.989 -0.341,-6.973 0.489,-9.988 0.342,-6.984 1.461,-9.893 1.022,-6.923 2.419,-9.703 1.693,-6.793 3.354,-9.421 2.346,-6.592 4.255,-9.049 2.975,-6.325 5.118,-8.591 3.571,-5.995 5.932,-8.051 4.13,-5.605 6.69,-7.433 4.645,-5.16 7.385,-6.743 5.111,-4.666 8.01,-5.987 5.525,-4.129 8.558,-5.172 5.881,-3.553 9.026,-4.306 6.177,-2.947 9.406,-3.396 6.412,-2.315 9.695,-2.452 6.584,-1.665 9.89,-1.483 6.692,-1.004 9.988,-0.498 2.854,-0.142 3.883,-0.194"
           inkscape:connector-curvature="0"
           style="fill:none;stroke:#484848;stroke-width:3;stroke-linecap:butt;stroke-linejoin:round;stroke-opacity:1" />
        <path
           id="path1105"
           d="m 956.563,553.213 -5.899,-8.074 -5.899,-8.075 -2.502,-3.425 -6.66,-7.46 -6.66,-7.459 -2.817,-3.155 -7.36,-6.771 -7.359,-6.77 -3.107,-2.859 -7.989,-6.015 -7.988,-6.015 -3.37,-2.537 -8.542,-5.199 -8.543,-5.199 -3.604,-2.195 -9.014,-4.331 -9.013,-4.332 -3.81,-1.831 -9.397,-3.42 -9.397,-3.42 -3.984,-1.45 -9.688,-2.475 -9.69,-2.475 -4.125,-1.053 -9.887,-1.504 -9.886,-1.505 -4.234,-0.644 -9.986,-0.518 -9.987,-0.519 -4.307,-0.224 -9.989,0.472 -9.988,0.472 -4.342,0.205 -9.893,1.457 -9.893,1.457 -4.338,0.639 -9.701,2.427 -9.701,2.427 -4.294,1.074 -9.699,2.433 -4.373,1.097 -9.414,3.372 -9.414,3.373 -2.84,1.017 -9.036,4.283 -9.037,4.283 -2.761,1.309 -8.571,5.151 -8.571,5.152 -2.653,1.594 -8.023,5.969 -8.024,5.968 -2.513,1.87 -7.399,6.727 -7.399,6.727 -2.345,2.132 -6.704,7.42 -6.704,7.419 -2.145,2.375 -5.946,8.041 -5.946,8.04 -1.919,2.596 -5.13,8.584 -5.131,8.583 -1.668,2.792 -4.267,9.044 -4.266,9.044 -1.395,2.957 -3.363,9.417 -3.362,9.418 -1.103,3.09 -2.425,9.701 -2.426,9.702 -0.797,3.188 -1.465,9.892 -1.465,9.892 -0.482,3.25 -0.49,9.988 -0.49,9.988 -0.161,3.274 0.491,9.988 0.49,9.987 0.16,3.261 1.468,9.892 1.468,9.892 0.476,3.211 2.432,9.7 2.432,9.7 0.784,3.126 2.591,9.659 1.521,5.673 3.375,9.413 3.375,9.413 1.577,4.401 4.286,9.035 4.286,9.035 1.989,4.192 5.157,8.568 5.157,8.567 2.374,3.945 5.98,8.015 5.979,8.016 2.73,3.66 6.744,7.384 6.744,7.384 3.055,3.344 7.443,6.678 7.443,6.679 3.344,3 8.07,5.906 8.069,5.906 3.598,2.634 8.616,5.075 8.617,5.075 3.815,2.246 9.078,4.194 9.078,4.193 3.994,1.845 9.451,3.27 9.45,3.271 4.135,1.431 9.729,2.315 9.728,2.316 4.239,1.009 9.91,1.338 9.91,1.339 4.304,0.582 9.994,0.35 9.994,0.35 4.331,0.152 9.98,-0.64 9.98,-0.64 4.32,-0.277 9.867,-1.622 9.868,-1.621 4.271,-0.702 9.66,-2.585 9.66,-2.585 4.184,-1.119 9.36,-3.521 9.359,-3.521 4.059,-1.527 8.97,-4.42 8.97,-4.42 3.896,-1.92 8.496,-5.274 8.496,-5.275 3.697,-2.295 7.942,-6.077 7.942,-6.076 3.464,-2.65 7.315,-6.819 7.314,-6.819 3.197,-2.979 6.62,-7.495 6.62,-7.495 2.897,-3.281 5.865,-8.1 5.865,-8.099 2.57,-3.55 5.056,-8.627 5.056,-8.628 2.218,-3.783 4.201,-9.075 4.202,-9.074 1.843,-3.98 3.309,-9.437 3.309,-9.437 1.451,-4.136 2.386,-9.711 2.386,-9.711 1.044,-4.251 1.441,-9.896 1.441,-9.895 0.63,-4.323 0.482,-9.988 0.482,-9.989 0.21,-4.351 -0.483,-9.989 -0.482,-9.988 -0.209,-4.337 -1.444,-9.896 -1.443,-9.895 -0.625,-4.281 -2.393,-9.709 -2.392,-9.71 -1.031,-4.183 -3.322,-9.432 -3.322,-9.432 -1.425,-4.047 -4.221,-9.066 -4.222,-9.065 -1.803,-3.873 -5.083,-8.612 -5.084,-8.612 -2.163,-3.665"
           inkscape:connector-curvature="0"
           style="fill:none;stroke:#484848;stroke-width:3;stroke-linecap:butt;stroke-linejoin:round;stroke-opacity:1" />
        <path
           id="path1107"
           d="m 679.72,452.934 -9.414,3.373 -9.414,3.372 -4.208,1.508 -9.036,4.284 -9.036,4.284 -4.078,1.933 -8.571,5.153 -8.57,5.152 -3.907,2.349 -8.023,5.969 -8.023,5.97 -3.691,2.747 -7.398,6.728 -7.398,6.728 -3.434,3.123 -6.704,7.421 -6.703,7.42 -3.136,3.472 -5.944,8.041 -5.945,8.042 -2.8,3.788 -5.129,8.584 -5.13,8.584 -2.429,4.066 -4.266,9.044 -4.266,9.045 -2.029,4.302 -3.362,9.418 -3.361,9.418 -1.604,4.493 -2.425,9.701 -2.425,9.702 -1.158,4.633 -1.465,9.892 -1.465,9.892 -0.7,4.724 -0.49,9.988 -0.49,9.988 -0.234,4.761 0.491,9.988 0.49,9.988 0.233,4.746 1.468,9.892 1.468,9.891 0.694,4.68 2.432,9.7 2.432,9.7 1.144,4.564"
           inkscape:connector-curvature="0"
           style="fill:none;stroke:#484848;stroke-width:3;stroke-linecap:butt;stroke-linejoin:round;stroke-opacity:1" />
        <path
           id="path1109"
           d="m 786.393,658.466 v -8.604 -10 -10 -10 -10 -10 -10 -10 -10 -5.929 l -9.887,-1.501 -9.994,-1.517 -10,0.017 -10,0.016 -10,0.017 -10,0.016 -10,0.017 -10,0.016 -4.038,0.007 v 10 10 10 10 10 10 10 10 9.232 l -10,0.046 -10,0.047 -10,0.046 -10,0.047 -9.999,0.047 -10,0.046 -10,0.047 -10,0.046 -8.828,0.042 v 10 10 10 10 10 10 4.855 l 6.397,7.686 4.11,4.939 10,-0.073 10,-0.072 9.999,-0.073 10,-0.073 10,-0.072 10,-0.073 9.999,-0.073 8.322,-0.06 10,-0.073 5.967,-0.043 v 10 10 10 10 10 10 10 10 10 4.749"
           inkscape:connector-curvature="0"
           style="fill:none;stroke:#484848;stroke-width:3;stroke-linecap:butt;stroke-linejoin:round;stroke-opacity:1" />
        <path
           id="path1111"
           d="m 702.474,727.578 v 10 10 10 10 10 10 10 6.567 l 6.622,7.493 6.623,7.493 2.722,3.08 9.999,-0.104 10,-0.105 9.999,-0.105 10,-0.104 9.999,-0.105 10,-0.104 7.955,-0.084 v -10 -10 -10 -10 -10 -10 -10 -10 -10 -4.532 l 10,-0.072 10,-0.073 9.999,-0.073 10,-0.072 10,-0.073 10,-0.073 9.999,-0.072 10,-0.073 10,-0.072 3.265,-0.024 v -10 -10 -10 -10 -10 -10 -8.287 l -9.481,-3.179 -9.481,-3.18 -6.264,-2.1 -10,0.046 -10,0.047 -10,0.047 -10,0.046 -9.999,0.047 -10,0.046 -8.038,0.038"
           inkscape:connector-curvature="0"
           style="fill:none;stroke:#484848;stroke-width:3;stroke-linecap:butt;stroke-linejoin:round;stroke-opacity:1" />
        <path
           id="path1113"
           d="m 718.441,658.802 -10,0.05 -10,0.049 -10,0.05 -9.999,0.049 -10,0.05 -10,0.049 -10,0.05 -10,0.049 -10,0.05 -4.288,0.021"
           inkscape:connector-curvature="0"
           style="fill:none;stroke:#484848;stroke-width:3;stroke-linecap:butt;stroke-linejoin:round;stroke-opacity:1" />
        <path
           id="path1115"
           d="m 613.647,650.667 7.737,6.334 2.77,2.268 v 10 10 10 10 10 10 8.878"
           inkscape:connector-curvature="0"
           style="fill:none;stroke:#484848;stroke-width:3;stroke-linecap:butt;stroke-linejoin:round;stroke-opacity:1" />
        <path
           id="path1117"
           d="m 879.656,658.004 -10,0.05 -10,0.049 -10,0.05 -10,0.049 -9.999,0.05 -10,0.049 -10,0.05 -10,0.049 -10,0.05 -3.264,0.016"
           inkscape:connector-curvature="0"
           style="fill:none;stroke:#484848;stroke-width:3;stroke-linecap:butt;stroke-linejoin:round;stroke-opacity:1" />
        <path
           id="path1119"
           d="m 718.441,564.052 v 10 10 10 10 10 10 10 10 10 4.75 l -8.816,-4.72 -7.151,-3.829"
           inkscape:connector-curvature="0"
           style="fill:none;stroke:#484848;stroke-width:3;stroke-linecap:butt;stroke-linejoin:round;stroke-opacity:1" />
        <path
           id="path1121"
           d="m 786.393,563.933 -10,0.018 -10,0.017 -10,0.018 -10,0.017 -10,0.018 -10,0.017 -7.952,0.014 -9.824,-1.865 -6.143,-1.166"
           inkscape:connector-curvature="0"
           style="fill:none;stroke:#484848;stroke-width:3;stroke-linecap:butt;stroke-linejoin:round;stroke-opacity:1" />
        <path
           id="path1123"
           d="m 748.573,520.936 1.191,0.058 9.89,1.478 5.66,0.845 9.695,2.449 5.538,1.398 9.406,3.396 5.365,1.936 9.024,4.308 5.144,2.455 8.555,5.177 4.875,2.951 8.003,5.995 4.563,3.418 7.374,6.753 4.208,3.853 6.676,7.446 3.813,4.253 5.915,8.063 3.384,4.614 5.097,8.604 2.923,4.932 4.234,9.059 2.432,5.205 3.333,9.428 1.918,5.428 2.401,9.708 1.385,5.6 1.449,9.895 0.837,5.72 0.484,9.988 0.28,5.784 -0.484,9.989 -0.28,5.793 -1.446,9.895 -0.84,5.745 -2.394,9.709 -1.392,5.643 -3.32,9.432 -1.931,5.485 -4.215,9.068 -2.451,5.272 -5.072,8.618 -2.948,5.009 -5.882,8.087 -3.417,4.697 -6.638,7.48 -3.851,4.339 -7.333,6.8 -4.25,3.94 -7.959,6.054 -4.606,3.503 -8.512,5.249 -4.918,3.033 -8.985,4.391 -5.183,2.534 -9.372,3.49 -5.399,2.011 -9.669,2.553 -5.565,1.469 -9.873,1.588 -5.677,0.914 -9.981,0.606 -5.737,0.349 -9.992,-0.384 -5.742,-0.22 -9.906,-1.371 -5.694,-0.787 -9.721,-2.346 -5.592,-1.349 -9.441,-3.299 -5.438,-1.9 -9.067,-4.218 -5.233,-2.435 -8.603,-5.097 -4.977,-2.949 -8.056,-5.925 -4.673,-3.437 -7.429,-6.694 -4.323,-3.895 -6.73,-7.396 -3.929,-4.318 -5.966,-8.025 -2.893,-3.892"
           inkscape:connector-curvature="0"
           style="fill:none;stroke:#484848;stroke-width:3;stroke-linecap:butt;stroke-linejoin:round;stroke-opacity:1" />
      </g>
    </g>
  </g>
  <g
     inkscape:groupmode="layer"
     id="layer5"
     inkscape:label="Layer 5">
    <g
       inkscape:label="View Layer_LineSet"
       id="View Layer_LineSet-1"
       transform="translate(16.172887,-10.427588)">
      <g
         inkscape:label="fills"
         inkscape:groupmode="layer"
         id="fills-27">
        <path
           id="path1679"
           fill_rule="evenodd"
           d="m 181.898,307.872 2.204,1.507 2.013,1.372 1.68,6.268 2.153,6.025 2.605,5.722 3.033,5.366 3.43,4.956 3.795,4.5 4.124,4 4.412,3.461 4.658,2.89 8.741,4.694 4.714,2.222 4.864,1.619 4.967,0.999 5.022,0.372 5.028,-0.26 4.988,-0.89 4.897,-1.51 4.76,-2.116 4.578,-2.703 4.351,-3.262 4.082,-3.79 3.775,-4.282 3.43,-4.733 3.053,-5.138 2.646,-5.493 2.213,-5.796 1.761,-6.043 1.827,-1.462 2.168,-1.415 2.062,-1.706 1.935,-1.983 1.79,-2.24 1.626,-2.475 1.449,-2.687 1.256,-2.872 1.051,-3.031 0.837,-3.159 0.614,-3.257 0.386,-3.324 0.153,-3.36 -0.08,-3.362 -0.313,-3.332 -0.544,-3.271 -0.768,-3.177 -0.985,-3.053 -1.193,-2.9 -1.39,-2.719 -1.572,-2.511 0.853,-6.484 0.3,-6.54 -0.244,-6.535 -0.776,-6.47 -1.419,-6.001 -2.216,-5.896 -2.794,-4.443 -4.506,-6.257 -0.138,-2.104 -1.241,-4.396 -2.872,-5.116 -6.761,-9.562 -4.38,-4.507 -4.779,-3.991 -5.175,-3.422 -5.508,-2.824 -5.753,-2.205 -5.964,-1.58 -6.122,-0.947 -6.211,-0.305 -6.231,0.342 -6.181,0.985 -6.125,1.529 -6.023,2.029 -5.863,2.535 -5.614,3.058 -5.278,3.592 -4.803,4.135 -4.217,4.684 -3.573,5.234 -2.888,5.767 -2.219,6.223 -1.595,6.58 -1.029,6.826 -0.52,6.968 -0.082,6.992 0.338,6.903 0.025,6.307 -1.677,2.552 -1.493,2.77 -1.295,2.961 -1.083,3.124 -0.863,3.257 -0.632,3.359 -0.397,3.427 -0.158,3.463 0.083,3.467 0.324,3.435 0.561,3.372 0.792,3.275 1.017,3.147 1.231,2.99 1.433,2.802 1.622,2.589 1.795,2.35 1.95,2.088 z"
           inkscape:connector-curvature="0"
           style="fill:#cccccc;fill-opacity:1;stroke:none" />
      </g>
      <g
         inkscape:label="strokes"
         inkscape:groupmode="layer"
         id="strokes-0">
        <path
           id="path1682"
           d="m 293.382,211.907 -0.138,-2.104 -1.241,-4.396 -2.872,-5.116 -5.773,-8.165 -0.988,-1.397 -4.38,-4.507 -4.779,-3.991 -5.175,-3.422 -5.508,-2.824 -5.753,-2.205 -5.964,-1.58 -6.122,-0.947 -6.211,-0.305 -6.231,0.342 -6.181,0.985 -6.125,1.529 -6.023,2.029 -5.863,2.535 -5.614,3.058 -5.278,3.592 -4.803,4.135 -4.217,4.684 -3.573,5.234 -2.888,5.767 -2.219,6.223 -1.595,6.58 -1.029,6.826 -0.52,6.968 -0.082,6.992 0.338,6.903 0.025,6.307 -1.677,2.552 -1.493,2.77 -1.295,2.961 -1.083,3.124 -0.863,3.257 -0.632,3.359 -0.397,3.427 -0.158,3.463 0.083,3.467 0.324,3.435 0.561,3.372 0.792,3.275 1.017,3.147 1.231,2.99 1.433,2.802 1.622,2.589 1.795,2.35 1.95,2.088 2.088,1.807 2.204,1.507 2.013,1.372 1.68,6.268 2.153,6.025 2.605,5.722 3.033,5.366 3.43,4.956 3.795,4.5 4.124,4 4.412,3.461 4.658,2.89 8.741,4.694 4.714,2.222 4.864,1.619 4.967,0.999 5.022,0.372 5.028,-0.26 4.988,-0.89 4.897,-1.51 4.76,-2.116 4.578,-2.703 4.351,-3.262 4.082,-3.79 3.775,-4.282 3.43,-4.733 3.053,-5.138 2.646,-5.493 2.213,-5.796 1.761,-6.043 1.827,-1.462 2.168,-1.415 2.062,-1.706 1.935,-1.983 1.79,-2.24 1.626,-2.475 1.449,-2.687 1.256,-2.872 1.051,-3.031 0.837,-3.159 0.614,-3.257 0.386,-3.324 0.153,-3.36 -0.08,-3.362 -0.313,-3.332 -0.544,-3.271 -0.768,-3.177 -0.985,-3.053 -1.193,-2.9 -1.39,-2.719 -1.572,-2.511 0.853,-6.484 0.3,-6.54 -0.244,-6.535 -0.776,-6.47 -1.419,-6.001 -2.216,-5.896 -2.794,-4.443 -4.506,-6.257 -1.985,-2.756 -4.491,-4.098"
           inkscape:connector-curvature="0"
           style="fill:none;stroke:#484848;stroke-width:3;stroke-linecap:butt;stroke-linejoin:round;stroke-opacity:1" />
        <path
           id="path1684"
           d="m 216.005,353.939 4.859,2.29 5.013,1.668 5.12,1.031 5.176,0.383 5.184,-0.268 5.14,-0.917 5.048,-1.556 4.907,-2.182 4.719,-2.785 4.485,-3.363 4.207,-3.906 3.891,-4.414 3.535,-4.879 3.147,-5.295 2.727,-5.663 2.282,-5.974 1.815,-6.229"
           inkscape:connector-curvature="0"
           style="fill:none;stroke:#484848;stroke-width:3;stroke-linecap:butt;stroke-linejoin:round;stroke-opacity:1" />
        <path
           id="path1686"
           d="m 293.875,317.829 -6.615,-5.949 1.883,-1.507 2.235,-1.458 2.126,-1.759 1.994,-2.044 1.845,-2.308 1.676,-2.552 1.493,-2.769 1.295,-2.96 1.083,-3.124 0.863,-3.256 0.633,-3.358 0.398,-3.426 0.158,-3.463 -0.083,-3.465 -0.323,-3.435 -0.56,-3.371 -0.792,-3.275 -1.015,-3.147 -1.23,-2.989 -1.432,-2.803 -1.621,-2.588"
           inkscape:connector-curvature="0"
           style="fill:none;stroke:#484848;stroke-width:3;stroke-linecap:butt;stroke-linejoin:round;stroke-opacity:1" />
        <path
           id="path1688"
           d="m 304.184,260.533 -6.298,-7.71 0.879,-6.683 0.309,-6.742 -0.251,-6.735 -0.8,-6.669 -1.462,-6.186 -2.285,-6.078 -0.865,-1.375 -2.014,-3.204"
           inkscape:connector-curvature="0"
           style="fill:none;stroke:#484848;stroke-width:3;stroke-linecap:butt;stroke-linejoin:round;stroke-opacity:1" />
        <path
           id="path1690"
           d="m 286.906,205.053 -0.297,-4.52 -1.279,-4.532 -2.96,-5.272"
           inkscape:connector-curvature="0"
           style="fill:none;stroke:#484848;stroke-width:3;stroke-linecap:butt;stroke-linejoin:round;stroke-opacity:1" />
      </g>
    </g>
    <g
       inkscape:label="View Layer_LineSet"
       id="View Layer_LineSet-9"
       transform="translate(19.169887,-14.222588)">
      <g
         inkscape:label="fills"
         inkscape:groupmode="layer"
         id="fills-36">
        <path
           id="path1880"
           fill_rule="evenodd"
           d="m 140.986,477.011 13.217,2.938 13.529,2.349 13.71,1.739 9.772,0.813 13.349,1.078 13.269,0.459 13.06,-0.165 11.933,0.341 11.936,-0.08 13.052,0.449 13.273,-0.169 13.366,-0.786 13.33,-1.396 13.165,-1.992 12.874,-2.569 12.459,-3.12 11.924,-3.643 11.275,-4.13 10.516,-4.576 -0.203,-6.706 -0.534,-8.882 -1.268,-8.744 -1.353,-8.515 -2.068,-8.318 -2.762,-8.04 -3.43,-7.686 -3.065,-7.292 -3.417,-6.554 -2.848,-4.645 -3.227,-4.298 -3.576,-3.909 -3.891,-3.483 -4.939,-4.114 -4.296,-3.116 -4.541,-2.613 -50.929,-26.731 -3.164,5.832 -4.024,5.74 -3.484,3.841 -3.836,3.473 -4.151,3.073 -4.426,2.642 -4.657,2.187 -4.846,1.71 -4.986,1.217 -5.079,0.711 -5.123,0.201 -5.117,-0.314 -5.062,-0.824 -4.96,-1.327 -2.388,-0.903 -2.386,-1.497 -3.963,-3.07 -3.648,-3.451 -3.3,-3.801 -3.784,-5.655 -2.948,-5.726 -9.554,-5.115 -51.515,25.599 -4.599,2.512 -4.365,3.022 -4.089,3.501 -3.775,3.949 -3.424,4.356 -3.039,4.723 -3.67,6.679 -3.323,7.448 -3.708,7.845 -3.028,8.226 -2.318,8.528 -1.585,8.747 -1.502,8.986 -0.748,9.144 -0.359,6.909 10.744,4.956 11.535,4.511 12.215,4.024 z"
           inkscape:connector-curvature="0"
           style="fill:#cccccc;fill-opacity:1;stroke:none" />
      </g>
      <g
         inkscape:label="strokes"
         inkscape:groupmode="layer"
         id="strokes-06">
        <path
           id="path1883"
           d="m 218.345,368.164 -2.386,-1.497 -3.963,-3.07 -3.648,-3.451 -3.3,-3.801 -3.784,-5.655 -2.948,-5.726 -8.816,-4.72 -0.738,-0.395 -8.955,4.45 -8.955,4.45 -8.956,4.45 -8.955,4.45 -8.955,4.45 -6.739,3.349 -4.599,2.512 -4.365,3.022 -4.089,3.501 -3.775,3.949 -3.424,4.356 -3.039,4.723 -3.67,6.679 -3.323,7.448 -3.708,7.845 -3.028,8.226 -2.318,8.528 -1.585,8.747 -1.502,8.986 -0.748,9.144 -0.359,6.909 9.081,4.188 1.663,0.768 9.313,3.642 2.222,0.869 9.498,3.129 2.717,0.895 9.645,2.64 3.132,0.857 9.762,2.17 3.455,0.768 9.853,1.711 3.676,0.638 9.92,1.258 3.79,0.481 9.772,0.813 9.968,0.805 3.381,0.273 9.994,0.346 3.275,0.113 9.999,-0.126 3.061,-0.039 9.996,0.286 1.937,0.055 9.999,-0.067 1.937,-0.013 9.994,0.344 3.058,0.105 9.999,-0.127 3.274,-0.042 9.983,-0.587 3.383,-0.199 9.946,-1.042 3.384,-0.354 9.887,-1.496 3.278,-0.496 9.807,-1.957 3.067,-0.612 9.7,-2.429 2.759,-0.691 9.564,-2.922 2.36,-0.721 9.39,-3.439 1.885,-0.691 9.169,-3.99 1.347,-0.586 -0.203,-6.706 -0.534,-8.882 -1.268,-8.744 -1.353,-8.515 -2.068,-8.318 -2.762,-8.04 -3.43,-7.686 -3.065,-7.292 -3.417,-6.554 -2.848,-4.645 -3.227,-4.298 -3.576,-3.909 -3.891,-3.483 -4.939,-4.114 -4.296,-3.116 -4.541,-2.613 -8.854,-4.648 -8.855,-4.647 -8.854,-4.647 -8.855,-4.648 -8.854,-4.647 -6.657,-3.494 -3.164,5.832 -4.024,5.74 -3.484,3.841 -3.836,3.473 -4.151,3.073 -4.426,2.642 -4.657,2.187 -4.846,1.71 -4.986,1.217 -5.079,0.711 -5.123,0.201 -5.117,-0.314 -5.062,-0.824 -4.96,-1.327 -2.388,-0.903 -2.419,-0.914"
           inkscape:connector-curvature="0"
           style="fill:none;stroke:#484848;stroke-width:3;stroke-linecap:butt;stroke-linejoin:round;stroke-opacity:1" />
        <path
           id="path1885"
           d="m 181.442,484.037 9.967,0.805 3.793,0.306 9.994,0.346 3.683,0.127 9.999,-0.126 3.463,-0.044 9.996,0.286 2.303,0.065 10,-0.067 2.303,-0.015 9.994,0.344 3.46,0.119 9.999,-0.127 3.682,-0.047 9.983,-0.588 3.794,-0.223 9.946,-1.041 3.794,-0.398 9.887,-1.495 3.683,-0.558 9.807,-1.956 3.463,-0.691 9.7,-2.43 3.142,-0.787 9.564,-2.922 2.727,-0.833 9.39,-3.439 2.231,-0.817 9.169,-3.991 1.671,-0.727"
           inkscape:connector-curvature="0"
           style="fill:none;stroke:#484848;stroke-width:3;stroke-linecap:butt;stroke-linejoin:round;stroke-opacity:1" />
        <path
           id="path1887"
           d="m 379.995,464.551 -3.966,-1.438 -0.21,-6.912 -0.55,-9.155 -1.307,-9.012 -1.395,-8.777 -2.131,-8.573 -2.847,-8.288 -3.536,-7.922 -3.159,-7.516 -3.522,-6.756 -2.935,-4.787 -3.327,-4.43 -3.686,-4.03 -4.01,-3.59"
           inkscape:connector-curvature="0"
           style="fill:none;stroke:#484848;stroke-width:3;stroke-linecap:butt;stroke-linejoin:round;stroke-opacity:1" />
        <path
           id="path1889"
           d="m 215.926,367.25 -4.611,-2.29 -4.368,-2.74 -4.084,-3.165 -3.761,-3.557 -3.401,-3.918 -3.901,-5.828 -3.038,-5.903"
           inkscape:connector-curvature="0"
           style="fill:none;stroke:#484848;stroke-width:3;stroke-linecap:butt;stroke-linejoin:round;stroke-opacity:1" />
      </g>
    </g>
  </g>
</svg>
