<?xml version="1.0" encoding="UTF-8" standalone="no"?>
<svg
   xmlns:dc="http://purl.org/dc/elements/1.1/"
   xmlns:cc="http://creativecommons.org/ns#"
   xmlns:rdf="http://www.w3.org/1999/02/22-rdf-syntax-ns#"
   xmlns:svg="http://www.w3.org/2000/svg"
   xmlns="http://www.w3.org/2000/svg"
   xmlns:sodipodi="http://sodipodi.sourceforge.net/DTD/sodipodi-0.dtd"
   xmlns:inkscape="http://www.inkscape.org/namespaces/inkscape"
   height="1024"
   version="1.1"
   width="1024"
   id="svg21"
   sodipodi:docname="NewAppointment.svg"
   inkscape:version="0.92.4 5da689c313, 2019-01-14">
  <metadata
     id="metadata27">
    <rdf:RDF>
      <cc:Work
         rdf:about="">
        <dc:format>image/svg+xml</dc:format>
        <dc:type
           rdf:resource="http://purl.org/dc/dcmitype/StillImage" />
        <dc:title></dc:title>
      </cc:Work>
    </rdf:RDF>
  </metadata>
  <defs
     id="defs25" />
  <sodipodi:namedview
     pagecolor="#ffffff"
     bordercolor="#666666"
     borderopacity="1"
     objecttolerance="10"
     gridtolerance="10"
     guidetolerance="10"
     inkscape:pageopacity="0"
     inkscape:pageshadow="2"
     inkscape:window-width="3840"
     inkscape:window-height="2081"
     id="namedview23"
     showgrid="false"
     inkscape:zoom="0.921875"
     inkscape:cx="451.25424"
     inkscape:cy="490.30508"
     inkscape:window-x="0"
     inkscape:window-y="0"
     inkscape:window-maximized="1"
     inkscape:current-layer="fills-27" />
  <g
     id="View Layer_LineSet"
     inkscape:label="View Layer_LineSet"
     style="display:inline">
    <g
       id="fills"
       inkscape:groupmode="layer"
       inkscape:label="fills"
       style="display:inline">
      <path
         d="m 504.98,102.699 -60.433,-21.277 -4.066,-1.022 -63.476,-9.619 -63.858,3.922 -61.907,18.352 -56.984,33.722 -49.129,48.788 -6.99,8.795 -15.849,19.94 -15.091,18.987 -6.365,8.007 -36.038,59.612 -22.864,70.145 -7.28,77.602 9.143,80.92 25.832,79.601 40.854,73.683 53.612,63.411 62.731,50.062 68.184,34.381 69.67,18.16 67.733,1.952 9.92,-0.867 23.491,-2.053 24.629,-2.153 10.849,-0.948 65.509,-13.544 57.65,-27.677 48.388,-39.199 38.132,-48.575 27.658,-55.433 1.465,-3.762 16.818,-59.756 6.645,-62.616 -3.36,-63.838 -12.726,-63.459 -21.769,-61.631 -30.086,-58.465 -37.943,-53.857 -44.967,-47.986 -51.265,-40.531 z"
         fill_rule="evenodd"
         id="path2"
         inkscape:connector-curvature="0"
         style="fill:#cccccc;fill-opacity:1;stroke:none" />
    </g>
    <g
       id="strokes"
       inkscape:groupmode="layer"
       inkscape:label="strokes">
      <path
         d="m 689.522,283.133 4.579,8.89 4.579,8.89 4.579,8.89 4.579,8.89 4.579,8.891 4.797,9.312 3.327,9.43 3.328,9.431 3.327,9.43 3.328,9.43 3.327,9.43 3.365,9.534 1.955,9.807 1.955,9.807 1.955,9.807 1.956,9.807 1.955,9.807 1.848,9.266 0.503,9.988 0.504,9.987 0.504,9.987 0.503,9.988 0.504,9.987 0.432,8.576 -1.092,9.94 -1.092,9.94 -1.093,9.941 -1.092,9.94 -1.093,9.94 -0.822,7.482 -2.765,9.61 -2.765,9.61 -2.765,9.61 -2.765,9.61 -2.765,9.61 -1.797,6.244 -4.543,8.909 -4.543,8.908 -4.543,8.908 -4.543,8.909 -4.544,8.908 -2.531,4.963 -6.274,7.788 -6.273,7.787 -6.274,7.787 -6.274,7.787 -6.273,7.788 -3.225,4.003 -7.876,6.162 -7.875,6.163 -7.876,6.162 -7.875,6.163 -7.876,6.162 -4.253,3.328 -9.102,4.141 -9.102,4.142 -9.102,4.141 -9.102,4.142 -9.102,4.141 -6.149,2.798 -9.837,1.8 -9.836,1.8 -9.837,1.8 -9.837,1.8 -9.836,1.8 -9.158,1.676 -9.985,-0.553 -10.068,-0.558 -9.984,-0.554 -9.985,-0.553 -9.985,-0.553 -9.984,-0.554 -2.94,-0.162 -9.598,-2.807 -9.598,-2.806 -9.598,-2.807 -9.598,-2.807 -9.598,-2.806 -9.598,-2.807 -7.257,-2.122 -8.8,-4.749 -8.801,-4.749 -8.8,-4.75 -8.8,-4.749 -8.8,-4.75 -8.8,-4.749 -8.801,-4.749 -2.008,-1.084 -7.673,-6.412 -7.674,-6.412 -7.674,-6.412 -7.674,-6.411 -7.674,-6.412 -7.674,-6.412 -7.674,-6.412 -5.012,-4.188 -6.344,-7.73 -6.343,-7.731 -6.344,-7.73 -6.343,-7.731 -6.344,-7.73 -6.343,-7.731 -6.344,-7.73 -6.072,-7.4 -4.803,-8.771 -4.802,-8.772 -4.803,-8.771 -4.803,-8.771 -4.802,-8.771 -4.803,-8.772 -4.802,-8.771 -4.803,-8.771 -0.443,-0.809 -3.128,-9.498 -3.128,-9.498 -3.128,-9.499 -3.127,-9.498 -3.128,-9.498 -3.128,-9.498 -3.128,-9.498 -3.233,-9.819 -1.258,-9.921 -1.258,-9.92 -1.257,-9.921 -1.258,-9.921 -1.258,-9.92 -1.257,-9.921 -1.258,-9.92 -0.994,-7.837 0.727,-9.974 0.726,-9.974 0.726,-9.973 0.726,-9.974 0.727,-9.973 0.726,-9.974 0.726,-9.974 0.297,-4.082 2.861,-9.582 2.86,-9.582 2.86,-9.583 2.86,-9.582 2.861,-9.582 2.86,-9.582 2.723,-9.123 4.962,-8.682 4.962,-8.682 4.962,-8.682 4.962,-8.682 2.512,-4.395 4.962,-8.682 4.939,-8.642 6.937,-7.203 6.936,-7.204 6.937,-7.203 6.936,-7.203 6.937,-7.203 6.936,-7.203 0.841,-0.873 8.496,-5.274 8.496,-5.274 8.497,-5.274 8.496,-5.275 8.496,-5.274 7.276,-4.516 9.535,-3.015 9.535,-3.015 9.535,-3.014 9.534,-3.015 9.535,-3.015 6.87,-2.172 9.972,-0.753 9.972,-0.754 9.971,-0.753 9.972,-0.754 9.971,-0.753 6.855,-0.518 9.901,1.398 9.902,1.398 9.902,1.398 9.902,1.399 9.901,1.398 7.264,1.025 9.455,3.255 9.456,3.254 9.456,3.255 9.455,3.254 9.456,3.254 7.656,2.635 8.738,4.863 8.739,4.862 8.738,4.862 8.738,4.863 8.739,4.862 7.873,4.381 7.864,6.177 7.864,6.178 7.863,6.177 7.864,6.177 7.864,6.178 7.665,6.02 6.851,7.284 6.852,7.283 6.852,7.284 6.852,7.284 6.852,7.283 7.06,7.504 5.768,8.169 5.768,8.169 5.768,8.169 5.768,8.168 5.768,8.169 6.076,8.605"
         id="path5"
         inkscape:connector-curvature="0"
         style="fill:none;stroke:#484848;stroke-width:3;stroke-linecap:butt;stroke-linejoin:round;stroke-opacity:1" />
      <path
         d="m 155.061,467.479 -1.261,-9.92 -1.262,-9.92 -1.261,-9.92 -1.262,-9.921 -1.261,-9.92 -1.262,-9.92 -1.261,-9.92 -0.91,-7.154 0.719,-9.974 0.72,-9.974 0.719,-9.974 0.72,-9.974 0.72,-9.974 0.719,-9.974 0.72,-9.974 0.248,-3.44 2.851,-9.585 2.851,-9.585 2.851,-9.585 2.851,-9.584 2.852,-9.585 2.851,-9.585 2.544,-8.555 4.952,-8.688 4.952,-8.688 4.951,-8.688 4.952,-8.688 4.952,-8.688 4.709,-8.263 2.455,-4.308 6.927,-7.212 6.926,-7.213 6.927,-7.213 6.927,-7.212 6.926,-7.213 6.927,-7.212 0.487,-0.508 8.489,-5.286 8.488,-5.286 8.489,-5.286 8.488,-5.286 8.489,-5.286 6.861,-4.273 9.53,-3.027 9.531,-3.028 9.531,-3.027 9.531,-3.028 9.53,-3.027 6.424,-2.041 9.971,-0.765 9.97,-0.766 9.971,-0.765 9.971,-0.766 9.97,-0.765 6.402,-0.492 9.903,1.389 9.903,1.388 9.903,1.388 9.904,1.389 9.903,1.388 6.823,0.957 9.458,3.246 9.459,3.247 9.458,3.247 9.458,3.247 9.458,3.247 7.246,2.487 8.741,4.857 8.741,4.857 8.741,4.857 8.742,4.857 8.741,4.857 7.501,4.168 7.867,6.174 7.866,6.174 7.867,6.174 7.867,6.173 7.866,6.174 7.336,5.758 6.854,7.281 6.855,7.282 6.854,7.281 6.854,7.282 6.854,7.281 6.778,7.201 5.77,8.167 5.769,8.168 5.77,8.168 5.769,8.168 5.77,8.167 5.842,8.271 4.58,8.89 4.579,8.889 4.58,8.89 4.579,8.89 4.58,8.89 4.612,8.953 3.327,9.431 3.327,9.43 3.327,9.43 3.327,9.431 3.327,9.43 3.23,9.155 1.954,9.807 1.953,9.808 1.954,9.807 1.954,9.807 1.953,9.807 1.768,8.874 0.5,9.987 0.501,9.988 0.5,9.987 0.501,9.988 0.5,9.987 0.41,8.174 -1.097,9.939 -1.098,9.94 -1.097,9.94 -1.097,9.939 -1.097,9.94 -0.781,7.078 -2.772,9.608 -2.771,9.608 -2.771,9.609 -2.772,9.608 -2.771,9.608 -1.687,5.848 -4.551,8.904 -4.551,8.905 -4.551,8.904 -4.551,8.905 -4.55,8.904 -2.346,4.59 -6.283,7.781 -6.282,7.78 -6.282,7.781 -6.282,7.78 -6.282,7.781 -2.962,3.668 -7.884,6.153 -7.883,6.152 -7.883,6.153 -7.884,6.152 -7.883,6.153 -3.913,3.054 -9.108,4.128 -9.108,4.129 -9.108,4.129 -9.108,4.129 -9.108,4.128 -5.739,2.602 -9.84,1.786 -9.839,1.787 -9.839,1.786 -9.839,1.786 -9.839,1.786 -8.688,1.577 -4.979,-0.282 -9.984,-0.567 -9.984,-0.566 -9.984,-0.567 -9.984,-0.566 -9.984,-0.566 -7.51,-0.427 -9.595,-2.817 -9.594,-2.817 -9.595,-2.818 -9.595,-2.817 -9.595,-2.817 -9.595,-2.818 -6.713,-1.971 -8.795,-4.757 -8.796,-4.758 -8.796,-4.757 -8.796,-4.757 -8.796,-4.758 -8.796,-4.757 -8.796,-4.757 -1.464,-0.792 -7.669,-6.417 -7.67,-6.417 -7.67,-6.417 -7.669,-6.417 -7.67,-6.416 -7.67,-6.417 -7.67,-6.417 -4.498,-3.764 -0.166,-0.202 -6.34,-7.733 -6.341,-7.733 -6.34,-7.733 -6.34,-7.733 -6.341,-7.733 -6.34,-7.733 -6.341,-7.733 -5.457,-6.656 -4.801,-8.772 -4.801,-8.772 -4.802,-8.771 -4.801,-8.772 -4.802,-8.772 -4.801,-8.772 -4.801,-8.772 -4.898,-8.948 -3.129,-9.498 -3.129,-9.498 -3.129,-9.498 -3.129,-9.497 -3.129,-9.498 -3.129,-9.498 -3.129,-9.498 -2.932,-8.9 -0.079,-0.238"
         id="path7"
         inkscape:connector-curvature="0"
         style="fill:none;stroke:#484848;stroke-width:3;stroke-linecap:butt;stroke-linejoin:round;stroke-opacity:1" />
      <path
         d="m 155.14,467.717 -1.262,-9.92 -1.261,-9.921 -1.262,-9.92 -1.262,-9.92 -1.261,-9.92 -1.262,-9.92 -1.262,-9.92 -0.826,-6.501 0.719,-9.974 0.719,-9.975 0.719,-9.974 0.719,-9.974 0.719,-9.974 0.719,-9.974 0.719,-9.974 0.226,-3.125 2.85,-9.585 2.849,-9.586 2.85,-9.585 2.85,-9.585 2.85,-9.586 2.85,-9.585 0.477,-1.606 1.986,-6.681 4.95,-8.689 4.949,-8.69 4.949,-8.689 4.949,-8.689 2.595,-4.556 4.949,-8.689 4.444,-7.803 6.923,-7.216 6.924,-7.216 6.923,-7.216 6.923,-7.216 6.923,-7.216 7.258,-7.565 8.485,-5.292 8.486,-5.292 8.485,-5.291 8.485,-5.292 8.485,-5.292 6.686,-4.17 9.528,-3.035 9.528,-3.036 9.528,-3.035 9.529,-3.036 9.528,-3.035 6.236,-1.987 9.97,-0.774 9.97,-0.775 9.97,-0.774 9.97,-0.775 9.97,-0.774 6.208,-0.482 9.904,1.379 9.905,1.38 9.904,1.379 9.904,1.38 9.905,1.379 6.629,0.923 9.461,3.239 9.461,3.239 9.461,3.24 9.461,3.239 9.46,3.239 7.058,2.416 8.745,4.851 8.744,4.851 8.745,4.851 8.745,4.85 8.744,4.851 7.326,4.064 7.87,6.169 7.87,6.17 7.87,6.169 7.87,6.169 7.871,6.17 7.176,5.626 6.858,7.278 6.857,7.279 6.857,7.279 6.857,7.278 6.857,7.279 6.639,7.047 5.772,8.166 5.771,8.166 5.772,8.166 5.772,8.167 5.771,8.166 5.725,8.1 4.58,8.889 4.581,8.889 4.58,8.89 4.58,8.889 4.58,8.89 4.519,8.769 3.326,9.43 3.327,9.431 3.326,9.43 3.326,9.431 3.327,9.431 3.161,8.961 1.951,9.808 1.951,9.808 1.951,9.808 1.952,9.808 1.951,9.807 1.726,8.675 0.496,9.988 0.497,9.988 0.496,9.987 0.497,9.988 0.496,9.988 0.397,7.974 -1.103,9.939 -1.103,9.939 -1.102,9.939 -1.103,9.939 -1.103,9.939 -0.763,6.883 -2.778,9.606 -2.778,9.607 -2.778,9.606 -2.778,9.606 -2.778,9.607 -1.637,5.663 -4.558,8.901 -4.558,8.901 -4.558,8.9 -4.558,8.901 -4.558,8.901 -2.265,4.422 -6.288,7.776 -6.289,7.775 -6.288,7.775 -6.289,7.776 -6.288,7.775 -2.85,3.524 -7.888,6.146 -7.888,6.147 -7.889,6.146 -7.888,6.146 -7.888,6.146 -3.772,2.939 -9.11,4.123 -9.111,4.122 -9.111,4.123 -9.11,4.123 -9.111,4.122 -5.569,2.52 -9.84,1.782 -9.84,1.781 -9.84,1.782 -9.84,1.781 -9.84,1.781 -8.489,1.537 -9.983,-0.57 -9.226,-0.526 -9.983,-0.57 -9.984,-0.569 -9.984,-0.57 -9.984,-0.569 -3.036,-0.174 -7.548,-2.217 -9.594,-2.819 -9.595,-2.819 -9.594,-2.819 -9.595,-2.819 -9.594,-2.819 -8.509,-2.5 -8.796,-4.758 -8.796,-4.758 -8.795,-4.758 -8.796,-4.758 -8.795,-4.758 -8.796,-4.758 -8.796,-4.758 -1.203,-0.651 -7.67,-6.417 -7.669,-6.417 -7.67,-6.416 -7.67,-6.417 -7.669,-6.417 -7.67,-6.417 -7.67,-6.417 -4.013,-3.358"
         id="path9"
         inkscape:connector-curvature="0"
         style="fill:none;stroke:#484848;stroke-width:3;stroke-linecap:butt;stroke-linejoin:round;stroke-opacity:1" />
      <path
         d="m 444.547,81.422 -9.887,-1.497 -9.887,-1.496 -9.888,-1.497 -9.887,-1.496 -9.888,-1.497 -9.887,-1.496 -3.471,-0.526 -9.981,0.62 -9.981,0.621 -9.981,0.62 -9.98,0.62 -9.981,0.62 -9.981,0.62 -3.242,0.202 -9.584,2.855 -9.584,2.855 -9.584,2.855 -9.583,2.855 -9.584,2.855 -9.584,2.855 -3.644,1.085 -8.596,5.11 -8.596,5.11 -8.596,5.11 -8.595,5.11 -8.596,5.11 -8.596,5.11 -4.655,2.768 -7.078,7.063 -7.079,7.064 -7.079,7.063 -7.078,7.064 -7.079,7.063 -7.079,7.064 -5.952,5.94 -5.123,8.588 -5.123,8.588 -5.122,8.589 -5.123,8.588 -5.123,8.588 -5.122,8.588 -5.123,8.589 -1.365,2.289 -3.01,9.537 -3.009,9.536 -3.01,9.537 -3.009,9.536 -3.009,9.537 -3.01,9.536 -3.009,9.536 -2.326,7.373 -0.841,9.965 -0.84,9.964 -0.841,9.965 -0.84,9.965 -0.841,9.964 -0.84,9.965 -0.84,9.964 -0.841,9.965 -0.243,2.89 1.189,9.929 1.189,9.929 1.189,9.929 1.19,9.929 1.189,9.929 1.189,9.929 1.189,9.929 1.19,9.929 0.859,7.178 3.108,9.505 3.108,9.505 3.108,9.505 3.108,9.505 3.108,9.504 3.108,9.505 3.107,9.505 3.108,9.505 3.11,9.51 4.825,8.759 4.825,8.759 4.825,8.759 4.825,8.759 4.825,8.759 4.824,8.759 4.825,8.759 4.825,8.759 5.144,9.338 6.398,7.685 6.399,7.684 6.399,7.685 6.398,7.685 6.399,7.685 6.399,7.685 6.398,7.685 6.399,7.685 5.82,6.989 7.747,6.324 7.746,6.324 7.747,6.323 7.747,6.324 7.747,6.323 7.746,6.324 7.747,6.323 7.747,6.324 4.338,3.541 8.872,4.613 8.872,4.614 8.872,4.613 8.873,4.614 8.872,4.613 8.872,4.614 8.872,4.613 9.54,4.961 9.648,2.628 9.649,2.629 9.648,2.629 9.648,2.628 9.649,2.629 9.648,2.629 9.648,2.629 5.21,1.419 9.994,0.35 9.994,0.351 9.993,0.35 9.994,0.35 9.994,0.351 9.994,0.35 10.289,0.361 9.798,-2.001 9.797,-2.001 9.798,-2 9.798,-2.001 9.798,-2 9.798,-2.001 5.983,-1.222 9.023,-4.31 9.023,-4.311 9.023,-4.311 9.024,-4.31 9.023,-4.311 9.023,-4.311 2.885,-1.378 7.778,-6.285 7.778,-6.285 7.778,-6.285 7.778,-6.285 7.778,-6.285 7.778,-6.284 1.214,-0.981 6.179,-7.862 6.18,-7.862 6.18,-7.862 6.18,-7.862 6.179,-7.862 6.18,-7.862 0.667,-0.848 4.466,-8.948 4.466,-8.947 4.466,-8.947 4.466,-8.948 4.466,-8.947 4.466,-8.947 0.587,-1.177 2.709,-9.626 2.709,-9.626 2.709,-9.626 2.71,-9.626 2.709,-9.626 2.709,-9.626 0.563,-2 1.055,-9.945 1.055,-9.944 1.056,-9.944 1.055,-9.944 1.055,-9.944 1.056,-9.944 0.313,-2.951 -0.526,-9.987 -0.525,-9.986 -0.526,-9.986 -0.525,-9.986 -0.526,-9.986 -0.525,-9.987 -0.207,-3.92 -1.966,-9.805 -1.966,-9.805 -1.967,-9.805 -1.966,-9.804 -1.966,-9.805 -1.967,-9.805 -0.928,-4.63 -3.331,-9.429 -3.33,-9.429 -3.331,-9.429 -3.33,-9.429 -3.331,-9.429 -3.33,-9.429 -1.786,-5.057 -4.576,-8.892 -4.576,-8.891 -4.575,-8.892 -4.576,-8.892 -4.576,-8.892 -4.575,-8.891 -2.632,-5.115 -5.76,-8.175 -5.759,-8.175 -5.759,-8.175 -5.76,-8.175 -5.759,-8.175 -5.759,-8.175 -3.387,-4.807 -6.838,-7.297 -6.838,-7.297 -6.837,-7.297 -6.838,-7.297 -6.838,-7.297 -6.838,-7.296 -3.94,-4.205 -7.844,-6.202 -7.845,-6.202 -7.844,-6.202 -7.845,-6.202 -7.844,-6.202 -7.844,-6.202 -4.199,-3.319 -8.715,-4.904 -8.715,-4.904 -8.715,-4.904 -8.714,-4.904 -8.716,-4.904 -8.714,-4.903 -4.178,-2.351 -9.432,-3.321 -9.433,-3.321 -9.432,-3.321 -9.433,-3.321 -9.432,-3.321 -9.433,-3.321 -3.838,-1.351 -4.066,-1.022 -9.887,-1.498 -9.887,-1.499 -9.887,-1.498 -9.887,-1.498 -9.887,-1.499 -9.888,-1.498 -4.153,-0.629 -9.981,0.613 -9.981,0.613 -9.982,0.613 -9.981,0.613 -9.981,0.613 -9.981,0.613 -3.971,0.244 -9.588,2.842 -9.587,2.842 -9.588,2.842 -9.588,2.843 -9.587,2.842 -9.588,2.842 -4.381,1.299 -8.606,5.093 -8.606,5.093 -8.606,5.092 -8.606,5.093 -8.606,5.093 -8.606,5.093 -5.348,3.165 -7.095,7.046 -7.096,7.047 -7.096,7.046 -7.095,7.047 -7.096,7.046 -7.096,7.046 -6.555,6.51 -6.222,7.828 -0.768,0.967 -6.222,7.828 -6.223,7.829 -3.404,4.283 -6.222,7.828 -6.223,7.828 -2.646,3.331 -6.223,7.828 -0.142,0.179 -5.174,8.558 -5.173,8.558 -5.174,8.558 -5.173,8.557 -5.174,8.558 -5.173,8.558 -4.997,8.265 -3.099,9.508 -3.099,9.508 -3.099,9.507 -3.099,9.508 -3.099,9.508 -3.099,9.508 -3.099,9.507 -1.171,3.591 -0.934,9.956 -0.934,9.957 -0.934,9.956 -0.934,9.956 -0.934,9.957 -0.934,9.956 -0.934,9.956 -0.742,7.908 1.123,9.937 1.122,9.937 1.123,9.937 1.123,9.936 1.123,9.937 1.123,9.937 1.123,9.937 1.122,9.936 0.161,1.426 3.087,9.512 3.087,9.512 3.086,9.511 3.087,9.512 3.087,9.512 3.086,9.511 3.087,9.512 3.086,9.512 1.139,3.507 4.849,8.746 4.849,8.746 4.849,8.745 4.849,8.746 4.849,8.746 4.849,8.745 4.849,8.746 4.849,8.746 2.062,3.717 6.456,7.636 6.457,7.637 6.456,7.636 6.456,7.637 6.457,7.636 6.456,7.636 6.457,7.637 6.456,7.636 1.961,2.32 7.817,6.238 7.816,6.237 7.816,6.238 7.816,6.238 7.816,6.237 7.816,6.238 7.816,6.238 8.018,6.398 8.929,4.503 8.929,4.502 8.929,4.502 8.929,4.503 8.929,4.502 8.93,4.503 8.929,4.502 5.68,2.864 9.677,2.523 9.677,2.522 9.676,2.522 9.677,2.522 9.677,2.523 9.677,2.522 9.676,2.522 1.933,0.504 9.996,0.288 9.995,0.288 9.996,0.288 9.996,0.288 9.996,0.288 9.996,0.288 7.758,0.224 9.92,-0.867 9.962,-0.871 9.962,-0.871 3.567,-0.311 9.962,-0.871 9.962,-0.871 4.705,-0.411 9.962,-0.871 0.887,-0.077 9.792,-2.025 9.793,-2.025 9.793,-2.024 9.793,-2.025 9.793,-2.025 9.793,-2.024 6.752,-1.396 9.015,-4.328 9.015,-4.328 9.015,-4.328 9.015,-4.328 9.015,-4.328 9.015,-4.328 3.56,-1.709 7.77,-6.295 7.77,-6.294 7.771,-6.295 7.77,-6.295 7.77,-6.294 7.77,-6.295 1.767,-1.431 6.175,-7.866 6.175,-7.866 6.174,-7.866 6.175,-7.866 6.175,-7.866 6.175,-7.866 1.083,-1.379 4.464,-8.948 4.465,-8.948 4.465,-8.948 4.464,-8.948 4.465,-8.948 4.465,-8.948 0.87,-1.745 1.465,-3.762"
         id="path11"
         inkscape:connector-curvature="0"
         style="fill:#969696;stroke:#484848;stroke-width:3;stroke-linecap:butt;stroke-linejoin:round;stroke-opacity:1;fill-opacity:1" />
      <path
         d="m 192.695,213.719 6.909,-7.23 6.908,-7.229 6.909,-7.23 6.909,-7.23 1.661,-1.739 8.451,-5.345 8.452,-5.346 8.451,-5.345 8.452,-5.345 8.451,-5.346 5.304,-3.355 9.496,-3.136 9.496,-3.135 9.495,-3.136 9.496,-3.136 9.496,-3.136 4.755,-1.57 9.958,-0.908 9.959,-0.909 9.959,-0.908 9.958,-0.909 9.959,-0.908 4.618,-0.422 9.924,1.234 9.924,1.233 9.923,1.233 9.924,1.234 9.924,1.233 4.94,0.614 9.507,3.102 9.507,3.102 9.507,3.102 9.506,3.102 9.507,3.102 5.329,1.738 8.807,4.737 8.807,4.737 8.807,4.737 8.806,4.737 8.807,4.736 5.624,3.025 7.936,6.084 7.936,6.085 7.936,6.084 7.936,6.084 7.936,6.085 5.573,4.272 6.915,7.224 6.915,7.223 6.915,7.224 6.915,7.224 6.915,7.223 5.191,5.423 5.812,8.137 5.813,8.138 5.812,8.137 5.812,8.138 5.813,8.137 4.477,6.268 4.595,8.881 4.596,8.882 4.596,8.881 4.596,8.881 4.596,8.882 3.511,6.784 3.313,9.436 3.313,9.435 3.312,9.435 3.313,9.436 3.313,9.435 2.418,6.888 1.906,9.817 1.905,9.816 1.906,9.817 1.906,9.817 1.905,9.817 1.277,6.575 0.42,9.991 0.421,9.991 0.42,9.991 0.421,9.991 0.421,9.991 0.249,5.916 -1.204,9.928 -1.204,9.927 -1.204,9.927 -1.204,9.927 -1.204,9.928 -0.6,4.944 -2.894,9.572 -2.894,9.572 -2.894,9.572 -2.894,9.572 -2.894,9.573 -1.183,3.913 -4.672,8.841 -4.673,8.841 -4.673,8.841 -4.673,8.841 -4.672,8.842 -1.549,2.931 -6.384,7.697 -6.384,7.697 -6.384,7.698 -6.383,7.697 -6.384,7.697 -1.922,2.318 -7.949,6.067 -7.95,6.067 -7.949,6.067 -7.949,6.067 -7.949,6.067 -2.656,2.027 -9.137,4.065 -9.136,4.065 -9.137,4.064 -9.137,4.065 -9.137,4.064 -4.242,1.887 -9.844,1.761 -9.843,1.76 -9.844,1.761 -9.844,1.76 -1.939,0.347"
         id="path13"
         inkscape:connector-curvature="0"
         style="fill:none;stroke:#484848;stroke-width:3;stroke-linecap:butt;stroke-linejoin:round;stroke-opacity:1" />
      <path
         d="m 168.317,259.713 4.944,-8.692 4.945,-8.693 4.944,-8.692 1.139,-2.004 6.89,-7.248 6.889,-7.249 6.889,-7.248 6.889,-7.248 6.889,-7.249 5.17,-5.439 8.434,-5.373 8.434,-5.373 8.434,-5.373 8.434,-5.372 8.434,-5.373 4.384,-2.793 9.484,-3.169 9.485,-3.169 9.484,-3.17 9.485,-3.169 9.484,-3.17 3.763,-1.257 9.956,-0.944 9.955,-0.944 9.955,-0.944 9.956,-0.944 9.955,-0.945 3.6,-0.341 9.928,1.2 9.927,1.2 9.928,1.2 9.928,1.2 9.927,1.2 3.933,0.476 9.516,3.073 9.516,3.074 9.516,3.074 9.516,3.073 9.516,3.074 4.367,1.411 8.818,4.715 8.819,4.715 8.819,4.715 8.818,4.715 8.819,4.715 4.735,2.532 7.948,6.068 7.948,6.069 7.948,6.069 7.948,6.069 7.948,6.068 4.777,3.648 6.925,7.214 6.925,7.214 6.926,7.214 6.925,7.214 6.925,7.214 4.501,4.688 5.819,8.132 5.819,8.133 5.82,8.132 5.819,8.133 5.819,8.132 3.9,5.45 4.598,8.88 4.599,8.88 4.599,8.88 4.598,8.88 4.599,8.88 3.055,5.9 3.311,9.436 3.31,9.436 3.31,9.436 3.311,9.436 3.31,9.437 2.089,5.955 1.898,9.818 1.898,9.819 1.897,9.818 1.898,9.818 1.898,9.819 1.084,5.611 0.407,9.992 0.407,9.992 0.407,9.992 0.406,9.991 0.407,9.992 0.201,4.941 -1.223,9.925 -1.223,9.925 -1.224,9.924 -1.223,9.925 -1.224,9.925 -0.49,3.981 -2.918,9.565 -2.917,9.565 -2.918,9.565 -2.918,9.565 -2.917,9.564 -0.912,2.988 -4.698,8.827 -4.699,8.828 -4.699,8.827 -4.699,8.827 -4.698,8.828 -1.107,2.079 -6.409,7.676 -6.409,7.677 -6.408,7.676 -6.409,7.677 -6.409,7.676 -1.312,1.572 -7.97,6.04 -7.969,6.041 -7.97,6.04 -7.969,6.04 -7.97,6.041 -1.884,1.427 -9.149,4.036 -9.15,4.035 -9.149,4.036 -9.15,4.035 -9.15,4.035 -3.319,1.464 -9.849,1.733 -9.849,1.733 -9.849,1.733 -9.848,1.733 -9.849,1.733 -5.815,1.024 -9.983,-0.578 -9.984,-0.577 -9.983,-0.577 -2.356,-0.136"
         id="path15"
         inkscape:connector-curvature="0"
         style="fill:none;stroke:#484848;stroke-width:3;stroke-linecap:butt;stroke-linejoin:round;stroke-opacity:1" />
      <path
         d="m 145.127,175.565 -5.144,8.575 -5.144,8.576 -5.145,8.575 -5.144,8.575 -5.144,8.576 -5.145,8.575 -5.144,8.575 -1.813,3.022 -3.031,9.53 -3.031,9.529 -3.031,9.53 -3.032,9.529 -3.031,9.53 -3.031,9.529 -3.031,9.53 -2.614,8.218 -0.858,9.963 -0.858,9.963 -0.859,9.963 -0.858,9.963 -0.858,9.963 -0.858,9.964 -0.858,9.963 -0.858,9.963 -0.329,3.815 1.178,9.931 1.179,9.93 1.178,9.93 1.178,9.931 1.178,9.93 1.179,9.93 1.178,9.931 1.178,9.93 0.966,8.137 3.104,9.506 3.105,9.506 3.104,9.506 3.105,9.506 3.104,9.505 3.105,9.506 3.105,9.506 3.104,9.506 3.105,9.506 0.308,0.944 4.829,8.757 4.828,8.757 4.829,8.757 4.828,8.757 4.829,8.757 4.829,8.757 4.828,8.757 4.829,8.757 4.828,8.757 0.798,1.447 6.408,7.678 6.408,7.677 6.407,7.677 6.408,7.678 6.408,7.677 6.407,7.677 6.408,7.678 6.408,7.677 6.455,7.734 7.758,6.31 7.758,6.309 7.759,6.309 7.758,6.31 7.758,6.309 7.759,6.309 7.758,6.31 7.758,6.309 5.08,4.131 8.883,4.592 8.883,4.592 8.883,4.593 8.884,4.592 8.883,4.592 8.883,4.593 8.883,4.592 8.883,4.592 1.475,0.763 9.656,2.603 9.655,2.602 9.655,2.603 9.656,2.603 9.655,2.602 9.655,2.603 9.656,2.603 6.049,1.63 9.995,0.323 9.994,0.323 9.995,0.323 9.995,0.323 9.995,0.323 9.994,0.323 9.995,0.323 1.121,0.036"
         id="path17"
         inkscape:connector-curvature="0"
         style="fill:none;stroke:#484848;stroke-width:3;stroke-linecap:butt;stroke-linejoin:round;stroke-opacity:1" />
    </g>
  </g>
  <g
     inkscape:groupmode="layer"
     id="layer1"
     inkscape:label="Layer 1">
    <g
       inkscape:label="View Layer_LineSet"
       id="View Layer_LineSet-3"
       transform="translate(5.285,-4.5)">
      <g
         inkscape:label="fills"
         inkscape:groupmode="layer"
         id="fills-6">
        <path
           id="path918"
           fill_rule="evenodd"
           d="m 646.007,308.351 -32.996,-46.112 -39.127,-40.758 -44.517,-33.991 -48.828,-26.107 -51.947,-16.779 -53.571,-6.476 -53.377,5.062 -51.185,17.104 -46.554,29.657 -39.616,41.681 -30.039,52.813 -18.52,61.863 -5.103,68.241 8.887,71.082 23.007,70.013 35.692,65.063 46.495,56.415 54.288,45.096 59.052,31.674 60.498,17.63 59.037,3.414 55.059,-9.689 49.067,-21.641 41.732,-31.629 33.356,-39.954 24.6,-46.216 15.5,-50.812 6.607,-53.605 -2.235,-54.9 -10.573,-54.703 -18.641,-53.136 z"
           inkscape:connector-curvature="0"
           style="fill:#cccccc;fill-opacity:1;stroke:none" />
      </g>
      <g
         inkscape:label="strokes"
         inkscape:groupmode="layer"
         id="strokes-7">
        <path
           id="path921"
           d="m 646.007,308.351 -5.819,-8.132 -5.82,-8.133 -5.819,-8.132 -5.819,-8.133 -5.819,-8.132 -3.9,-5.45 -6.925,-7.214 -6.926,-7.214 -6.925,-7.214 -6.925,-7.214 -6.925,-7.214 -4.501,-4.688 -7.948,-6.069 -7.948,-6.069 -7.948,-6.069 -7.948,-6.068 -7.948,-6.069 -4.777,-3.647 -8.818,-4.715 -8.819,-4.715 -8.819,-4.715 -8.818,-4.715 -8.819,-4.715 -4.735,-2.532 -9.516,-3.074 -9.516,-3.074 -9.516,-3.073 -9.516,-3.074 -9.516,-3.074 -4.367,-1.41 -9.928,-1.2 -9.927,-1.2 -9.928,-1.2 -9.928,-1.2 -9.928,-1.2 -3.932,-0.476 -9.956,0.944 -9.955,0.944 -9.955,0.944 -9.956,0.944 -9.955,0.945 -3.6,0.341 -9.484,3.169 -9.485,3.17 -9.484,3.169 -9.484,3.169 -9.485,3.17 -3.763,1.257 -8.434,5.373 -8.434,5.373 -8.434,5.373 -8.434,5.373 -8.434,5.372 -4.384,2.793 -6.889,7.248 -6.889,7.249 -6.889,7.248 -6.89,7.248 -6.889,7.249 -5.17,5.439 -4.944,8.692 -4.944,8.693 -4.944,8.692 -4.944,8.692 -4.944,8.693 -4.944,8.692 -0.375,0.659 -2.868,9.58 -2.868,9.58 -2.868,9.58 -2.868,9.58 -2.868,9.58 -2.867,9.58 -1.313,4.383 -0.745,9.972 -0.746,9.973 -0.746,9.972 -0.745,9.972 -0.746,9.972 -0.746,9.972 -0.629,8.408 1.241,9.922 1.24,9.923 1.241,9.923 1.24,9.923 1.241,9.923 1.24,9.922 1.241,9.923 0.203,1.623 3.122,9.501 3.122,9.5 3.122,9.5 3.121,9.5 3.122,9.5 3.122,9.5 3.122,9.501 1.154,3.511 4.81,8.767 4.809,8.768 4.81,8.767 4.81,8.768 4.809,8.767 4.81,8.768 4.809,8.767 2.025,3.691 6.36,7.717 6.36,7.716 6.36,7.717 6.36,7.717 6.36,7.717 6.36,7.717 6.36,7.717 1.975,2.397 7.692,6.389 7.692,6.39 7.692,6.39 7.693,6.39 7.692,6.39 7.692,6.389 8.135,6.758 8.813,4.727 8.812,4.726 8.812,4.727 8.813,4.727 8.812,4.726 8.813,4.727 6.177,3.314 9.601,2.797 9.6,2.798 9.601,2.798 9.601,2.798 9.6,2.798 9.601,2.798 2.894,0.843 9.984,0.578 9.983,0.577 9.983,0.577 9.984,0.577 9.983,0.577 9.12,0.528 9.849,-1.733 9.849,-1.733 9.848,-1.733 9.849,-1.733 9.849,-1.733 5.815,-1.024 9.149,-4.035 9.15,-4.035 9.149,-4.036 9.15,-4.035 9.15,-4.035 3.319,-1.465 7.97,-6.04 7.97,-6.04 7.969,-6.041 7.97,-6.04 7.969,-6.04 1.884,-1.428 6.409,-7.676 6.408,-7.677 6.409,-7.676 6.409,-7.677 6.409,-7.676 1.312,-1.572 4.699,-8.827 4.698,-8.828 4.699,-8.827 4.699,-8.828 4.699,-8.827 1.106,-2.079 2.918,-9.565 2.918,-9.565 2.917,-9.565 2.918,-9.565 2.917,-9.564 0.912,-2.988 1.223,-9.925 1.224,-9.925 1.223,-9.925 1.223,-9.925 1.224,-9.924 0.49,-3.981 -0.406,-9.992 -0.407,-9.992 -0.407,-9.991 -0.407,-9.992 -0.407,-9.992 -0.201,-4.941 -1.897,-9.818 -1.898,-9.818 -1.898,-9.819 -1.897,-9.818 -1.898,-9.818 -1.085,-5.612 -3.31,-9.436 -3.31,-9.436 -3.311,-9.436 -3.31,-9.437 -3.311,-9.436 -2.089,-5.955 -4.598,-8.88 -4.599,-8.88 -4.599,-8.88 -4.598,-8.88 -4.599,-8.88 -3.055,-5.9"
           inkscape:connector-curvature="0"
           style="fill:none;stroke:#484848;stroke-width:3;stroke-linecap:butt;stroke-linejoin:round;stroke-opacity:1" />
      </g>
    </g>
  </g>
  <g
     inkscape:groupmode="layer"
     id="layer2"
     inkscape:label="Layer 2">
    <g
       inkscape:label="View Layer_LineSet"
       id="View Layer_LineSet-5"
       transform="translate(-3.8938987,1.4709974)">
      <g
         inkscape:label="strokes"
         inkscape:groupmode="layer"
         id="strokes-3">
        <path
           id="path1156"
           d="m 425.527,674.017 -9.714,2.372 -9.715,2.373 -9.714,2.372 -9.715,2.372 -0.665,0.163 2.346,9.716 9.703,-2.417 9.704,-2.418 7.187,-1.79 -1.28,9.918 -1.281,9.917 -1.28,9.918 -1.281,9.918 -1.281,9.917 -1.28,9.918 -0.62,4.8 8.832,1.792 1.265,-9.92 1.265,-9.92 1.265,-9.919 1.265,-9.92 1.265,-9.92 1.265,-9.919 1.265,-9.92 1.199,-9.403"
           inkscape:connector-curvature="0"
           style="fill:none;stroke:#484848;stroke-width:3;stroke-linecap:butt;stroke-linejoin:round;stroke-opacity:1" />
        <path
           id="path1158"
           d="m 527.352,685.22 -6.589,-6.126 -2.672,3.891 -2.356,4.027 -2.039,4.143 -1.718,4.242 -1.395,4.32 -1.07,4.38 -0.745,4.419 -0.416,4.438 -0.087,4.439 0.243,4.417 0.574,4.377 0.905,4.315 1.027,3.462 1.265,3.169 1.486,2.862 1.687,2.538 1.869,2.2 2.033,1.846 2.178,1.48 2.304,1.097 2.411,0.703 2.498,0.294 2.567,-0.127 2.617,-0.561 2.112,-0.828 1.939,-1.162 1.752,-1.464 1.552,-1.731 1.339,-1.967 1.112,-2.17 0.871,-2.342 0.618,-2.481 0.351,-2.59 0.071,-2.668 -0.224,-2.714 -0.532,-2.731 -0.821,-2.68 -1.043,-2.477 -1.246,-2.259 -1.43,-2.025 -1.592,-1.776 -1.737,-1.512 -1.861,-1.231 -1.966,-0.935 -2.051,-0.623 -2.117,-0.293 -2.164,0.052 -2.189,0.416 -0.883,0.272 -0.838,0.317 -0.794,0.356 -0.751,0.391 -0.711,0.421 -0.673,0.447 -0.635,0.467 -0.599,0.484 -0.566,0.495 -0.534,0.502 -0.504,0.505 -0.475,0.502 0.07,-2.547 0.249,-2.593 0.42,-2.62 0.581,-2.625 0.732,-2.612 0.875,-2.577 1.008,-2.523 1.131,-2.449 1.246,-2.355 1.351,-2.243 1.446,-2.11 1.533,-1.959"
           inkscape:connector-curvature="0"
           style="fill:none;stroke:#484848;stroke-width:3;stroke-linecap:butt;stroke-linejoin:round;stroke-opacity:1" />
        <path
           id="path1160"
           d="m 523.113,719.734 0.699,-0.298 0.752,-0.268 0.813,-0.246 1.303,-0.267 1.28,-0.073 1.246,0.113 1.2,0.29 1.144,0.46 1.078,0.621 0.999,0.774 0.91,0.921 0.81,1.058 0.699,1.188 0.577,1.311 0.444,1.426 0.334,1.628 0.168,1.57 0.009,1.504 -0.148,1.426 -0.3,1.341 -0.448,1.244 -0.592,1.139 -0.732,1.023 -0.867,0.898 -0.998,0.763 -1.126,0.617 -1.249,0.463 -1.456,0.272 -1.489,-0.015 -1.495,-0.302 -1.474,-0.588 -1.424,-0.872 -1.348,-1.155 -1.242,-1.436 -1.11,-1.714 -0.949,-1.991 -0.761,-2.265 -0.545,-2.536 -0.302,-2.805 0.678,-0.893 0.64,-0.797 0.613,-0.71 0.595,-0.629 0.588,-0.555 0.591,-0.49 0.602,-0.43 0.626,-0.379 0.657,-0.336"
           inkscape:connector-curvature="0"
           style="fill:none;stroke:#484848;stroke-width:3;stroke-linecap:butt;stroke-linejoin:round;stroke-opacity:1" />
        <path
           id="path1162"
           d="m 607.915,619.682 2.518,9.678 2.518,9.677 2.519,9.678 1.029,3.957 2.464,-1.316 2.365,-0.886 2.252,-0.482 2.127,-0.107 1.988,0.241 1.836,0.561 1.672,0.856 1.494,1.123 1.303,1.365 1.097,1.581 0.879,1.771 0.647,1.937 0.306,1.55 0.114,1.54 -0.07,1.514 -0.245,1.47 -0.412,1.409 -0.569,1.329 -0.719,1.232 -0.86,1.117 -0.992,0.984 -1.115,0.833 -1.231,0.664 -1.337,0.476 -0.91,0.211 -0.928,0.145 -0.945,0.08 -0.963,0.015 -0.979,-0.05 -0.996,-0.115 -1.011,-0.18 -1.028,-0.244 -1.043,-0.309 -1.058,-0.373 -1.073,-0.438 -1.087,-0.501 2.46,9.464 1.231,0.379 1.182,0.319 1.139,0.258 1.103,0.199 1.074,0.14 1.051,0.08 1.035,0.023 1.025,-0.036 1.022,-0.094 1.025,-0.151 1.035,-0.208 1.051,-0.264 2.217,-0.8 2.005,-1.102 1.783,-1.381 1.552,-1.637 1.314,-1.87 1.065,-2.079 0.81,-2.266 0.544,-2.431 0.271,-2.573 -0.013,-2.693 -0.305,-2.791 -0.607,-2.869 -0.882,-2.804 -1.116,-2.598 -1.334,-2.369 -1.54,-2.119 -1.73,-1.849 -1.908,-1.555 -2.071,-1.239 -2.221,-0.902 -2.357,-0.54 -2.48,-0.155 -2.589,0.254 -2.685,0.687 -2.523,-9.677 -1.605,-6.156 9.716,-2.367 5.638,-1.373 -2.113,-8.064 -9.726,2.324 -9.726,2.325 -2.374,0.567"
           inkscape:connector-curvature="0"
           style="fill:none;stroke:#484848;stroke-width:3;stroke-linecap:butt;stroke-linejoin:round;stroke-opacity:1" />
        <path
           id="path1164"
           d="m 216.334,294.968 -3.245,-0.12 -3.117,0.466 -2.794,1.025 -2.46,1.561 -2.115,2.075 -1.759,2.562 -1.391,3.027 -1.013,3.466 -0.622,3.879 -0.223,4.268 0.19,4.629 0.611,4.963 1.043,5.271 1.41,5.249 1.689,4.901 1.948,4.524 2.182,4.122 2.396,3.693 2.586,3.24 2.754,2.763 2.898,2.259 3.02,1.734 3.12,1.186 3.196,0.614 3.249,0.021 3.102,-0.569 2.763,-1.123 2.415,-1.649 2.062,-2.147 1.7,-2.618 1.331,-3.06 0.955,-3.477 0.57,-3.867 0.179,-4.231 -0.222,-4.571 -0.629,-4.884 -1.046,-5.173 -1.397,-5.145 -1.662,-4.8 -1.907,-4.433 -2.134,-4.047 -2.34,-3.637 -2.527,-3.206 -2.695,-2.752 -2.843,-2.274 -2.972,-1.773 -3.083,-1.246 -3.173,-0.696"
           inkscape:connector-curvature="0"
           style="fill:none;stroke:#484848;stroke-width:3;stroke-linecap:butt;stroke-linejoin:round;stroke-opacity:1" />
        <path
           id="path1166"
           d="m 213.533,304.61 1.776,-0.31 1.868,0.097 1.83,0.502 1.784,0.897 1.731,1.277 1.668,1.648 1.6,2.005 1.522,2.351 1.438,2.687 1.345,3.011 1.244,3.325 1.136,3.628 1.02,3.921 0.834,3.936 0.586,3.673 0.341,3.399 0.098,3.111 -0.143,2.812 -0.382,2.5 -0.618,2.174 -0.853,1.837 -1.085,1.486 -1.315,1.123 -1.544,0.745 -1.77,0.354 -1.869,-0.056 -1.837,-0.47 -1.797,-0.872 -1.746,-1.265 -1.686,-1.644 -1.619,-2.013 -1.542,-2.369 -1.456,-2.714 -1.362,-3.046 -1.257,-3.366 -1.146,-3.671 -1.024,-3.966 -0.834,-3.976 -0.581,-3.704 -0.33,-3.42 -0.084,-3.123 0.16,-2.813 0.401,-2.492 0.638,-2.157 0.872,-1.812 1.103,-1.453 1.331,-1.084 1.554,-0.703"
           inkscape:connector-curvature="0"
           style="fill:none;stroke:#484848;stroke-width:3;stroke-linecap:butt;stroke-linejoin:round;stroke-opacity:1" />
        <path
           id="path1168"
           d="m 264.896,592.238 -2.86,0.348 -2.881,0.739 -2.663,1.07 -2.426,1.377 -2.173,1.661 -1.9,1.918 -1.611,2.153 -1.303,2.361 -0.978,2.545 -0.634,2.703 -0.272,2.834 0.106,2.94 0.502,3.018 0.426,1.553 0.543,1.497 0.657,1.438 0.766,1.377 0.871,1.313 0.972,1.246 1.069,1.175 1.162,1.102 1.25,1.027 1.335,0.947 1.414,0.866 1.49,0.781 -1.332,1.396 -1.177,1.438 -1.024,1.482 -0.869,1.528 -0.714,1.575 -0.559,1.623 -0.404,1.674 -0.247,1.724 -0.091,1.778 0.065,1.831 0.222,1.887 0.378,1.943 0.878,2.884 1.231,2.669 1.556,2.433 1.85,2.179 2.112,1.905 2.344,1.615 2.545,1.305 2.716,0.978 2.855,0.635 2.964,0.273 3.043,-0.104 3.091,-0.498 2.945,-0.86 2.714,-1.184 2.467,-1.479 2.204,-1.746 1.925,-1.986 1.629,-2.197 1.318,-2.382 0.989,-2.539 0.646,-2.67 0.286,-2.776 -0.091,-2.854 -0.485,-2.907 -0.496,-1.82 -0.618,-1.753 -0.738,-1.676 -0.854,-1.594 -0.969,-1.502 -1.082,-1.403 -1.193,-1.296 -1.302,-1.181 -1.409,-1.058 -1.515,-0.927 -1.617,-0.787 -1.72,-0.64 1.125,-1.344 0.98,-1.388 0.839,-1.424 0.702,-1.451 0.568,-1.471 0.439,-1.482 0.312,-1.486 0.189,-1.482 0.07,-1.469 -0.046,-1.448 -0.157,-1.42 -0.267,-1.383 -0.867,-2.917 -1.165,-2.705 -1.441,-2.476 -1.692,-2.232 -1.921,-1.971 -2.124,-1.693 -2.306,-1.398 -2.464,-1.085 -2.598,-0.755 -2.709,-0.406 -2.796,-0.039"
           inkscape:connector-curvature="0"
           style="fill:none;stroke:#484848;stroke-width:3;stroke-linecap:butt;stroke-linejoin:round;stroke-opacity:1" />
        <path
           id="path1170"
           d="m 262.603,603.024 1.566,-0.396 1.514,-0.193 1.475,0.009 1.425,0.202 1.363,0.385 1.29,0.56 1.205,0.725 1.108,0.881 1,1.028 0.881,1.167 0.749,1.296 0.606,1.417 0.452,1.53 0.244,1.475 0.045,1.462 -0.142,1.433 -0.322,1.387 -0.492,1.324 -0.653,1.244 -0.805,1.146 -0.948,1.033 -1.081,0.9 -1.207,0.751 -1.322,0.585 -1.429,0.401 -1.458,0.188 -1.456,-0.024 -1.435,-0.224 -1.396,-0.411 -1.341,-0.588 -1.267,-0.752 -1.175,-0.903 -1.065,-1.043 -0.938,-1.17 -0.793,-1.285 -0.63,-1.387 -0.449,-1.477 -0.281,-1.622 -0.08,-1.555 0.115,-1.479 0.303,-1.393 0.485,-1.299 0.659,-1.197 0.827,-1.084 0.989,-0.964 1.143,-0.835 1.29,-0.697 1.431,-0.551"
           inkscape:connector-curvature="0"
           style="fill:none;stroke:#484848;stroke-width:3;stroke-linecap:butt;stroke-linejoin:round;stroke-opacity:1" />
        <path
           id="path1172"
           d="m 269.593,635.327 1.777,-0.474 1.709,-0.252 1.658,-0.035 1.595,0.171 1.521,0.368 1.434,0.555 1.335,0.733 1.223,0.901 1.1,1.062 0.964,1.212 0.816,1.354 0.655,1.488 0.482,1.612 0.271,1.538 0.093,1.532 -0.088,1.508 -0.273,1.467 -0.461,1.411 -0.653,1.336 -0.846,1.245 -1.045,1.136 -1.246,1.012 -1.451,0.868 -1.659,0.709 -1.872,0.531 -1.735,0.277 -1.688,0.064 -1.629,-0.144 -1.555,-0.343 -1.47,-0.534 -1.37,-0.718 -1.257,-0.894 -1.13,-1.062 -0.991,-1.222 -0.838,-1.374 -0.672,-1.518 -0.493,-1.653 -0.294,-1.719 -0.076,-1.66 0.136,-1.59 0.343,-1.509 0.544,-1.417 0.738,-1.314 0.927,-1.201 1.109,-1.077 1.286,-0.942 1.456,-0.797 1.62,-0.641"
           inkscape:connector-curvature="0"
           style="fill:none;stroke:#484848;stroke-width:3;stroke-linecap:butt;stroke-linejoin:round;stroke-opacity:1" />
        <path
           id="path1174"
           d="m 670.661,511.224 -2.807,0.526 -3.069,9.517 -3.07,9.517 -3.069,9.518 -3.069,9.517 -1.195,3.706 1.061,4.001 9.784,-2.066 9.801,-2.069 v 0.001 l 2.578,9.662 2.578,9.663 0.108,0.405 6.536,-1.455 -2.584,-9.661 -2.585,-9.66 -0.089,-0.334 4.845,-1.026 -2.058,-7.685 -4.848,1.002 -2.584,-9.66 -2.584,-9.661 -2.584,-9.66 -1.096,-4.098"
           inkscape:connector-curvature="0"
           style="fill:none;stroke:#484848;stroke-width:3;stroke-linecap:butt;stroke-linejoin:round;stroke-opacity:1" />
        <path
           id="path1176"
           d="m 668.284,528.665 0.134,-0.026 2.579,9.661 1.963,7.356 -9.793,2.024 -0.866,0.179 2.976,-9.547 3.007,-9.647"
           inkscape:connector-curvature="0"
           style="fill:none;stroke:#484848;stroke-width:3;stroke-linecap:butt;stroke-linejoin:round;stroke-opacity:1" />
        <path
           id="path1178"
           d="m 655.443,557.526 9.784,-2.066 9.801,-2.069 0.002,-10e-4"
           inkscape:connector-curvature="0"
           style="fill:none;stroke:#484848;stroke-width:3;stroke-linecap:butt;stroke-linejoin:round;stroke-opacity:1" />
        <path
           id="path1180"
           d="m 686.415,550.986 -9.784,2.066 -1.603,0.339"
           inkscape:connector-curvature="0"
           style="fill:none;stroke:#484848;stroke-width:3;stroke-linecap:butt;stroke-linejoin:round;stroke-opacity:1" />
        <path
           id="path1182"
           d="m 681.57,552.012 -6.54,1.378 -0.002,10e-4"
           inkscape:connector-curvature="0"
           style="fill:none;stroke:#484848;stroke-width:3;stroke-linecap:butt;stroke-linejoin:round;stroke-opacity:1" />
        <path
           id="path1184"
           d="m 182.255,436.27 -3.27,0.138 -3.157,0.587 -2.864,0.979 -2.565,1.332 -2.257,1.648 -1.944,1.924 -1.622,2.162 -1.295,2.36 -0.961,2.519 -0.619,2.638 -0.272,2.715 0.082,2.754 0.441,2.75 0.857,2.926 1.183,2.755 1.48,2.559 1.747,2.341 1.986,2.1 2.194,1.839 2.372,1.554 2.523,1.249 2.641,0.923 2.732,0.576 2.793,0.208 2.825,-0.179 0.946,-0.152 0.946,-0.202 0.942,-0.248 0.933,-0.293 0.919,-0.336 0.901,-0.377 0.878,-0.415 0.85,-0.45 0.818,-0.484 0.781,-0.516 0.739,-0.546 0.692,-0.572 -0.076,2.403 -0.304,2.467 -0.528,2.519 -0.75,2.561 -0.97,2.592 -1.19,2.612 -1.407,2.622 -1.622,2.62 -1.837,2.609 -2.049,2.585 -2.261,2.55 -2.471,2.506 7.625,6.469 0.492,0.417 3.442,-3.457 3.12,-3.773 2.786,-4.042 2.439,-4.264 2.08,-4.442 1.71,-4.574 1.325,-4.662 0.93,-4.708 0.521,-4.709 0.099,-4.668 -0.335,-4.585 -0.785,-4.46 -1.051,-3.687 -1.375,-3.452 -1.676,-3.194 -1.952,-2.915 -2.202,-2.614 -2.428,-2.291 -2.63,-1.945 -2.807,-1.577 -2.959,-1.184 -3.088,-0.768 -3.191,-0.327"
           inkscape:connector-curvature="0"
           style="fill:none;stroke:#484848;stroke-width:3;stroke-linecap:butt;stroke-linejoin:round;stroke-opacity:1" />
        <path
           id="path1186"
           d="m 179.838,446.628 1.64,-0.297 1.649,-0.07 1.634,0.175 1.602,0.403 1.552,0.613 1.483,0.808 1.398,0.987 1.294,1.149 1.172,1.296 1.034,1.426 0.876,1.541 0.701,1.641 0.508,1.724 0.103,0.447 0.099,0.44 0.095,0.436 0.09,0.438 0.083,0.445 0.078,0.457 0.07,0.473 0.062,0.496 0.053,0.523 0.045,0.555 0.034,0.593 0.023,0.634 -0.81,0.785 -0.831,0.721 -0.846,0.657 -0.857,0.595 -0.864,0.534 -0.864,0.473 -0.862,0.412 -0.853,0.354 -0.841,0.296 -0.824,0.238 -0.801,0.182 -0.773,0.125 -1.672,0.109 -1.653,-0.102 -1.616,-0.299 -1.562,-0.487 -1.489,-0.661 -1.398,-0.825 -1.289,-0.976 -1.161,-1.114 -1.016,-1.242 -0.851,-1.357 -0.67,-1.459 -0.47,-1.55 -0.276,-1.668 -0.059,-1.601 0.149,-1.522 0.351,-1.431 0.541,-1.329 0.725,-1.215 0.899,-1.09 1.065,-0.954 1.221,-0.807 1.37,-0.647 1.509,-0.478"
           inkscape:connector-curvature="0"
           style="fill:none;stroke:#484848;stroke-width:3;stroke-linecap:butt;stroke-linejoin:round;stroke-opacity:1" />
        <path
           id="path1188"
           d="m 666.433,385.966 -1.964,0.106 -0.814,0.113 -0.776,0.141 -0.741,0.171 -0.71,0.201 -0.682,0.234 -0.655,0.266 -0.633,0.299 -0.614,0.335 -0.597,0.37 -0.583,0.407 -0.573,0.445 -0.565,0.484 2.117,7.868 0.641,-0.515 0.616,-0.465 0.595,-0.419 0.578,-0.373 0.565,-0.33 0.558,-0.29 0.553,-0.251 0.553,-0.214 0.558,-0.179 0.566,-0.146 0.578,-0.117 0.596,-0.087 1.158,-0.072 1.117,0.07 1.072,0.207 1.019,0.342 0.962,0.47 0.899,0.597 0.831,0.718 0.757,0.837 0.679,0.951 0.593,1.062 0.503,1.169 0.408,1.273 0.279,1.266 0.133,1.191 -0.014,1.112 -0.162,1.031 -0.311,0.945 -0.461,0.857 -0.614,0.764 -0.766,0.669 -0.92,0.57 -1.076,0.467 -1.233,0.361 -1.392,0.251 2.052,7.614 1.517,-0.215 1.434,-0.007 1.349,0.185 1.261,0.368 1.169,0.536 1.075,0.692 0.977,0.836 0.877,0.968 0.772,1.088 0.665,1.195 0.554,1.291 0.44,1.375 0.308,1.358 0.173,1.288 0.04,1.212 -0.089,1.128 -0.216,1.039 -0.34,0.943 -0.463,0.841 -0.583,0.732 -0.699,0.617 -0.815,0.495 -0.926,0.366 -1.037,0.23 -0.822,0.09 -0.84,0.029 -0.858,-0.031 -0.877,-0.092 -0.895,-0.153 -0.915,-0.214 -0.936,-0.277 -0.956,-0.338 -0.978,-0.401 -0.999,-0.464 -1.022,-0.527 -1.045,-0.59 2.431,9.04 0.943,0.392 0.932,0.353 0.919,0.311 0.906,0.27 0.892,0.227 0.877,0.184 0.862,0.14 0.846,0.095 0.828,0.05 0.812,0.003 0.793,-0.044 0.775,-0.092 1.956,-0.451 1.764,-0.719 1.563,-0.971 1.356,-1.205 1.141,-1.424 0.92,-1.626 0.692,-1.813 0.456,-1.983 0.214,-2.139 -0.037,-2.279 -0.294,-2.403 -0.559,-2.513 -0.438,-1.464 -0.517,-1.441 -0.594,-1.402 -0.669,-1.35 -0.741,-1.282 -0.811,-1.199 -0.879,-1.101 -0.946,-0.989 -1.01,-0.86 -1.072,-0.718 -1.133,-0.56 -1.19,-0.386 0.755,-0.859 0.647,-0.884 0.539,-0.916 0.434,-0.955 0.329,-1.003 0.224,-1.056 0.122,-1.119 0.019,-1.188 -0.083,-1.264 -0.182,-1.348 -0.283,-1.44 -0.381,-1.538 -0.698,-2.179 -0.864,-2.011 -1.018,-1.836 -1.164,-1.653 -1.298,-1.463 -1.424,-1.264 -1.538,-1.056 -1.643,-0.842 -1.739,-0.618 -1.823,-0.385 -1.899,-0.143"
           inkscape:connector-curvature="0"
           style="fill:none;stroke:#484848;stroke-width:3;stroke-linecap:butt;stroke-linejoin:round;stroke-opacity:1" />
        <path
           id="path1190"
           d="m 403.512,149.072 -2.561,-0.194 -1.143,0.029 -1.111,0.11 -1.082,0.193 -1.055,0.277 -1.031,0.362 -1.007,0.446 -0.988,0.533 -0.969,0.62 -0.953,0.707 -0.939,0.796 -0.928,0.884 -0.918,0.975 2.445,9.697 0.461,1.829 0.774,-1.545 0.801,-1.364 0.827,-1.192 0.853,-1.029 0.878,-0.874 0.902,-0.729 0.924,-0.593 0.946,-0.463 0.967,-0.345 0.987,-0.233 1.006,-0.131 1.024,-0.037 1.405,0.11 1.383,0.305 1.35,0.489 1.305,0.664 1.248,0.827 1.178,0.981 1.098,1.124 1.005,1.259 0.901,1.382 0.785,1.497 0.656,1.601 0.516,1.696 0.297,1.281 0.223,1.206 0.152,1.146 0.085,1.1 0.021,1.068 -0.04,1.051 -0.096,1.047 -0.15,1.059 -0.198,1.083 -0.245,1.124 -0.288,1.178 -0.326,1.246 -0.695,2.362 -0.815,2.445 -0.918,2.51 -1.006,2.556 -1.076,2.585 -1.129,2.595 -1.165,2.584 -1.184,2.556 -1.187,2.507 -1.171,2.44 -1.138,2.351 -0.921,2.906 9.998,-0.201 9.998,-0.202 9.998,-0.202 6.2,-0.125 -2.203,-8.636 -9.998,0.159 -9.999,0.159 -1.725,0.028 2,-4.119 1.76,-3.792 1.522,-3.503 1.287,-3.252 1.054,-3.038 0.822,-2.859 0.592,-2.718 0.363,-2.611 0.136,-2.54 -0.09,-2.503 -0.316,-2.503 -0.541,-2.537 -0.867,-2.834 -1.103,-2.669 -1.324,-2.489 -1.528,-2.295 -1.715,-2.086 -1.885,-1.863 -2.039,-1.624 -2.177,-1.37 -2.298,-1.099 -2.402,-0.814 -2.49,-0.512"
           inkscape:connector-curvature="0"
           style="fill:none;stroke:#484848;stroke-width:3;stroke-linecap:butt;stroke-linejoin:round;stroke-opacity:1" />
        <path
           id="path1192"
           d="m 357.542,149.253 2.423,9.702 2.422,9.702 2.422,9.702 2.423,9.703 2.422,9.702 2.422,9.702 1.707,6.835 8.553,-0.172 -2.428,-9.701 -2.429,-9.7 -2.429,-9.701 -2.429,-9.7 -2.429,-9.701 -2.428,-9.701 -1.648,-6.581 -8.574,-0.091"
           inkscape:connector-curvature="0"
           style="fill:none;stroke:#484848;stroke-width:3;stroke-linecap:butt;stroke-linejoin:round;stroke-opacity:1" />
        <path
           id="path1194"
           d="m 513.513,186.778 2.532,9.675 2.532,9.674 2.531,9.674 2.532,9.674 2.532,9.674 2.532,9.675 0.749,2.862 7.397,-0.288 -2.538,-9.672 -2.537,-9.673 -2.537,-9.673 -2.538,-9.673 -2.537,-9.672 -2.537,-9.673 -0.693,-2.64 -7.42,0.056"
           inkscape:connector-curvature="0"
           style="fill:none;stroke:#484848;stroke-width:3;stroke-linecap:butt;stroke-linejoin:round;stroke-opacity:1" />
        <path
           id="path1196"
           d="m 276.476,188.587 2.354,9.719 2.354,9.719 2.354,9.719 2.354,9.719 2.354,9.719 2.354,9.719 2.417,9.978 9.292,-0.361 -2.361,-9.718 -2.361,-9.717 -2.361,-9.717 -2.362,-9.717 -2.361,-9.718 -2.361,-9.717 -2.356,-9.698 -9.31,0.071"
           inkscape:connector-curvature="0"
           style="fill:none;stroke:#484848;stroke-width:3;stroke-linecap:butt;stroke-linejoin:round;stroke-opacity:1" />
        <path
           id="path1198"
           d="m 243.105,188.842 2.329,9.725 2.329,9.725 2.328,9.725 2.329,9.725 2.329,9.725 2.329,9.725 2.329,9.725 0.301,1.257 9.576,-0.372 -2.336,-9.724 -2.336,-9.723 -2.336,-9.723 -2.336,-9.723 -2.336,-9.724 -2.337,-9.723 -2.336,-9.723 -0.233,-0.97 -9.593,0.073"
           inkscape:connector-curvature="0"
           style="fill:none;stroke:#484848;stroke-width:3;stroke-linecap:butt;stroke-linejoin:round;stroke-opacity:1" />
        <path
           id="path1200"
           d="m 165.161,299.947 2.251,9.743 2.25,9.744 2.25,9.743 2.251,9.744 2.25,9.743 2.251,9.744 2.25,9.743 1.311,5.678 9.962,-0.875 0.501,-0.044 -2.259,-9.742 -2.258,-9.742 -2.258,-9.741 -2.259,-9.742 -2.258,-9.742 -2.258,-9.741 -2.259,-9.742 -1.24,-5.351 -9.985,0.552 -0.493,0.028"
           inkscape:connector-curvature="0"
           style="fill:none;stroke:#484848;stroke-width:3;stroke-linecap:butt;stroke-linejoin:round;stroke-opacity:1" />
        <path
           id="path1202"
           d="m 606.378,269.963 -2.148,-0.045 -0.954,0.088 -0.924,0.165 -0.897,0.242 -0.871,0.32 -0.847,0.399 -0.824,0.479 -0.805,0.559 -0.785,0.64 -0.769,0.723 -0.753,0.806 -0.741,0.89 -0.728,0.975 2.574,9.663 0.297,1.117 0.587,-1.507 0.616,-1.337 0.645,-1.176 0.673,-1.022 0.699,-0.877 0.725,-0.741 0.749,-0.611 0.773,-0.491 0.794,-0.379 0.816,-0.275 0.835,-0.178 0.855,-0.091 1.178,0.029 1.168,0.215 1.148,0.392 1.116,0.56 1.075,0.718 1.023,0.868 0.961,1.009 0.889,1.141 0.807,1.264 0.713,1.38 0.61,1.485 0.497,1.583 0.298,1.2 0.233,1.133 0.171,1.08 0.113,1.04 0.058,1.013 0.007,0.999 -0.04,1 -0.085,1.012 -0.124,1.04 -0.162,1.079 -0.195,1.134 -0.226,1.2 -0.49,2.278 -0.587,2.363 -0.672,2.43 -0.742,2.479 -0.8,2.509 -0.844,2.52 -0.875,2.512 -0.891,2.486 -0.895,2.439 -0.885,2.374 -0.86,2.288 -0.657,2.803 9.964,-0.849 9.964,-0.848 9.964,-0.849 0.344,-0.029 -2.173,-8.082 -9.967,0.804 -8.192,0.661 1.515,-4.012 1.326,-3.69 1.139,-3.404 0.952,-3.154 0.765,-2.939 0.578,-2.758 0.392,-2.612 0.204,-2.498 0.016,-2.419 -0.171,-2.373 -0.36,-2.36 -0.55,-2.381 -0.833,-2.645 -1.026,-2.476 -1.203,-2.293 -1.366,-2.098 -1.515,-1.889 -1.649,-1.668 -1.768,-1.432 -1.873,-1.184 -1.963,-0.92 -2.04,-0.643 -2.101,-0.351"
           inkscape:connector-curvature="0"
           style="fill:none;stroke:#484848;stroke-width:3;stroke-linecap:butt;stroke-linejoin:round;stroke-opacity:1" />
      </g>
    </g>
  </g>
  <g
     inkscape:groupmode="layer"
     id="layer3"
     inkscape:label="Layer 3">
    <g
       inkscape:label="View Layer_LineSet"
       id="View Layer_LineSet-56"
       transform="translate(-29.320141,22.462722)"
       style="fill:#969696;fill-opacity:1">
      <g
         inkscape:label="fills"
         inkscape:groupmode="layer"
         id="fills-2"
         style="fill:#969696;fill-opacity:1">
        <path
           id="path1358"
           fill_rule="evenodd"
           d="M 486.507,460.869 Z"
           inkscape:connector-curvature="0"
           style="fill:#969696;fill-opacity:1;stroke:none" />
        <path
           id="path1360"
           fill_rule="evenodd"
           d="m 452.659,407.77 -3.471,3.826 -3.141,3.463 -0.242,0.267 v 0 l -3.245,10.553 v 0 l 0.912,11.925 v 0 z"
           inkscape:connector-curvature="0"
           style="fill:#969696;fill-opacity:1;stroke:none" />
        <path
           id="path1362"
           fill_rule="evenodd"
           d="m 472.674,464.216 4.596,0.38 9.237,-3.727 v 0 l 4.128,-2.024 1.537,-0.754 7.237,-3.549 1.066,-0.523 5.981,-2.933 6.642,-7.81 3,-10.645 -0.949,-10.751 3.621,-1.757 1.976,-1.021 8.133,-4.198 3.285,-1.696 72.507,-53.46 6.284,-4.825 7.506,-34.853 2.026,-9.409 -10.211,-0.508 -31.297,-1.559 -3.29,1.957 -8.15,4.848 -1.98,1.178 -5.885,5.42 -66.337,62.259 -7.365,9.555 -1.744,-40.931 -5.413,-53.124 -0.779,-7.645 -32.755,-39.682 -4.459,-5.402 -1.571,1.19 -10.611,8.035 -2.24,1.696 -2.298,7.726 -11.847,39.824 3.094,7.46 21.348,51.477 18.533,38.124 0.554,1.138 0.875,1.801 -3.999,2.272 h -0.001 l -7.423,4.217 -2.163,1.229 -5.374,3.053 -1.31,0.744 -2.123,1.206 -6.798,7.449 -3.243,10.371 0.858,11.697 4.846,11.184 8.068,8.906 10.007,5.246 10.372,0.806 9.143,-3.697 2.192,-1.075 1.352,-0.663 5.548,-2.72 2.233,-1.096 7.663,-3.758 -9.237,3.727 -4.596,-0.379 v -10e-4 l -5.905,-0.488 -10.149,-5.39 -8.201,-9.114 -4.947,-11.42 v 0 l 4.947,11.42 8.201,9.114 10.149,5.391 5.905,0.488 z m -30.114,-38.337 3.245,-10.553 z m 3.245,-10.554 0.242,-0.266 3.142,-3.463 3.471,-3.826 z"
           inkscape:connector-curvature="0"
           style="fill:#969696;fill-opacity:1;stroke:none" />
      </g>
      <g
         inkscape:label="strokes"
         inkscape:groupmode="layer"
         id="strokes-9"
         style="fill:#969696;fill-opacity:1">
        <path
           id="path1365"
           d="m 485.974,393.854 -0.002,-0.043 -0.426,-9.991 -0.426,-9.991 -0.425,-9.991 -0.426,-9.991 -0.041,-0.967 -1.014,-9.949 -1.014,-9.948 -1.013,-9.949 -1.014,-9.948 -1.013,-9.949 -0.345,-3.381 -0.779,-7.645 -6.365,-7.712 -6.366,-7.712 -6.366,-7.712 -6.366,-7.712 -6.366,-7.712 -0.926,-1.122 -4.459,-5.402 -1.571,1.19 -7.972,6.037 -2.639,1.998 -2.24,1.696 -2.298,7.726 -2.852,9.585 -2.851,9.585 -2.851,9.585 -2.852,9.584 -0.441,1.485 3.094,7.46 3.83,9.237 3.831,9.237 3.831,9.237 3.831,9.237 3.83,9.237 2.195,5.292 4.372,8.993 4.372,8.994 4.372,8.993 4.372,8.994 1.045,2.15 0.554,1.138 0.875,1.801 -3.999,2.272"
           inkscape:connector-curvature="0"
           style="fill:#969696;stroke:#484848;stroke-width:3;stroke-linecap:butt;stroke-linejoin:round;stroke-opacity:1;fill-opacity:1" />
        <path
           id="path1367"
           d="m 426.68,295.195 2.817,-9.595 2.817,-9.595 2.817,-9.595 2.818,-9.595 0.576,-1.964 2.297,-7.824"
           inkscape:connector-curvature="0"
           style="fill:#969696;stroke:#484848;stroke-width:3;stroke-linecap:butt;stroke-linejoin:round;stroke-opacity:1;fill-opacity:1" />
        <path
           id="path1369"
           d="m 466.193,400.082 -0.698,-1.927 -0.442,-1.217 -3.409,-9.401 -3.41,-9.401 -3.409,-9.401 -3.41,-9.4 -1.222,-3.37 -3.608,-9.326 -3.609,-9.327 -3.608,-9.326 -3.609,-9.326 -3.609,-9.326 -2.49,-6.437 -2.98,-7.702 -1.572,1.123 -8.138,5.812 -2.475,1.768 -2.24,1.6"
           inkscape:connector-curvature="0"
           style="fill:#969696;stroke:#484848;stroke-width:3;stroke-linecap:butt;stroke-linejoin:round;stroke-opacity:1;fill-opacity:1" />
        <path
           id="path1371"
           d="m 486.507,460.869 v 0 l 4.128,-2.024 1.537,-0.754 7.237,-3.549 1.066,-0.523 5.981,-2.933 6.478,-7.617 0.164,-0.193 2.713,-9.625 0.287,-1.02 -0.879,-9.962 -0.07,-0.789 -0.031,-0.351 -0.068,-0.78 -3.973,-9.177 -0.948,-2.192 -6.6,-7.513 -1.472,-1.677 -8.721,-4.894 -1.33,-0.747 -0.213,-0.025 -5.819,-0.67 -0.033,-0.004 -4.488,-0.516 -6.062,2.213 -3.403,1.243 -5.795,3.292"
           inkscape:connector-curvature="0"
           style="fill:#969696;stroke:#484848;stroke-width:3;stroke-linecap:butt;stroke-linejoin:round;stroke-opacity:1;fill-opacity:1" />
        <path
           id="path1373"
           d="m 477.27,464.596 4.108,-2.018 1.529,-0.751 4.802,-2.36 v 0 l 2.401,-1.179 1.061,-0.521 5.952,-2.924"
           inkscape:connector-curvature="0"
           style="fill:#969696;stroke:#484848;stroke-width:3;stroke-linecap:butt;stroke-linejoin:round;stroke-opacity:1;fill-opacity:1" />
        <path
           id="path1375"
           d="m 506.456,451.086 -9.333,3.757 -5.066,-0.445 v 0 l -5.565,-0.489"
           inkscape:connector-curvature="0"
           style="fill:#969696;stroke:#484848;stroke-width:3;stroke-linecap:butt;stroke-linejoin:round;stroke-opacity:1;fill-opacity:1" />
        <path
           id="path1377"
           d="m 476.196,448.364 0.588,0.317 8.805,4.741 0.903,0.487 -5.914,2.944 -1.054,0.525 -4.594,2.287 -2.561,1.275 -1.519,0.757 -4.081,2.031"
           inkscape:connector-curvature="0"
           style="fill:#969696;stroke:#484848;stroke-width:3;stroke-linecap:butt;stroke-linejoin:round;stroke-opacity:1;fill-opacity:1" />
        <path
           id="path1379"
           d="m 445.805,415.326 v -0.001 l 0.437,-0.246 3.551,-2.002 1.484,-0.837 6.992,-3.944 1.031,-0.581 5.469,-3.085 v 0 l 0.309,-0.174"
           inkscape:connector-curvature="0"
           style="fill:#969696;stroke:#484848;stroke-width:3;stroke-linecap:butt;stroke-linejoin:round;stroke-opacity:1;fill-opacity:1" />
        <path
           id="path1381"
           d="m 461.834,415.199 2.891,-9.573 0.293,-0.968 v -0.001 l 0.06,-0.201 5.334,-5.917 1.576,-1.749"
           inkscape:connector-curvature="0"
           style="fill:#969696;stroke:#484848;stroke-width:3;stroke-linecap:butt;stroke-linejoin:round;stroke-opacity:1;fill-opacity:1" />
        <path
           id="path1383"
           d="m 442.56,425.879 v 0 l 3.988,-2.21 1.484,-0.822 6.992,-3.875 1.031,-0.571 1.2,-0.665 4.579,-2.537 0.42,5.265 0.549,6.898"
           inkscape:connector-curvature="0"
           style="fill:#969696;stroke:#484848;stroke-width:3;stroke-linecap:butt;stroke-linejoin:round;stroke-opacity:1;fill-opacity:1" />
        <path
           id="path1385"
           d="m 443.472,437.804 v 0 l 3.999,-2.161 1.489,-0.804 7.013,-3.788 1.034,-0.558 5.796,-3.131 3.974,9.176 1.08,2.493"
           inkscape:connector-curvature="0"
           style="fill:#969696;stroke:#484848;stroke-width:3;stroke-linecap:butt;stroke-linejoin:round;stroke-opacity:1;fill-opacity:1" />
        <path
           id="path1387"
           d="m 448.419,449.224 4.021,-2.109 1.497,-0.785 7.052,-3.697 1.039,-0.545 5.829,-3.057 6.663,7.457 1.676,1.876 -5.87,2.991 -1.046,0.533 -7.102,3.619 -1.508,0.768 -4.05,2.063"
           inkscape:connector-curvature="0"
           style="fill:#969696;stroke:#484848;stroke-width:3;stroke-linecap:butt;stroke-linejoin:round;stroke-opacity:1;fill-opacity:1" />
        <path
           id="path1389"
           d="m 466.193,400.082 -1.033,0.587 -7.012,3.983 -1.489,0.846"
           inkscape:connector-curvature="0"
           style="fill:#969696;stroke:#484848;stroke-width:3;stroke-linecap:butt;stroke-linejoin:round;stroke-opacity:1;fill-opacity:1" />
        <path
           id="path1391"
           d="m 452.66,407.77 h -0.001 l -3.471,3.826 -3.141,3.463 -0.242,0.267 v 0 l -2.939,9.558 -0.306,0.995 v 0 l 0.762,9.971 0.15,1.954 v 0 l 3.975,9.176 0.972,2.244 6.689,7.434 1.512,1.68 8.831,4.691 1.318,0.699 5.905,0.488 4.596,0.38 9.237,-3.727"
           inkscape:connector-curvature="0"
           style="fill:#969696;stroke:#484848;stroke-width:3;stroke-linecap:butt;stroke-linejoin:round;stroke-opacity:1;fill-opacity:1" />
        <path
           id="path1393"
           d="m 448.004,473.072 2.166,-1.079 1.335,-0.665 5.483,-2.729 2.207,-1.099 7.574,-3.771"
           inkscape:connector-curvature="0"
           style="fill:#969696;stroke:#484848;stroke-width:3;stroke-linecap:butt;stroke-linejoin:round;stroke-opacity:1;fill-opacity:1" />
        <path
           id="path1395"
           d="m 456.62,458.338 -7.518,3.83 -2.19,1.116 -5.44,2.772 -1.326,0.675 -2.149,1.095"
           inkscape:connector-curvature="0"
           style="fill:#969696;stroke:#484848;stroke-width:3;stroke-linecap:butt;stroke-linejoin:round;stroke-opacity:1;fill-opacity:1" />
        <path
           id="path1397"
           d="m 448.419,449.224 -7.464,3.914 -2.175,1.14 -5.401,2.833 -1.316,0.69 -2.134,1.119"
           inkscape:connector-curvature="0"
           style="fill:#969696;stroke:#484848;stroke-width:3;stroke-linecap:butt;stroke-linejoin:round;stroke-opacity:1;fill-opacity:1" />
        <path
           id="path1399"
           d="m 443.472,437.804 -7.423,4.009 -2.163,1.168 -5.372,2.902 -1.309,0.707 -2.122,1.146"
           inkscape:connector-curvature="0"
           style="fill:#969696;stroke:#484848;stroke-width:3;stroke-linecap:butt;stroke-linejoin:round;stroke-opacity:1;fill-opacity:1" />
        <path
           id="path1401"
           d="m 442.56,425.879 v 0 l -7.401,4.101 -2.156,1.195 -5.357,2.969 -1.305,0.723 -2.116,1.172"
           inkscape:connector-curvature="0"
           style="fill:#969696;stroke:#484848;stroke-width:3;stroke-linecap:butt;stroke-linejoin:round;stroke-opacity:1;fill-opacity:1" />
        <path
           id="path1403"
           d="m 445.805,415.326 v 0 l -7.402,4.174 -2.156,1.216 -5.358,3.022 -1.305,0.736 -2.116,1.194"
           inkscape:connector-curvature="0"
           style="fill:#969696;stroke:#484848;stroke-width:3;stroke-linecap:butt;stroke-linejoin:round;stroke-opacity:1;fill-opacity:1" />
        <path
           id="path1405"
           d="m 467.519,470.181 2.192,-1.075 1.352,-0.663 5.548,-2.72 2.233,-1.096 7.663,-3.758"
           inkscape:connector-curvature="0"
           style="fill:#969696;stroke:#484848;stroke-width:3;stroke-linecap:butt;stroke-linejoin:round;stroke-opacity:1;fill-opacity:1" />
        <path
           id="path1407"
           d="m 452.659,407.77 -7.423,4.217 -2.163,1.229 -5.374,3.053 -1.31,0.744 -2.123,1.206"
           inkscape:connector-curvature="0"
           style="fill:#969696;stroke:#484848;stroke-width:3;stroke-linecap:butt;stroke-linejoin:round;stroke-opacity:1;fill-opacity:1" />
        <path
           id="path1409"
           d="m 477.27,464.596 -7.626,3.747 -0.931,0.457 -1.291,0.634 -5.52,2.712 -1.345,0.661 -2.181,1.071"
           inkscape:connector-curvature="0"
           style="fill:#969696;stroke:#484848;stroke-width:3;stroke-linecap:butt;stroke-linejoin:round;stroke-opacity:1;fill-opacity:1" />
        <path
           id="path1411"
           d="m 434.266,418.219 -6.798,7.449 -2.984,9.544 -0.259,0.827 0.732,9.974 0.126,1.723 3.976,9.176 0.87,2.008 6.713,7.411 1.355,1.495 8.857,4.643 1.15,0.603 9.97,0.775 0.402,0.031 9.143,-3.697"
           inkscape:connector-curvature="0"
           style="fill:#969696;stroke:#484848;stroke-width:3;stroke-linecap:butt;stroke-linejoin:round;stroke-opacity:1;fill-opacity:1" />
        <path
           id="path1413"
           d="m 486.507,460.869 v 0 l -9.237,3.727 -4.596,-0.379 -5.905,-0.488 -8.832,-4.691 -1.317,-0.7 -6.689,-7.433 -1.512,-1.681 -3.975,-9.176 -0.972,-2.244 v 0"
           inkscape:connector-curvature="0"
           style="fill:#969696;stroke:#484848;stroke-width:3;stroke-linecap:butt;stroke-linejoin:round;stroke-opacity:1;fill-opacity:1" />
        <path
           id="path1415"
           d="m 515.149,421.88 3.621,-1.757 1.976,-1.021 8.133,-4.198 3.285,-1.696 8.049,-5.935 8.048,-5.934 8.049,-5.934 8.049,-5.935 8.049,-5.934 8.048,-5.935 8.049,-5.934 8.049,-5.934 8.117,-5.985 6.284,-4.825 2.105,-9.776 2.106,-9.776 2.105,-9.776 1.19,-5.525 2.026,-9.409 -9.988,-0.497 -0.223,-0.011 -9.987,-0.498 -9.988,-0.497 -9.988,-0.498 -1.334,-0.066 -3.29,1.957 -8.15,4.848 -1.98,1.178 -5.885,5.42 -7.291,6.843 -7.292,6.843 -7.292,6.844 -7.291,6.843 -7.292,6.844 -7.292,6.843 -7.291,6.843 -7.292,6.844 -7.292,6.843 -0.712,0.669 -6.105,7.92 -1.26,1.635"
           inkscape:connector-curvature="0"
           style="fill:#969696;stroke:#484848;stroke-width:3;stroke-linecap:butt;stroke-linejoin:round;stroke-opacity:1;fill-opacity:1" />
        <path
           id="path1417"
           d="m 491.793,394.524 6.372,-7.707 6.372,-7.707 1.905,-2.305 7.28,-6.856 7.279,-6.856 7.28,-6.856 7.28,-6.856 7.279,-6.856 7.28,-6.856 7.28,-6.856 7.28,-6.857 7.279,-6.856 1.113,-1.048 5.907,-5.458"
           inkscape:connector-curvature="0"
           style="fill:#969696;stroke:#484848;stroke-width:3;stroke-linecap:butt;stroke-linejoin:round;stroke-opacity:1;fill-opacity:1" />
        <path
           id="path1419"
           d="m 442.56,425.879 2.939,-9.558 0.306,-0.995"
           inkscape:connector-curvature="0"
           style="fill:#969696;stroke:#484848;stroke-width:3;stroke-linecap:butt;stroke-linejoin:round;stroke-opacity:1;fill-opacity:1" />
        <path
           id="path1421"
           d="m 445.805,415.325 0.242,-0.266 3.142,-3.463 3.471,-3.826"
           inkscape:connector-curvature="0"
           style="fill:#969696;stroke:#484848;stroke-width:3;stroke-linecap:butt;stroke-linejoin:round;stroke-opacity:1;fill-opacity:1" />
        <path
           id="path1423"
           d="m 472.674,464.217 v -10e-4"
           inkscape:connector-curvature="0"
           style="fill:#969696;stroke:#484848;stroke-width:3;stroke-linecap:butt;stroke-linejoin:round;stroke-opacity:1;fill-opacity:1" />
        <path
           id="path1425"
           d="m 515.118,421.529 8.987,-4.387 8.059,-3.934"
           inkscape:connector-curvature="0"
           style="fill:#969696;stroke:#484848;stroke-width:3;stroke-linecap:butt;stroke-linejoin:round;stroke-opacity:1;fill-opacity:1" />
      </g>
    </g>
  </g>
  <g
     inkscape:groupmode="layer"
     id="layer4"
     inkscape:label="Layer 4">
    <g
       inkscape:label="View Layer_LineSet"
       id="View Layer_LineSet-1"
       transform="translate(9.775,46.002)">
      <g
         inkscape:label="fills"
         inkscape:groupmode="layer"
         id="fills-27">
        <path
           id="path1550"
           fill_rule="evenodd"
           d="m 718.441,822.211 67.952,-0.711 v -94.532 l 93.263,-0.677 v -68.287 l -25.226,-8.459 -68.037,0.317 v -85.929 l -19.881,-3.018 -64.038,0.106 v 89.232 l -88.827,0.414 v 64.855 l 10.507,12.625 78.32,-0.569 v 76.567 z"
           inkscape:connector-curvature="0"
           style="fill:#ffcc1d;fill-opacity:1;stroke:none" />
        <path
           id="path1552"
           fill_rule="evenodd"
           d="m 956.563,553.213 -14.3,-19.574 -16.137,-18.074 -17.826,-16.4 -19.347,-14.567 -20.689,-12.593 -21.837,-10.494 -22.778,-8.29 -23.503,-6.003 -24.007,-3.653 -24.28,-1.261 -24.319,1.149 -24.124,3.553 -23.696,5.928 -14.072,3.53 -21.668,7.762 -20.834,9.875 -19.795,11.897 -18.56,13.807 -17.143,15.586 -15.553,17.214 -13.811,18.677 -11.929,19.959 -9.928,21.045 -7.828,21.925 -5.648,22.591 -3.412,23.034 -1.141,23.25 1.141,23.236 3.412,22.995 5.648,22.526 4.112,15.332 8.327,23.227 10.561,22.262 12.688,21.08 14.689,19.691 16.543,18.112 18.23,16.357 19.737,14.446 21.048,12.396 22.15,10.232 23.036,7.972 23.696,5.64 24.124,3.259 24.319,0.852 24.28,-1.557 24.006,-3.945 23.504,-6.289 22.778,-8.569 21.836,-10.76 20.689,-12.844 19.348,-14.803 17.826,-16.617 16.137,-18.271 14.3,-19.749 12.33,-21.038 10.246,-22.129 8.069,-23.01 5.816,-23.673 3.512,-24.114 1.174,-24.328 -1.174,-24.314 -3.512,-24.072 -5.816,-23.602 -8.069,-22.911 -10.246,-22.004 z M 702.87,528.18 l 16.279,-4.117 16.582,-2.487 12.842,-0.64 1.191,0.058 15.55,2.323 15.233,3.847 14.771,5.332 14.168,6.763 13.43,8.128 12.566,9.413 11.582,10.606 10.489,11.699 9.299,12.677 8.02,13.536 6.666,14.264 5.251,14.856 3.786,15.308 2.286,15.615 0.764,15.772 -0.764,15.782 -2.286,15.64 -3.786,15.352 -5.251,14.917 -6.666,14.34 -8.02,13.627 -9.299,12.784 -10.489,11.819 -11.583,10.74 -12.565,9.557 -13.43,8.282 -14.168,6.925 -14.771,5.501 -15.234,4.022 -15.55,2.502 -15.718,0.955 -15.734,-0.604 -15.6,-2.158 -15.313,-3.695 -14.879,-5.199 -14.3,-6.653 -13.58,-8.046 -12.729,-9.362 -11.752,-10.589 -10.659,-11.714 -8.859,-11.917 -6.577,-13.906 -5.7,-15.943 -4.112,-16.445 -2.483,-16.785 -0.831,-16.962 0.831,-16.972 2.483,-16.816 4.112,-16.496 5.7,-16.013 7.23,-15.374 8.689,-14.586 10.062,-13.656 11.335,-12.593 12.496,-11.409 13.535,-10.116 14.439,-8.725 15.203,-7.253 z"
           inkscape:connector-curvature="0"
           style="fill:#ffb153;fill-opacity:1;stroke:none" />
      </g>
      <g
         inkscape:label="strokes"
         inkscape:groupmode="layer"
         id="strokes-0">
        <path
           id="path1555"
           d="m 752.456,520.742 9.988,0.492 6.718,0.331 9.89,1.479 6.636,0.992 9.695,2.449 6.493,1.641 9.406,3.397 6.29,2.272 9.024,4.31 6.031,2.881 8.553,5.18 5.716,3.462 8.002,5.998 5.348,4.01 7.373,6.756 4.932,4.52 6.673,7.448 4.47,4.989 5.912,8.066 3.966,5.412 5.095,8.605 3.424,5.785 4.232,9.06 2.85,6.104 3.33,9.429 2.247,6.365 2.399,9.708 1.622,6.566 1.448,9.894 0.98,6.706 0.484,9.988 0.328,6.78 -0.483,9.989 -0.329,6.79 -1.444,9.895 -0.984,6.735 -2.392,9.709 -1.629,6.614 -3.317,9.434 -2.26,6.428 -4.212,9.07 -2.87,6.18 -5.067,8.621 -3.452,5.873 -5.877,8.091 -4.001,5.507 -6.632,7.484 -4.511,5.089 -7.328,6.805 -4.977,4.622 -7.954,6.061 -5.396,4.11 -8.507,5.256 -5.763,3.56 -8.98,4.399 -6.074,2.976 -9.368,3.498 -6.328,2.362 -9.667,2.561 -6.521,1.728 -9.872,1.596 -6.655,1.076 -9.981,0.613 -6.724,0.414 -9.993,-0.376 -6.732,-0.254 -9.906,-1.364 -6.676,-0.92 -9.722,-2.34 -6.557,-1.579 -9.442,-3.293 -6.376,-2.225 -9.068,-4.215 -6.135,-2.851 -8.605,-5.095 -5.834,-3.454 -8.057,-5.924 -5.478,-4.027 -7.43,-6.693 -5.066,-4.563 -6.731,-7.396 -4.604,-5.059 -5.967,-8.025 -4.095,-5.508 -5.145,-8.575 -3.544,-5.905 -0.653,-1.381 -4.276,-9.04 -2.301,-4.866 -3.366,-9.416 -2.334,-6.527 -2.425,-9.701 -1.687,-6.744 -1.463,-9.892 -1.02,-6.893 -0.49,-9.989 -0.341,-6.973 0.489,-9.988 0.342,-6.984 1.461,-9.893 1.022,-6.923 2.419,-9.703 1.693,-6.793 3.354,-9.421 2.346,-6.592 4.255,-9.049 2.975,-6.325 5.118,-8.591 3.571,-5.995 5.932,-8.051 4.13,-5.605 6.69,-7.433 4.645,-5.16 7.385,-6.743 5.111,-4.666 8.01,-5.987 5.525,-4.129 8.558,-5.172 5.881,-3.553 9.026,-4.306 6.177,-2.947 9.406,-3.396 6.412,-2.315 9.695,-2.452 6.584,-1.665 9.89,-1.483 6.692,-1.004 9.988,-0.498 2.854,-0.142 3.883,-0.194"
           inkscape:connector-curvature="0"
           style="fill:none;stroke:#484848;stroke-width:3;stroke-linecap:butt;stroke-linejoin:round;stroke-opacity:1" />
        <path
           id="path1557"
           d="m 956.563,553.213 -5.899,-8.074 -5.899,-8.075 -2.502,-3.425 -6.66,-7.46 -6.66,-7.459 -2.817,-3.155 -7.36,-6.771 -7.359,-6.77 -3.107,-2.859 -7.989,-6.015 -7.988,-6.015 -3.37,-2.537 -8.542,-5.199 -8.543,-5.199 -3.604,-2.195 -9.014,-4.331 -9.013,-4.332 -3.81,-1.831 -9.397,-3.42 -9.397,-3.42 -3.984,-1.45 -9.688,-2.475 -9.69,-2.475 -4.125,-1.053 -9.887,-1.504 -9.886,-1.505 -4.234,-0.644 -9.986,-0.518 -9.987,-0.519 -4.307,-0.224 -9.989,0.472 -9.988,0.472 -4.342,0.205 -9.893,1.457 -9.893,1.457 -4.338,0.639 -9.701,2.427 -9.701,2.427 -4.294,1.074 -9.699,2.433 -4.373,1.097 -9.414,3.372 -9.414,3.373 -2.84,1.017 -9.036,4.283 -9.037,4.283 -2.761,1.309 -8.571,5.151 -8.571,5.152 -2.653,1.594 -8.023,5.969 -8.024,5.968 -2.513,1.87 -7.399,6.727 -7.399,6.727 -2.345,2.132 -6.704,7.42 -6.704,7.419 -2.145,2.375 -5.946,8.041 -5.946,8.04 -1.919,2.596 -5.13,8.584 -5.131,8.583 -1.668,2.792 -4.267,9.044 -4.266,9.044 -1.395,2.957 -3.363,9.417 -3.362,9.418 -1.103,3.09 -2.425,9.701 -2.426,9.702 -0.797,3.188 -1.465,9.892 -1.465,9.892 -0.482,3.25 -0.49,9.988 -0.49,9.988 -0.161,3.274 0.491,9.988 0.49,9.987 0.16,3.261 1.468,9.892 1.468,9.892 0.476,3.211 2.432,9.7 2.432,9.7 0.784,3.126 2.591,9.659 1.521,5.673 3.375,9.413 3.375,9.413 1.577,4.401 4.286,9.035 4.286,9.035 1.989,4.192 5.157,8.568 5.157,8.567 2.374,3.945 5.98,8.015 5.979,8.016 2.73,3.66 6.744,7.384 6.744,7.384 3.055,3.344 7.443,6.678 7.443,6.679 3.344,3 8.07,5.906 8.069,5.906 3.598,2.634 8.616,5.075 8.617,5.075 3.815,2.246 9.078,4.194 9.078,4.193 3.994,1.845 9.451,3.27 9.45,3.271 4.135,1.431 9.729,2.315 9.728,2.316 4.239,1.009 9.91,1.338 9.91,1.339 4.304,0.582 9.994,0.35 9.994,0.35 4.331,0.152 9.98,-0.64 9.98,-0.64 4.32,-0.277 9.867,-1.622 9.868,-1.621 4.271,-0.702 9.66,-2.585 9.66,-2.585 4.184,-1.119 9.36,-3.521 9.359,-3.521 4.059,-1.527 8.97,-4.42 8.97,-4.42 3.896,-1.92 8.496,-5.274 8.496,-5.275 3.697,-2.295 7.942,-6.077 7.942,-6.076 3.464,-2.65 7.315,-6.819 7.314,-6.819 3.197,-2.979 6.62,-7.495 6.62,-7.495 2.897,-3.281 5.865,-8.1 5.865,-8.099 2.57,-3.55 5.056,-8.627 5.056,-8.628 2.218,-3.783 4.201,-9.075 4.202,-9.074 1.843,-3.98 3.309,-9.437 3.309,-9.437 1.451,-4.136 2.386,-9.711 2.386,-9.711 1.044,-4.251 1.441,-9.896 1.441,-9.895 0.63,-4.323 0.482,-9.988 0.482,-9.989 0.21,-4.351 -0.483,-9.989 -0.482,-9.988 -0.209,-4.337 -1.444,-9.896 -1.443,-9.895 -0.625,-4.281 -2.393,-9.709 -2.392,-9.71 -1.031,-4.183 -3.322,-9.432 -3.322,-9.432 -1.425,-4.047 -4.221,-9.066 -4.222,-9.065 -1.803,-3.873 -5.083,-8.612 -5.084,-8.612 -2.163,-3.665"
           inkscape:connector-curvature="0"
           style="fill:none;stroke:#484848;stroke-width:3;stroke-linecap:butt;stroke-linejoin:round;stroke-opacity:1" />
        <path
           id="path1559"
           d="m 679.72,452.934 -9.414,3.373 -9.414,3.372 -4.208,1.508 -9.036,4.284 -9.036,4.284 -4.078,1.933 -8.571,5.153 -8.57,5.152 -3.907,2.349 -8.023,5.969 -8.023,5.97 -3.691,2.747 -7.398,6.728 -7.398,6.728 -3.434,3.123 -6.704,7.421 -6.703,7.42 -3.136,3.472 -5.944,8.041 -5.945,8.042 -2.8,3.788 -5.129,8.584 -5.13,8.584 -2.429,4.066 -4.266,9.044 -4.266,9.045 -2.029,4.302 -3.362,9.418 -3.361,9.418 -1.604,4.493 -2.425,9.701 -2.425,9.702 -1.158,4.633 -1.465,9.892 -1.465,9.892 -0.7,4.724 -0.49,9.988 -0.49,9.988 -0.234,4.761 0.491,9.988 0.49,9.988 0.233,4.746 1.468,9.892 1.468,9.891 0.694,4.68 2.432,9.7 2.432,9.7 1.144,4.564"
           inkscape:connector-curvature="0"
           style="fill:none;stroke:#484848;stroke-width:3;stroke-linecap:butt;stroke-linejoin:round;stroke-opacity:1" />
        <path
           id="path1561"
           d="m 786.393,658.466 v -8.604 -10 -10 -10 -10 -10 -10 -10 -10 -5.929 l -9.887,-1.501 -9.994,-1.517 -10,0.017 -10,0.016 -10,0.017 -10,0.016 -10,0.017 -10,0.016 -4.038,0.007 v 10 10 10 10 10 10 10 10 9.232 l -10,0.046 -10,0.047 -10,0.046 -10,0.047 -9.999,0.047 -10,0.046 -10,0.047 -10,0.046 -8.828,0.042 v 10 10 10 10 10 10 4.855 l 6.397,7.686 4.11,4.939 10,-0.073 10,-0.072 9.999,-0.073 10,-0.073 10,-0.072 10,-0.073 9.999,-0.073 8.322,-0.06 10,-0.073 5.967,-0.043 v 10 10 10 10 10 10 10 10 10 4.749"
           inkscape:connector-curvature="0"
           style="fill:none;stroke:#484848;stroke-width:3;stroke-linecap:butt;stroke-linejoin:round;stroke-opacity:1" />
        <path
           id="path1563"
           d="m 702.474,727.578 v 10 10 10 10 10 10 10 6.567 l 6.622,7.493 6.623,7.493 2.722,3.08 9.999,-0.104 10,-0.105 9.999,-0.105 10,-0.104 9.999,-0.105 10,-0.104 7.955,-0.084 v -10 -10 -10 -10 -10 -10 -10 -10 -10 -4.532 l 10,-0.072 10,-0.073 9.999,-0.073 10,-0.072 10,-0.073 10,-0.073 9.999,-0.072 10,-0.073 10,-0.072 3.265,-0.024 v -10 -10 -10 -10 -10 -10 -8.287 l -9.481,-3.179 -9.481,-3.18 -6.264,-2.1 -10,0.046 -10,0.047 -10,0.047 -10,0.046 -9.999,0.047 -10,0.046 -8.038,0.038"
           inkscape:connector-curvature="0"
           style="fill:none;stroke:#484848;stroke-width:3;stroke-linecap:butt;stroke-linejoin:round;stroke-opacity:1" />
        <path
           id="path1565"
           d="m 718.441,658.802 -10,0.05 -10,0.049 -10,0.05 -9.999,0.049 -10,0.05 -10,0.049 -10,0.05 -10,0.049 -10,0.05 -4.288,0.021"
           inkscape:connector-curvature="0"
           style="fill:none;stroke:#484848;stroke-width:3;stroke-linecap:butt;stroke-linejoin:round;stroke-opacity:1" />
        <path
           id="path1567"
           d="m 613.647,650.667 7.737,6.334 2.77,2.268 v 10 10 10 10 10 10 8.878"
           inkscape:connector-curvature="0"
           style="fill:none;stroke:#484848;stroke-width:3;stroke-linecap:butt;stroke-linejoin:round;stroke-opacity:1" />
        <path
           id="path1569"
           d="m 879.656,658.004 -10,0.05 -10,0.049 -10,0.05 -10,0.049 -9.999,0.05 -10,0.049 -10,0.05 -10,0.049 -10,0.05 -3.264,0.016"
           inkscape:connector-curvature="0"
           style="fill:none;stroke:#484848;stroke-width:3;stroke-linecap:butt;stroke-linejoin:round;stroke-opacity:1" />
        <path
           id="path1571"
           d="m 718.441,564.052 v 10 10 10 10 10 10 10 10 10 4.75 l -8.816,-4.72 -7.151,-3.829"
           inkscape:connector-curvature="0"
           style="fill:none;stroke:#484848;stroke-width:3;stroke-linecap:butt;stroke-linejoin:round;stroke-opacity:1" />
        <path
           id="path1573"
           d="m 786.393,563.933 -10,0.018 -10,0.017 -10,0.018 -10,0.017 -10,0.018 -10,0.017 -7.952,0.014 -9.824,-1.865 -6.143,-1.166"
           inkscape:connector-curvature="0"
           style="fill:none;stroke:#484848;stroke-width:3;stroke-linecap:butt;stroke-linejoin:round;stroke-opacity:1" />
        <path
           id="path1575"
           d="m 748.573,520.936 1.191,0.058 9.89,1.478 5.66,0.845 9.695,2.449 5.538,1.398 9.406,3.396 5.365,1.936 9.024,4.308 5.144,2.455 8.555,5.177 4.875,2.951 8.003,5.995 4.563,3.418 7.374,6.753 4.208,3.853 6.676,7.446 3.813,4.253 5.915,8.063 3.384,4.614 5.097,8.604 2.923,4.932 4.234,9.059 2.432,5.205 3.333,9.428 1.918,5.428 2.401,9.708 1.385,5.6 1.449,9.895 0.837,5.72 0.484,9.988 0.28,5.784 -0.484,9.989 -0.28,5.793 -1.446,9.895 -0.84,5.745 -2.394,9.709 -1.392,5.643 -3.32,9.432 -1.931,5.485 -4.215,9.068 -2.451,5.272 -5.072,8.618 -2.948,5.009 -5.882,8.087 -3.417,4.697 -6.638,7.48 -3.851,4.339 -7.333,6.8 -4.25,3.94 -7.959,6.054 -4.606,3.503 -8.512,5.249 -4.918,3.033 -8.985,4.391 -5.183,2.534 -9.372,3.49 -5.399,2.011 -9.669,2.553 -5.565,1.469 -9.873,1.588 -5.677,0.914 -9.981,0.606 -5.737,0.349 -9.992,-0.384 -5.742,-0.22 -9.906,-1.371 -5.694,-0.787 -9.721,-2.346 -5.592,-1.349 -9.441,-3.299 -5.438,-1.9 -9.067,-4.218 -5.233,-2.435 -8.603,-5.097 -4.977,-2.949 -8.056,-5.925 -4.673,-3.437 -7.429,-6.694 -4.323,-3.895 -6.73,-7.396 -3.929,-4.318 -5.966,-8.025 -2.893,-3.892"
           inkscape:connector-curvature="0"
           style="fill:none;stroke:#484848;stroke-width:3;stroke-linecap:butt;stroke-linejoin:round;stroke-opacity:1" />
      </g>
    </g>
  </g>
</svg>
