<?xml version="1.0" encoding="UTF-8" standalone="no"?>
<svg
   xmlns:dc="http://purl.org/dc/elements/1.1/"
   xmlns:cc="http://creativecommons.org/ns#"
   xmlns:rdf="http://www.w3.org/1999/02/22-rdf-syntax-ns#"
   xmlns:svg="http://www.w3.org/2000/svg"
   xmlns="http://www.w3.org/2000/svg"
   xmlns:sodipodi="http://sodipodi.sourceforge.net/DTD/sodipodi-0.dtd"
   xmlns:inkscape="http://www.inkscape.org/namespaces/inkscape"
   height="1024"
   version="1.1"
   width="1024"
   id="svg13"
   sodipodi:docname="NewCustomer.svg"
   inkscape:version="0.92.4 5da689c313, 2019-01-14">
  <metadata
     id="metadata19">
    <rdf:RDF>
      <cc:Work
         rdf:about="">
        <dc:format>image/svg+xml</dc:format>
        <dc:type
           rdf:resource="http://purl.org/dc/dcmitype/StillImage" />
        <dc:title></dc:title>
      </cc:Work>
    </rdf:RDF>
  </metadata>
  <defs
     id="defs17" />
  <sodipodi:namedview
     pagecolor="#ffffff"
     bordercolor="#666666"
     borderopacity="1"
     objecttolerance="10"
     gridtolerance="10"
     guidetolerance="10"
     inkscape:pageopacity="0"
     inkscape:pageshadow="2"
     inkscape:window-width="3840"
     inkscape:window-height="2081"
     id="namedview15"
     showgrid="false"
     inkscape:zoom="0.65186406"
     inkscape:cx="872.13559"
     inkscape:cy="446.91525"
     inkscape:window-x="0"
     inkscape:window-y="0"
     inkscape:window-maximized="1"
     inkscape:current-layer="fills-3" />
  <g
     id="View Layer_LineSet"
     inkscape:groupmode="lineset"
     inkscape:label="View Layer_LineSet">
    <g
       id="fills"
       inkscape:groupmode="layer"
       inkscape:label="fills">
      <path
         d=" M 143.000, 931.865 177.763, 942.437 213.733, 951.499 250.592, 958.941 288.002, 964.665 325.607, 968.587 363.041, 970.637 397.608, 974.015 432.545, 976.148 471.164, 980.150 510.888, 982.340 551.360, 982.667 592.200, 981.093 633.012, 977.602 673.388, 972.194 712.909, 964.891 751.151, 955.738 787.692, 944.799 822.116, 932.164 821.450, 910.576 820.057, 876.306 818.455, 850.136 814.649, 824.289 810.590, 799.130 804.397, 774.500 796.141, 750.655 785.916, 727.844 776.803, 706.275 766.670, 686.888 758.249, 673.155 748.728, 660.440 738.207, 648.868 726.796, 638.550 714.612, 629.582 701.781, 622.048 560.979, 546.441 538.945, 549.613 529.641, 567.014 517.843, 584.065 507.661, 595.413 496.487, 605.621 484.436, 614.591 471.633, 622.241 464.667, 625.491 460.648, 626.434 447.308, 628.138 433.907, 628.453 420.572, 627.384 407.431, 624.949 394.608, 621.180 382.222, 616.119 370.388, 609.822 359.213, 602.353 348.799, 593.788 339.237, 584.211 330.613, 573.715 320.749, 558.167 313.086, 542.478 270.410, 545.184 133.196, 616.713 121.224, 623.593 109.901, 631.890 99.328, 641.519 89.599, 652.383 80.802, 664.378 73.012, 677.389 63.632, 695.779 55.162, 716.284 45.737, 737.807 38.063, 760.391 32.202, 783.833 28.199, 807.927 24.412, 832.659 22.530, 857.906 21.629, 876.999 48.816, 892.334 78.263, 906.682 109.742, 919.904 143.000, 931.865  z"
         fill="rgb(204, 204, 204)"
         fill-opacity="1.0"
         fill_rule="evenodd"
         stroke="none"
         id="path2"
         style="fill:#969696;fill-opacity:1" />
    </g>
    <g
       id="strokes"
       inkscape:groupmode="layer"
       inkscape:label="strokes">
      <path
         d=" M 464.667, 625.491 460.648, 626.434 450.728, 627.701 447.308, 628.138 437.311, 628.373 433.907, 628.453 423.939, 627.654 420.572, 627.384 410.739, 625.562 407.431, 624.949 397.837, 622.129 394.608, 621.180 385.351, 617.398 382.222, 616.119 373.395, 611.422 370.388, 609.822 362.074, 604.265 359.213, 602.353 351.490, 596.001 348.799, 593.788 341.733, 586.711 339.237, 584.211 332.888, 576.485 330.613, 573.715 325.256, 565.271 320.749, 558.167 316.360, 549.181 313.086, 542.478 303.106, 543.111 293.126, 543.744 283.146, 544.376 273.166, 545.009 270.410, 545.184 261.542, 549.806 252.675, 554.429 243.807, 559.051 234.940, 563.674 226.072, 568.297 217.205, 572.919 208.337, 577.542 199.470, 582.164 190.603, 586.787 181.735, 591.410 172.868, 596.032 164.000, 600.655 155.133, 605.277 146.265, 609.900 137.398, 614.523 133.196, 616.713 124.526, 621.696 121.224, 623.593 113.158, 629.504 109.901, 631.890 102.507, 638.623 99.328, 641.519 92.657, 648.968 89.599, 652.383 83.685, 660.447 80.802, 664.378 75.665, 672.958 73.012, 677.389 68.468, 686.297 63.924, 695.206 63.632, 695.779 59.814, 705.021 55.996, 714.264 55.162, 716.284 51.150, 725.444 47.139, 734.604 45.737, 737.807 42.520, 747.275 39.302, 756.743 38.063, 760.391 35.637, 770.092 33.212, 779.793 32.202, 783.833 30.563, 793.698 28.924, 803.563 28.199, 807.927 26.686, 817.811 25.172, 827.696 24.412, 832.659 23.669, 842.631 22.925, 852.604 22.530, 857.906 22.059, 867.895 21.629, 876.999 30.339, 881.912 39.049, 886.825 47.759, 891.738 48.816, 892.334 57.805, 896.714 66.795, 901.094 75.785, 905.475 78.263, 906.682 87.482, 910.555 96.702, 914.427 105.922, 918.300 109.742, 919.904 119.151, 923.288 128.561, 926.673 137.971, 930.057 143.000, 931.865 152.567, 934.775 162.135, 937.684 171.702, 940.593 177.763, 942.437 187.460, 944.880 197.157, 947.323 206.854, 949.765 213.733, 951.499 223.536, 953.478 233.338, 955.457 243.140, 957.436 250.592, 958.941 260.477, 960.454 270.362, 961.966 280.247, 963.479 288.002, 964.665 297.948, 965.703 307.894, 966.740 317.840, 967.777 325.607, 968.587 335.593, 969.134 345.578, 969.680 355.563, 970.227 363.041, 970.637 372.993, 971.609 382.946, 972.582 392.898, 973.554 397.608, 974.015 407.589, 974.624 417.571, 975.234 427.552, 975.843 432.545, 976.148 442.491, 977.179 452.438, 978.210 462.385, 979.240 471.164, 980.150 481.149, 980.700 491.134, 981.251 501.118, 981.802 510.888, 982.340 520.888, 982.421 530.888, 982.501 540.888, 982.582 550.887, 982.663 551.360, 982.667 561.352, 982.282 571.345, 981.897 581.338, 981.512 591.330, 981.127 592.200, 981.093 602.163, 980.241 612.127, 979.389 622.090, 978.536 632.054, 977.684 633.012, 977.602 642.924, 976.275 652.835, 974.947 662.747, 973.619 672.658, 972.292 673.388, 972.194 683.222, 970.377 693.055, 968.560 702.889, 966.743 712.909, 964.891 722.635, 962.563 732.360, 960.236 742.085, 957.908 751.151, 955.738 760.731, 952.870 770.311, 950.002 779.891, 947.134 787.692, 944.799 797.080, 941.353 806.468, 937.908 815.855, 934.462 822.116, 932.164 821.807, 922.169 821.499, 912.174 821.450, 910.576 821.044, 900.584 820.638, 890.592 820.232, 880.600 820.057, 876.306 819.446, 866.325 818.835, 856.343 818.455, 850.136 816.998, 840.243 815.541, 830.350 814.649, 824.289 813.056, 814.417 811.463, 804.545 810.590, 799.130 808.151, 789.432 805.713, 779.734 804.397, 774.500 801.125, 765.050 797.854, 755.601 796.141, 750.655 792.051, 741.530 787.961, 732.405 785.916, 727.844 782.024, 718.632 778.132, 709.421 776.803, 706.275 772.171, 697.412 767.539, 688.550 766.670, 686.888 761.443, 678.363 758.249, 673.155 752.255, 665.150 748.728, 660.440 742.001, 653.041 738.207, 648.868 730.790, 642.161 726.796, 638.550 718.742, 632.622 714.612, 629.582 705.989, 624.519 701.781, 622.048 692.971, 617.317 684.161, 612.586 675.350, 607.855 666.540, 603.124 657.730, 598.393 648.920, 593.663 640.110, 588.932 631.300, 584.201 622.489, 579.470 613.679, 574.739 604.869, 570.008 596.059, 565.278 587.249, 560.547 578.438, 555.816 569.628, 551.085 560.979, 546.441 551.081, 547.866 541.183, 549.290 538.945, 549.613 534.230, 558.431 529.641, 567.014 523.951, 575.237 518.261, 583.460 517.843, 584.065 511.165, 591.508 507.661, 595.413 500.278, 602.158 496.487, 605.621 488.465, 611.592 484.436, 614.591 475.852, 619.721 471.633, 622.241 464.667, 625.491 458.211, 628.503 448.762, 631.776 444.303, 633.321 "
         fill="none"
         stroke="rgb(72, 72, 72)"
         stroke-linecap="butt"
         stroke-linejoin="round"
         stroke-opacity="1.0"
         stroke-width="3.0"
         id="path5" />
      <path
         d=" M 821.450, 910.576 820.839, 900.594 820.228, 890.613 819.697, 881.942 818.241, 872.048 816.784, 862.155 815.533, 853.652 813.941, 843.779 812.349, 833.907 811.093, 826.116 808.656, 816.418 806.220, 806.719 804.320, 799.154 801.051, 789.703 797.783, 780.252 795.292, 773.048 791.207, 763.921 787.121, 754.793 784.113, 748.071 780.226, 738.857 776.338, 729.644 774.152, 724.462 769.526, 715.596 764.900, 706.731 763.080, 703.242 757.860, 694.713 753.880, 688.210 747.895, 680.200 743.481, 674.293 736.763, 666.885 731.993, 661.626 724.585, 654.908 719.536, 650.330 711.492, 644.390 706.240, 640.512 697.625, 635.434 692.243, 632.261 683.440, 627.515 674.638, 622.770 665.836, 618.024 657.034, 613.279 648.231, 608.533 639.429, 603.787 630.627, 599.042 621.825, 594.296 613.023, 589.551 604.220, 584.805 595.418, 580.059 586.616, 575.314 577.814, 570.568 569.011, 565.823 560.209, 561.077 551.407, 556.331 542.605, 551.586 538.945, 549.613 "
         fill="none"
         stroke="rgb(72, 72, 72)"
         stroke-linecap="butt"
         stroke-linejoin="round"
         stroke-opacity="1.0"
         stroke-width="3.0"
         id="path7" />
      <path
         d=" M 444.303, 633.321 434.567, 635.601 430.051, 636.659 420.131, 637.917 415.595, 638.492 405.597, 638.713 401.076, 638.813 391.110, 637.994 386.635, 637.627 376.806, 635.782 372.408, 634.957 362.822, 632.110 358.530, 630.836 349.285, 627.025 345.130, 625.312 336.318, 620.585 332.331, 618.446 324.036, 612.860 320.248, 610.309 312.547, 603.930 308.990, 600.984 301.949, 593.883 298.657, 590.562 292.334, 582.815 289.339, 579.145 284.008, 570.684 278.684, 562.238 274.319, 553.241 270.410, 545.184 "
         fill="none"
         stroke="rgb(72, 72, 72)"
         stroke-linecap="butt"
         stroke-linejoin="round"
         stroke-opacity="1.0"
         stroke-width="3.0"
         id="path9" />
    </g>
  </g>
  <g
     inkscape:groupmode="layer"
     id="layer1"
     inkscape:label="Layer 1">
    <g
       inkscape:label="View Layer_LineSet"
       id="View Layer_LineSet-3"
       transform="translate(5.116,5.976)">
      <g
         inkscape:label="fills"
         inkscape:groupmode="layer"
         id="fills-6">
        <path
           id="path990"
           fill_rule="evenodd"
           d="m 251.784,453.286 5.967,4.278 5.46,3.897 4.564,18.006 5.859,17.324 7.102,16.483 8.285,15.49 9.397,14.352 10.427,13.076 11.366,11.675 12.204,10.157 12.933,8.537 13.544,6.828 14.033,5.044 14.389,3.2 14.612,1.315 14.695,-0.596 14.636,-2.512 30.504,-7.224 13.314,-4.07 12.992,-5.789 12.54,-7.461 11.961,-9.067 11.261,-10.592 10.444,-12.018 9.52,-13.33 8.494,-14.513 7.379,-15.555 6.186,-16.44 4.927,-17.161 5.12,-4.185 6.09,-4.063 5.798,-4.9 5.45,-5.69 5.049,-6.426 4.595,-7.101 4.097,-7.707 3.556,-8.239 2.98,-8.689 2.374,-9.054 1.743,-9.33 1.096,-9.514 0.435,-9.604 -0.228,-9.598 -0.889,-9.498 -1.542,-9.302 -2.179,-9.016 -2.794,-8.64 -3.38,-8.179 -3.931,-7.639 -4.445,-7.023 2.41,-18.549 0.848,-18.665 -0.689,-18.597 -2.191,-18.347 -4.007,-16.922 -6.247,-16.502 -7.86,-12.265 -12.744,-18.723 -0.284,-4.368 -3.472,-12.284 -8.023,-14.06 -22.339,-34.029 -12.86,-12.699 -13.978,-11.039 -15.074,-9.224 -15.969,-7.348 -16.603,-5.428 -17.124,-3.514 -17.489,-1.601 -17.653,0.312 -17.616,2.21 -17.384,4.073 -17.14,5.625 -16.769,7.034 -16.244,8.44 -15.48,9.867 -14.486,11.309 -13.13,12.745 -11.484,14.18 -9.698,15.616 -7.818,17.001 -5.996,18.175 -4.3,19.083 -2.771,19.695 -1.4,20.026 -0.219,20.041 0.913,19.743 0.067,18.067 -4.512,7.458 -4.012,8.056 -3.475,8.578 -2.906,9.018 -2.31,9.374 -1.694,9.64 -1.062,9.818 -0.421,9.902 0.224,9.895 0.867,9.796 1.503,9.604 2.124,9.323 2.727,8.954 3.304,8.501 3.851,7.967 4.364,7.358 4.836,6.678 5.263,5.933 z"
           inkscape:connector-curvature="0"
           style="fill:#cccccc;fill-opacity:1;stroke:none" />
      </g>
      <g
         inkscape:label="strokes"
         inkscape:groupmode="layer"
         id="strokes-7">
        <path
           id="path993"
           d="m 569.294,164.653 -0.284,-4.368 -2.72,-9.623 -0.752,-2.661 -4.956,-8.686 -3.067,-5.374 -5.488,-8.36 -5.488,-8.36 -5.487,-8.359 -5.488,-8.36 -0.388,-0.59 -7.115,-7.026 -5.745,-5.673 -7.848,-6.198 -6.13,-4.841 -8.53,-5.219 -6.544,-4.005 -9.085,-4.18 -6.884,-3.168 -9.504,-3.107 -7.099,-2.321 -9.796,-2.01 -7.328,-1.504 -9.959,-0.912 -7.53,-0.689 -9.998,0.176 -7.655,0.136 -9.922,1.245 -7.694,0.965 -9.736,2.281 -7.648,1.792 -9.502,3.118 -7.638,2.507 -9.222,3.868 -7.547,3.166 -8.874,4.61 -7.37,3.83 -8.432,5.375 -7.048,4.492 -7.883,6.154 -6.603,5.155 -7.176,6.965 -5.954,5.78 -6.293,7.771 -5.191,6.409 -5.276,8.495 -4.422,7.121 -4.178,9.085 -3.64,7.916 -3.133,9.496 -2.863,8.679 -2.198,9.755 -2.102,9.328 -1.393,9.902 -1.378,9.793 -0.697,9.976 -0.703,10.05 -0.109,9.999 -0.11,10.042 0.462,9.989 0.451,9.754 0.037,10 0.03,8.067 -4.512,7.458 -4.012,8.056 -3.475,8.578 -2.906,9.018 -2.31,9.374 -1.694,9.64 -1.062,9.818 -0.421,9.902 0.224,9.895 0.867,9.796 1.503,9.604 2.124,9.323 2.727,8.954 3.304,8.501 3.851,7.967 4.364,7.358 4.836,6.678 5.263,5.933 5.642,5.132 5.967,4.278 5.46,3.897 2.457,9.694 2.107,8.312 3.204,9.473 2.655,7.851 3.957,9.184 3.145,7.299 4.716,8.818 3.569,6.672 5.478,8.367 3.919,5.985 6.234,7.818 4.193,5.258 6.976,7.165 4.39,4.51 7.686,6.397 4.518,3.76 8.345,5.509 4.588,3.028 8.929,4.502 4.615,2.326 9.411,3.382 4.622,1.662 9.761,2.171 4.628,1.029 9.96,0.896 4.652,0.419 9.992,-0.405 4.703,-0.191 9.856,-1.692 4.78,-0.82 9.731,-2.305 9.731,-2.304 9.731,-2.304 1.311,-0.311 9.563,-2.923 3.751,-1.147 9.134,-4.07 3.858,-1.719 8.594,-5.113 3.946,-2.348 7.969,-6.041 3.992,-3.026 7.284,-6.851 3.977,-3.741 6.56,-7.548 3.884,-4.47 5.812,-8.138 3.708,-5.192 5.051,-8.631 3.443,-5.882 4.286,-9.035 3.093,-6.52 3.522,-9.359 2.664,-7.081 2.759,-9.612 2.168,-7.549 5.12,-4.185 6.09,-4.063 5.798,-4.9 5.45,-5.69 5.049,-6.426 4.595,-7.101 4.097,-7.707 3.556,-8.239 2.98,-8.689 2.374,-9.054 1.743,-9.33 1.096,-9.514 0.435,-9.604 -0.228,-9.598 -0.889,-9.498 -1.542,-9.302 -2.179,-9.016 -2.794,-8.64 -3.38,-8.179 -3.931,-7.639 -4.445,-7.023 1.288,-9.917 1.122,-8.632 0.454,-9.989 0.394,-8.676 -0.37,-9.993 -0.319,-8.604 -1.186,-9.93 -1.005,-8.417 -2.304,-9.731 -1.703,-7.191 -3.54,-9.352 -2.707,-7.15 -5.396,-8.419 -2.464,-3.846 -5.627,-8.267 -5.627,-8.266 -1.49,-2.19 -5.627,-8.267 -1.833,-2.694 -7.532,-6.578 -5.755,-5.025"
           inkscape:connector-curvature="0"
           style="fill:none;stroke:#484848;stroke-width:3;stroke-linecap:butt;stroke-linejoin:round;stroke-opacity:1" />
        <path
           id="path995"
           d="m 431.257,599.84 9.563,-2.927 4.872,-1.491 9.131,-4.077 4.959,-2.214 8.588,-5.123 5.016,-2.992 7.961,-6.051 5.02,-3.817 7.274,-6.862 4.95,-4.671 6.548,-7.558 4.793,-5.533 5.799,-8.147 4.54,-6.378 5.039,-8.638 4.189,-7.181 4.274,-9.04 3.744,-7.916 3.512,-9.363 3.211,-8.563 2.751,-9.614 2.604,-9.1"
           inkscape:connector-curvature="0"
           style="fill:none;stroke:#484848;stroke-width:3;stroke-linecap:butt;stroke-linejoin:round;stroke-opacity:1" />
        <path
           id="path997"
           d="m 570.779,466.62 -9.824,-1.872 -9.823,-1.871 -1.537,-0.293 5.567,-4.566 6.62,-4.436 6.306,-5.348 5.928,-6.21 5.491,-7.014 4.999,-7.75 4.457,-8.412 3.87,-8.992 3.243,-9.483 2.529,-9.675 0.054,-0.207 1.832,-9.831 0.065,-0.351 1.141,-9.935 0.051,-0.448 0.452,-9.989 0.022,-0.49 -0.237,-9.997 -0.011,-0.474 -0.931,-9.957 -0.037,-0.403 -1.633,-9.866 -0.046,-0.28 -2.345,-9.721 -0.026,-0.11 -3.04,-9.419 -3.678,-8.914 -4.278,-8.321 -4.835,-7.649"
           inkscape:connector-curvature="0"
           style="fill:none;stroke:#484848;stroke-width:3;stroke-linecap:butt;stroke-linejoin:round;stroke-opacity:1" />
        <path
           id="path999"
           d="m 599.774,303.223 -7.026,-7.116 -7.026,-7.115 -4.597,-4.656 1.284,-9.917 1.285,-9.917 0.052,-0.406 0.453,-9.989 0.453,-9.99 0.017,-0.384 -0.369,-9.994 -0.37,-9.993 -0.011,-0.297 -1.183,-9.93 -1.201,-10.075 -2.3,-9.731 -2.059,-8.71 -3.536,-9.353 -3.258,-8.618 -1.038,-1.62 -5.395,-8.419 -2.115,-3.301"
           inkscape:connector-curvature="0"
           style="fill:none;stroke:#484848;stroke-width:3;stroke-linecap:butt;stroke-linejoin:round;stroke-opacity:1" />
        <path
           id="path1001"
           d="m 548.547,142.089 -0.648,-9.979 -0.229,-3.535 -2.715,-9.624 -1.059,-3.752 -4.955,-8.687 -3.765,-6.6"
           inkscape:connector-curvature="0"
           style="fill:none;stroke:#484848;stroke-width:3;stroke-linecap:butt;stroke-linejoin:round;stroke-opacity:1" />
      </g>
    </g>
  </g>
  <g
     inkscape:groupmode="layer"
     id="layer2"
     inkscape:label="Layer 2">
    <g
       inkscape:label="View Layer_LineSet"
       id="View Layer_LineSet-5"
       transform="translate(-28.144,23.293)">
      <g
         inkscape:label="fills"
         inkscape:groupmode="layer"
         id="fills-3">
        <path
           id="path1098"
           fill_rule="evenodd"
           d="m 718.441,822.211 67.952,-0.711 v -94.532 l 93.263,-0.677 v -68.287 l -25.226,-8.459 -68.037,0.317 v -85.929 l -19.881,-3.018 -64.038,0.106 v 89.232 l -88.827,0.414 v 64.855 l 10.507,12.625 78.32,-0.569 v 76.567 z"
           inkscape:connector-curvature="0"
           style="fill:#aecce5;fill-opacity:1;stroke:none" />
        <path
           id="path1100"
           fill_rule="evenodd"
           d="m 956.563,553.213 -14.3,-19.574 -16.137,-18.074 -17.826,-16.4 -19.347,-14.567 -20.689,-12.593 -21.837,-10.494 -22.778,-8.29 -23.503,-6.003 -24.007,-3.653 -24.28,-1.261 -24.319,1.149 -24.124,3.553 -23.696,5.928 -14.072,3.53 -21.668,7.762 -20.834,9.875 -19.795,11.897 -18.56,13.807 -17.143,15.586 -15.553,17.214 -13.811,18.677 -11.929,19.959 -9.928,21.045 -7.828,21.925 -5.648,22.591 -3.412,23.034 -1.141,23.25 1.141,23.236 3.412,22.995 5.648,22.526 4.112,15.332 8.327,23.227 10.561,22.262 12.688,21.08 14.689,19.691 16.543,18.112 18.23,16.357 19.737,14.446 21.048,12.396 22.15,10.232 23.036,7.972 23.696,5.64 24.124,3.259 24.319,0.852 24.28,-1.557 24.006,-3.945 23.504,-6.289 22.778,-8.569 21.836,-10.76 20.689,-12.844 19.348,-14.803 17.826,-16.617 16.137,-18.271 14.3,-19.749 12.33,-21.038 10.246,-22.129 8.069,-23.01 5.816,-23.673 3.512,-24.114 1.174,-24.328 -1.174,-24.314 -3.512,-24.072 -5.816,-23.602 -8.069,-22.911 -10.246,-22.004 z M 702.87,528.18 l 16.279,-4.117 16.582,-2.487 12.842,-0.64 1.191,0.058 15.55,2.323 15.233,3.847 14.771,5.332 14.168,6.763 13.43,8.128 12.566,9.413 11.582,10.606 10.489,11.699 9.299,12.677 8.02,13.536 6.666,14.264 5.251,14.856 3.786,15.308 2.286,15.615 0.764,15.772 -0.764,15.782 -2.286,15.64 -3.786,15.352 -5.251,14.917 -6.666,14.34 -8.02,13.627 -9.299,12.784 -10.489,11.819 -11.583,10.74 -12.565,9.557 -13.43,8.282 -14.168,6.925 -14.771,5.501 -15.234,4.022 -15.55,2.502 -15.718,0.955 -15.734,-0.604 -15.6,-2.158 -15.313,-3.695 -14.879,-5.199 -14.3,-6.653 -13.58,-8.046 -12.729,-9.362 -11.752,-10.589 -10.659,-11.714 -8.859,-11.917 -6.577,-13.906 -5.7,-15.943 -4.112,-16.445 -2.483,-16.785 -0.831,-16.962 0.831,-16.972 2.483,-16.816 4.112,-16.496 5.7,-16.013 7.23,-15.374 8.689,-14.586 10.062,-13.656 11.335,-12.593 12.496,-11.409 13.535,-10.116 14.439,-8.725 15.203,-7.253 z"
           inkscape:connector-curvature="0"
           style="fill:#9bd4cd;fill-opacity:1;stroke:none" />
      </g>
      <g
         inkscape:label="strokes"
         inkscape:groupmode="layer"
         id="strokes-5">
        <path
           id="path1103"
           d="m 752.456,520.742 9.988,0.492 6.718,0.331 9.89,1.479 6.636,0.992 9.695,2.449 6.493,1.641 9.406,3.397 6.29,2.272 9.024,4.31 6.031,2.881 8.553,5.18 5.716,3.462 8.002,5.998 5.348,4.01 7.373,6.756 4.932,4.52 6.673,7.448 4.47,4.989 5.912,8.066 3.966,5.412 5.095,8.605 3.424,5.785 4.232,9.06 2.85,6.104 3.33,9.429 2.247,6.365 2.399,9.708 1.622,6.566 1.448,9.894 0.98,6.706 0.484,9.988 0.328,6.78 -0.483,9.989 -0.329,6.79 -1.444,9.895 -0.984,6.735 -2.392,9.709 -1.629,6.614 -3.317,9.434 -2.26,6.428 -4.212,9.07 -2.87,6.18 -5.067,8.621 -3.452,5.873 -5.877,8.091 -4.001,5.507 -6.632,7.484 -4.511,5.089 -7.328,6.805 -4.977,4.622 -7.954,6.061 -5.396,4.11 -8.507,5.256 -5.763,3.56 -8.98,4.399 -6.074,2.976 -9.368,3.498 -6.328,2.362 -9.667,2.561 -6.521,1.728 -9.872,1.596 -6.655,1.076 -9.981,0.613 -6.724,0.414 -9.993,-0.376 -6.732,-0.254 -9.906,-1.364 -6.676,-0.92 -9.722,-2.34 -6.557,-1.579 -9.442,-3.293 -6.376,-2.225 -9.068,-4.215 -6.135,-2.851 -8.605,-5.095 -5.834,-3.454 -8.057,-5.924 -5.478,-4.027 -7.43,-6.693 -5.066,-4.563 -6.731,-7.396 -4.604,-5.059 -5.967,-8.025 -4.095,-5.508 -5.145,-8.575 -3.544,-5.905 -0.653,-1.381 -4.276,-9.04 -2.301,-4.866 -3.366,-9.416 -2.334,-6.527 -2.425,-9.701 -1.687,-6.744 -1.463,-9.892 -1.02,-6.893 -0.49,-9.989 -0.341,-6.973 0.489,-9.988 0.342,-6.984 1.461,-9.893 1.022,-6.923 2.419,-9.703 1.693,-6.793 3.354,-9.421 2.346,-6.592 4.255,-9.049 2.975,-6.325 5.118,-8.591 3.571,-5.995 5.932,-8.051 4.13,-5.605 6.69,-7.433 4.645,-5.16 7.385,-6.743 5.111,-4.666 8.01,-5.987 5.525,-4.129 8.558,-5.172 5.881,-3.553 9.026,-4.306 6.177,-2.947 9.406,-3.396 6.412,-2.315 9.695,-2.452 6.584,-1.665 9.89,-1.483 6.692,-1.004 9.988,-0.498 2.854,-0.142 3.883,-0.194"
           inkscape:connector-curvature="0"
           style="fill:none;stroke:#484848;stroke-width:3;stroke-linecap:butt;stroke-linejoin:round;stroke-opacity:1" />
        <path
           id="path1105"
           d="m 956.563,553.213 -5.899,-8.074 -5.899,-8.075 -2.502,-3.425 -6.66,-7.46 -6.66,-7.459 -2.817,-3.155 -7.36,-6.771 -7.359,-6.77 -3.107,-2.859 -7.989,-6.015 -7.988,-6.015 -3.37,-2.537 -8.542,-5.199 -8.543,-5.199 -3.604,-2.195 -9.014,-4.331 -9.013,-4.332 -3.81,-1.831 -9.397,-3.42 -9.397,-3.42 -3.984,-1.45 -9.688,-2.475 -9.69,-2.475 -4.125,-1.053 -9.887,-1.504 -9.886,-1.505 -4.234,-0.644 -9.986,-0.518 -9.987,-0.519 -4.307,-0.224 -9.989,0.472 -9.988,0.472 -4.342,0.205 -9.893,1.457 -9.893,1.457 -4.338,0.639 -9.701,2.427 -9.701,2.427 -4.294,1.074 -9.699,2.433 -4.373,1.097 -9.414,3.372 -9.414,3.373 -2.84,1.017 -9.036,4.283 -9.037,4.283 -2.761,1.309 -8.571,5.151 -8.571,5.152 -2.653,1.594 -8.023,5.969 -8.024,5.968 -2.513,1.87 -7.399,6.727 -7.399,6.727 -2.345,2.132 -6.704,7.42 -6.704,7.419 -2.145,2.375 -5.946,8.041 -5.946,8.04 -1.919,2.596 -5.13,8.584 -5.131,8.583 -1.668,2.792 -4.267,9.044 -4.266,9.044 -1.395,2.957 -3.363,9.417 -3.362,9.418 -1.103,3.09 -2.425,9.701 -2.426,9.702 -0.797,3.188 -1.465,9.892 -1.465,9.892 -0.482,3.25 -0.49,9.988 -0.49,9.988 -0.161,3.274 0.491,9.988 0.49,9.987 0.16,3.261 1.468,9.892 1.468,9.892 0.476,3.211 2.432,9.7 2.432,9.7 0.784,3.126 2.591,9.659 1.521,5.673 3.375,9.413 3.375,9.413 1.577,4.401 4.286,9.035 4.286,9.035 1.989,4.192 5.157,8.568 5.157,8.567 2.374,3.945 5.98,8.015 5.979,8.016 2.73,3.66 6.744,7.384 6.744,7.384 3.055,3.344 7.443,6.678 7.443,6.679 3.344,3 8.07,5.906 8.069,5.906 3.598,2.634 8.616,5.075 8.617,5.075 3.815,2.246 9.078,4.194 9.078,4.193 3.994,1.845 9.451,3.27 9.45,3.271 4.135,1.431 9.729,2.315 9.728,2.316 4.239,1.009 9.91,1.338 9.91,1.339 4.304,0.582 9.994,0.35 9.994,0.35 4.331,0.152 9.98,-0.64 9.98,-0.64 4.32,-0.277 9.867,-1.622 9.868,-1.621 4.271,-0.702 9.66,-2.585 9.66,-2.585 4.184,-1.119 9.36,-3.521 9.359,-3.521 4.059,-1.527 8.97,-4.42 8.97,-4.42 3.896,-1.92 8.496,-5.274 8.496,-5.275 3.697,-2.295 7.942,-6.077 7.942,-6.076 3.464,-2.65 7.315,-6.819 7.314,-6.819 3.197,-2.979 6.62,-7.495 6.62,-7.495 2.897,-3.281 5.865,-8.1 5.865,-8.099 2.57,-3.55 5.056,-8.627 5.056,-8.628 2.218,-3.783 4.201,-9.075 4.202,-9.074 1.843,-3.98 3.309,-9.437 3.309,-9.437 1.451,-4.136 2.386,-9.711 2.386,-9.711 1.044,-4.251 1.441,-9.896 1.441,-9.895 0.63,-4.323 0.482,-9.988 0.482,-9.989 0.21,-4.351 -0.483,-9.989 -0.482,-9.988 -0.209,-4.337 -1.444,-9.896 -1.443,-9.895 -0.625,-4.281 -2.393,-9.709 -2.392,-9.71 -1.031,-4.183 -3.322,-9.432 -3.322,-9.432 -1.425,-4.047 -4.221,-9.066 -4.222,-9.065 -1.803,-3.873 -5.083,-8.612 -5.084,-8.612 -2.163,-3.665"
           inkscape:connector-curvature="0"
           style="fill:none;stroke:#484848;stroke-width:3;stroke-linecap:butt;stroke-linejoin:round;stroke-opacity:1" />
        <path
           id="path1107"
           d="m 679.72,452.934 -9.414,3.373 -9.414,3.372 -4.208,1.508 -9.036,4.284 -9.036,4.284 -4.078,1.933 -8.571,5.153 -8.57,5.152 -3.907,2.349 -8.023,5.969 -8.023,5.97 -3.691,2.747 -7.398,6.728 -7.398,6.728 -3.434,3.123 -6.704,7.421 -6.703,7.42 -3.136,3.472 -5.944,8.041 -5.945,8.042 -2.8,3.788 -5.129,8.584 -5.13,8.584 -2.429,4.066 -4.266,9.044 -4.266,9.045 -2.029,4.302 -3.362,9.418 -3.361,9.418 -1.604,4.493 -2.425,9.701 -2.425,9.702 -1.158,4.633 -1.465,9.892 -1.465,9.892 -0.7,4.724 -0.49,9.988 -0.49,9.988 -0.234,4.761 0.491,9.988 0.49,9.988 0.233,4.746 1.468,9.892 1.468,9.891 0.694,4.68 2.432,9.7 2.432,9.7 1.144,4.564"
           inkscape:connector-curvature="0"
           style="fill:none;stroke:#484848;stroke-width:3;stroke-linecap:butt;stroke-linejoin:round;stroke-opacity:1" />
        <path
           id="path1109"
           d="m 786.393,658.466 v -8.604 -10 -10 -10 -10 -10 -10 -10 -10 -5.929 l -9.887,-1.501 -9.994,-1.517 -10,0.017 -10,0.016 -10,0.017 -10,0.016 -10,0.017 -10,0.016 -4.038,0.007 v 10 10 10 10 10 10 10 10 9.232 l -10,0.046 -10,0.047 -10,0.046 -10,0.047 -9.999,0.047 -10,0.046 -10,0.047 -10,0.046 -8.828,0.042 v 10 10 10 10 10 10 4.855 l 6.397,7.686 4.11,4.939 10,-0.073 10,-0.072 9.999,-0.073 10,-0.073 10,-0.072 10,-0.073 9.999,-0.073 8.322,-0.06 10,-0.073 5.967,-0.043 v 10 10 10 10 10 10 10 10 10 4.749"
           inkscape:connector-curvature="0"
           style="fill:none;stroke:#484848;stroke-width:3;stroke-linecap:butt;stroke-linejoin:round;stroke-opacity:1" />
        <path
           id="path1111"
           d="m 702.474,727.578 v 10 10 10 10 10 10 10 6.567 l 6.622,7.493 6.623,7.493 2.722,3.08 9.999,-0.104 10,-0.105 9.999,-0.105 10,-0.104 9.999,-0.105 10,-0.104 7.955,-0.084 v -10 -10 -10 -10 -10 -10 -10 -10 -10 -4.532 l 10,-0.072 10,-0.073 9.999,-0.073 10,-0.072 10,-0.073 10,-0.073 9.999,-0.072 10,-0.073 10,-0.072 3.265,-0.024 v -10 -10 -10 -10 -10 -10 -8.287 l -9.481,-3.179 -9.481,-3.18 -6.264,-2.1 -10,0.046 -10,0.047 -10,0.047 -10,0.046 -9.999,0.047 -10,0.046 -8.038,0.038"
           inkscape:connector-curvature="0"
           style="fill:none;stroke:#484848;stroke-width:3;stroke-linecap:butt;stroke-linejoin:round;stroke-opacity:1" />
        <path
           id="path1113"
           d="m 718.441,658.802 -10,0.05 -10,0.049 -10,0.05 -9.999,0.049 -10,0.05 -10,0.049 -10,0.05 -10,0.049 -10,0.05 -4.288,0.021"
           inkscape:connector-curvature="0"
           style="fill:none;stroke:#484848;stroke-width:3;stroke-linecap:butt;stroke-linejoin:round;stroke-opacity:1" />
        <path
           id="path1115"
           d="m 613.647,650.667 7.737,6.334 2.77,2.268 v 10 10 10 10 10 10 8.878"
           inkscape:connector-curvature="0"
           style="fill:none;stroke:#484848;stroke-width:3;stroke-linecap:butt;stroke-linejoin:round;stroke-opacity:1" />
        <path
           id="path1117"
           d="m 879.656,658.004 -10,0.05 -10,0.049 -10,0.05 -10,0.049 -9.999,0.05 -10,0.049 -10,0.05 -10,0.049 -10,0.05 -3.264,0.016"
           inkscape:connector-curvature="0"
           style="fill:none;stroke:#484848;stroke-width:3;stroke-linecap:butt;stroke-linejoin:round;stroke-opacity:1" />
        <path
           id="path1119"
           d="m 718.441,564.052 v 10 10 10 10 10 10 10 10 10 4.75 l -8.816,-4.72 -7.151,-3.829"
           inkscape:connector-curvature="0"
           style="fill:none;stroke:#484848;stroke-width:3;stroke-linecap:butt;stroke-linejoin:round;stroke-opacity:1" />
        <path
           id="path1121"
           d="m 786.393,563.933 -10,0.018 -10,0.017 -10,0.018 -10,0.017 -10,0.018 -10,0.017 -7.952,0.014 -9.824,-1.865 -6.143,-1.166"
           inkscape:connector-curvature="0"
           style="fill:none;stroke:#484848;stroke-width:3;stroke-linecap:butt;stroke-linejoin:round;stroke-opacity:1" />
        <path
           id="path1123"
           d="m 748.573,520.936 1.191,0.058 9.89,1.478 5.66,0.845 9.695,2.449 5.538,1.398 9.406,3.396 5.365,1.936 9.024,4.308 5.144,2.455 8.555,5.177 4.875,2.951 8.003,5.995 4.563,3.418 7.374,6.753 4.208,3.853 6.676,7.446 3.813,4.253 5.915,8.063 3.384,4.614 5.097,8.604 2.923,4.932 4.234,9.059 2.432,5.205 3.333,9.428 1.918,5.428 2.401,9.708 1.385,5.6 1.449,9.895 0.837,5.72 0.484,9.988 0.28,5.784 -0.484,9.989 -0.28,5.793 -1.446,9.895 -0.84,5.745 -2.394,9.709 -1.392,5.643 -3.32,9.432 -1.931,5.485 -4.215,9.068 -2.451,5.272 -5.072,8.618 -2.948,5.009 -5.882,8.087 -3.417,4.697 -6.638,7.48 -3.851,4.339 -7.333,6.8 -4.25,3.94 -7.959,6.054 -4.606,3.503 -8.512,5.249 -4.918,3.033 -8.985,4.391 -5.183,2.534 -9.372,3.49 -5.399,2.011 -9.669,2.553 -5.565,1.469 -9.873,1.588 -5.677,0.914 -9.981,0.606 -5.737,0.349 -9.992,-0.384 -5.742,-0.22 -9.906,-1.371 -5.694,-0.787 -9.721,-2.346 -5.592,-1.349 -9.441,-3.299 -5.438,-1.9 -9.067,-4.218 -5.233,-2.435 -8.603,-5.097 -4.977,-2.949 -8.056,-5.925 -4.673,-3.437 -7.429,-6.694 -4.323,-3.895 -6.73,-7.396 -3.929,-4.318 -5.966,-8.025 -2.893,-3.892"
           inkscape:connector-curvature="0"
           style="fill:none;stroke:#484848;stroke-width:3;stroke-linecap:butt;stroke-linejoin:round;stroke-opacity:1" />
      </g>
    </g>
  </g>
</svg>
