<?xml version="1.0" encoding="UTF-8" standalone="no"?>
<svg
   xmlns:dc="http://purl.org/dc/elements/1.1/"
   xmlns:cc="http://creativecommons.org/ns#"
   xmlns:rdf="http://www.w3.org/1999/02/22-rdf-syntax-ns#"
   xmlns:svg="http://www.w3.org/2000/svg"
   xmlns="http://www.w3.org/2000/svg"
   xmlns:sodipodi="http://sodipodi.sourceforge.net/DTD/sodipodi-0.dtd"
   xmlns:inkscape="http://www.inkscape.org/namespaces/inkscape"
   height="1024"
   version="1.1"
   width="1024"
   id="svg43"
   sodipodi:docname="NewTask.svg"
   inkscape:version="0.92.4 5da689c313, 2019-01-14">
  <metadata
     id="metadata49">
    <rdf:RDF>
      <cc:Work
         rdf:about="">
        <dc:format>image/svg+xml</dc:format>
        <dc:type
           rdf:resource="http://purl.org/dc/dcmitype/StillImage" />
        <dc:title></dc:title>
      </cc:Work>
    </rdf:RDF>
  </metadata>
  <defs
     id="defs47" />
  <sodipodi:namedview
     pagecolor="#ffffff"
     bordercolor="#666666"
     borderopacity="1"
     objecttolerance="10"
     gridtolerance="10"
     guidetolerance="10"
     inkscape:pageopacity="0"
     inkscape:pageshadow="2"
     inkscape:window-width="3840"
     inkscape:window-height="2081"
     id="namedview45"
     showgrid="false"
     inkscape:zoom="1.3037281"
     inkscape:cx="482.92189"
     inkscape:cy="548.11045"
     inkscape:window-x="0"
     inkscape:window-y="0"
     inkscape:window-maximized="1"
     inkscape:current-layer="layer2" />
  <g
     id="View Layer_LineSet"
     inkscape:groupmode="lineset"
     inkscape:label="View Layer_LineSet">
    <g
       id="fills"
       inkscape:groupmode="layer"
       inkscape:label="fills">
      <path
         d=" M 534.390, 401.601 539.795, 401.829 544.033, 401.511 532.894, 407.793 506.940, 431.635 482.091, 460.568 456.804, 491.620 431.170, 524.538 405.234, 558.953 379.010, 594.496 352.006, 631.219 323.871, 669.035 294.334, 707.765 260.881, 744.557 224.525, 781.153 221.269, 784.645 220.294, 795.711 223.182, 796.426 222.582, 803.251 221.609, 814.319 218.341, 817.881 216.218, 820.460 215.238, 831.580 217.089, 832.099 216.384, 840.102 215.403, 851.232 218.287, 852.089 217.704, 858.718 626.432, 982.606 661.709, 921.080 697.242, 889.659 977.362, 391.376 980.525, 378.312 978.935, 353.420 974.710, 336.590 968.754, 320.081 963.594, 309.936 958.941, 301.757 953.634, 294.763 947.330, 289.946 940.283, 287.527 935.371, 287.042 537.447, 335.129 532.379, 337.155 527.716, 339.586 523.102, 344.199 520.028, 349.387 517.945, 354.793 515.850, 367.403 517.532, 379.660 521.190, 388.624 527.487, 396.970 534.390, 401.601  z"
         fill="rgb(204, 204, 204)"
         fill-opacity="1.0"
         fill_rule="evenodd"
         stroke="none"
         id="path2" />
    </g>
    <g
       id="strokes"
       inkscape:groupmode="layer"
       inkscape:label="strokes">
      <path
         d=" M 933.484, 353.650 931.470, 353.654 928.803, 350.996 926.310, 346.269 925.806, 344.587 924.478, 340.165 924.166, 332.954 925.848, 324.240 927.250, 319.139 929.300, 314.277 932.453, 309.919 935.886, 307.575 939.407, 305.561 "
         fill="none"
         stroke="rgb(72, 72, 72)"
         stroke-linecap="butt"
         stroke-linejoin="round"
         stroke-opacity="1.0"
         stroke-width="3.0"
         id="path5" />
      <path
         d=" M 972.885, 372.378 972.444, 362.388 972.146, 355.647 969.717, 345.946 968.749, 342.081 965.336, 332.682 964.210, 329.582 960.198, 321.912 956.570, 315.531 953.107, 310.957 948.735, 307.758 942.967, 305.944 939.407, 305.561 "
         fill="none"
         stroke="rgb(72, 72, 72)"
         stroke-linecap="butt"
         stroke-linejoin="round"
         stroke-opacity="1.0"
         stroke-width="3.0"
         id="path7" />
      <path
         d=" M 956.831, 359.826 948.321, 365.078 940.954, 369.623 937.496, 371.941 927.524, 372.691 917.552, 373.440 907.580, 374.189 897.608, 374.939 887.636, 375.688 877.664, 376.438 867.693, 377.187 857.721, 377.936 847.749, 378.686 837.777, 379.435 827.805, 380.185 817.833, 380.934 807.861, 381.683 797.889, 382.433 787.917, 383.182 777.946, 383.932 767.974, 384.681 758.002, 385.430 748.030, 386.180 738.058, 386.929 728.086, 387.679 718.114, 388.428 708.142, 389.177 698.171, 389.927 688.199, 390.676 678.227, 391.426 668.255, 392.175 658.283, 392.924 648.311, 393.674 638.339, 394.423 628.367, 395.173 618.396, 395.922 608.424, 396.672 598.452, 397.421 587.126, 398.272 579.068, 398.878 569.097, 399.627 565.830, 399.872 555.858, 400.622 545.886, 401.371 544.033, 401.511 539.795, 401.829 534.390, 401.601 527.487, 396.970 521.464, 388.987 521.190, 388.624 517.532, 379.660 516.173, 369.753 515.850, 367.403 517.489, 357.538 517.945, 354.793 520.028, 349.387 523.102, 344.199 527.716, 339.586 532.379, 337.155 537.447, 335.129 547.375, 333.929 557.302, 332.729 567.230, 331.529 577.158, 330.330 587.086, 329.130 597.013, 327.930 606.941, 326.731 616.869, 325.531 626.797, 324.331 636.725, 323.131 646.652, 321.932 656.580, 320.732 666.508, 319.532 676.436, 318.333 686.363, 317.133 696.291, 315.933 706.219, 314.733 716.147, 313.534 726.075, 312.334 736.002, 311.134 745.930, 309.935 755.858, 308.735 765.786, 307.535 775.713, 306.335 785.641, 305.136 795.569, 303.936 805.497, 302.736 815.424, 301.537 825.352, 300.337 835.280, 299.137 845.208, 297.937 855.136, 296.738 865.063, 295.538 874.991, 294.338 884.919, 293.139 894.847, 291.939 904.774, 290.739 914.702, 289.539 924.630, 288.340 935.371, 287.042 940.283, 287.527 947.330, 289.946 953.634, 294.763 958.941, 301.757 963.594, 309.936 968.128, 318.850 968.754, 320.081 972.148, 329.488 974.710, 336.590 977.145, 346.289 978.935, 353.420 979.572, 363.400 980.210, 373.380 980.525, 378.312 978.172, 388.031 977.362, 391.376 972.461, 400.093 967.561, 408.810 962.660, 417.527 957.760, 426.244 952.860, 434.961 947.959, 443.678 943.059, 452.395 938.158, 461.112 933.258, 469.829 928.357, 478.546 923.457, 487.263 918.557, 495.980 913.656, 504.697 908.756, 513.414 903.855, 522.131 898.955, 530.848 894.055, 539.565 889.154, 548.282 884.254, 556.999 879.353, 565.716 874.453, 574.432 869.552, 583.149 864.652, 591.866 859.752, 600.583 854.851, 609.300 849.951, 618.017 845.050, 626.734 840.150, 635.451 835.249, 644.168 830.349, 652.885 825.449, 661.602 820.548, 670.319 815.648, 679.036 810.747, 687.753 805.847, 696.470 800.946, 705.187 796.046, 713.904 791.146, 722.621 786.245, 731.338 781.345, 740.055 776.444, 748.772 771.544, 757.489 766.643, 766.206 761.743, 774.923 756.843, 783.640 751.942, 792.357 747.042, 801.074 742.141, 809.791 737.241, 818.508 732.340, 827.225 727.440, 835.942 722.540, 844.659 717.639, 853.376 712.739, 862.093 707.838, 870.810 702.938, 879.527 697.242, 889.659 689.751, 896.283 682.260, 902.907 674.768, 909.532 667.277, 916.156 661.709, 921.080 657.960, 924.395 662.930, 915.717 667.900, 907.040 672.871, 898.362 677.841, 889.685 682.811, 881.008 687.781, 872.330 692.751, 863.653 697.721, 854.975 702.692, 846.298 707.662, 837.621 712.632, 828.943 717.602, 820.266 722.572, 811.588 727.543, 802.911 732.513, 794.234 737.483, 785.556 742.453, 776.879 747.423, 768.201 752.393, 759.524 757.364, 750.847 762.334, 742.169 767.304, 733.492 772.274, 724.814 777.244, 716.137 782.215, 707.460 787.185, 698.782 792.155, 690.105 797.125, 681.427 802.095, 672.750 807.065, 664.073 812.036, 655.395 817.006, 646.718 821.976, 638.040 826.946, 629.363 831.916, 620.685 836.887, 612.008 841.857, 603.331 846.827, 594.653 851.797, 585.976 856.767, 577.298 861.737, 568.621 866.708, 559.944 871.678, 551.266 876.648, 542.589 881.618, 533.911 886.588, 525.234 891.558, 516.557 896.529, 507.879 901.499, 499.202 906.469, 490.524 911.439, 481.847 916.409, 473.170 921.380, 464.492 926.350, 455.815 931.320, 447.137 936.290, 438.460 941.260, 429.783 946.230, 421.105 951.201, 412.428 956.171, 403.750 961.141, 395.073 966.837, 385.128 969.641, 380.233 972.885, 372.378 962.912, 373.112 962.109, 373.171 "
         fill="none"
         stroke="rgb(72, 72, 72)"
         stroke-linecap="butt"
         stroke-linejoin="round"
         stroke-opacity="1.0"
         stroke-width="3.0"
         id="path9" />
      <path
         d=" M 966.837, 385.128 966.182, 383.471 964.636, 379.562 964.584, 379.430 963.086, 375.641 962.109, 373.171 961.530, 371.706 959.969, 367.759 958.402, 363.799 956.831, 359.826 954.229, 350.171 952.085, 342.212 942.125, 343.112 932.166, 344.013 925.806, 344.587 "
         fill="none"
         stroke="rgb(72, 72, 72)"
         stroke-linecap="butt"
         stroke-linejoin="round"
         stroke-opacity="1.0"
         stroke-width="3.0"
         id="path11" />
      <path
         d=" M 933.484, 353.650 935.990, 351.802 944.581, 346.683 952.085, 342.212 "
         fill="none"
         stroke="rgb(72, 72, 72)"
         stroke-linecap="butt"
         stroke-linejoin="round"
         stroke-opacity="1.0"
         stroke-width="3.0"
         id="path13" />
      <path
         d=" M 937.496, 371.941 932.601, 371.502 926.335, 365.408 921.659, 356.569 920.691, 354.739 920.605, 354.577 917.927, 345.300 917.269, 343.017 916.297, 333.065 915.734, 327.306 916.919, 317.376 917.646, 311.282 918.599, 307.864 919.546, 304.465 922.346, 297.973 926.544, 292.290 930.778, 289.397 935.371, 287.042 "
         fill="none"
         stroke="rgb(72, 72, 72)"
         stroke-linecap="butt"
         stroke-linejoin="round"
         stroke-opacity="1.0"
         stroke-width="3.0"
         id="path15" />
      <path
         d=" M 218.287, 852.089 217.704, 858.718 227.275, 861.619 236.845, 864.520 246.415, 867.420 255.985, 870.321 265.555, 873.222 275.125, 876.123 284.695, 879.023 294.265, 881.924 303.835, 884.825 313.405, 887.726 322.975, 890.626 332.545, 893.527 342.115, 896.428 351.685, 899.328 361.255, 902.229 370.825, 905.130 380.395, 908.031 389.965, 910.931 399.535, 913.832 409.105, 916.733 418.675, 919.634 428.246, 922.534 437.816, 925.435 447.386, 928.336 456.956, 931.236 466.526, 934.137 476.096, 937.038 485.666, 939.939 495.236, 942.839 504.806, 945.740 514.376, 948.641 523.946, 951.542 533.516, 954.442 543.086, 957.343 552.656, 960.244 562.226, 963.144 571.796, 966.045 581.366, 968.946 590.936, 971.847 600.506, 974.747 610.076, 977.648 619.646, 980.549 626.432, 982.606 631.406, 973.930 636.380, 965.255 641.354, 956.580 646.328, 947.905 651.302, 939.230 656.276, 930.554 661.250, 921.879 661.709, 921.080 663.720, 917.573 668.694, 908.897 673.668, 900.222 678.642, 891.547 683.616, 882.872 688.590, 874.197 693.564, 865.521 698.538, 856.846 698.916, 856.188 703.890, 847.513 708.864, 838.838 713.838, 830.162 718.812, 821.487 723.786, 812.812 728.760, 804.137 732.191, 798.153 737.165, 789.478 742.139, 780.803 747.113, 772.128 752.087, 763.453 757.061, 754.777 762.036, 746.102 763.699, 743.201 768.673, 734.526 773.647, 725.851 778.621, 717.176 783.595, 708.501 788.569, 699.826 793.576, 691.093 798.550, 682.418 803.524, 673.743 808.498, 665.068 813.472, 656.393 818.446, 647.717 821.947, 641.612 826.921, 632.936 831.895, 624.261 836.869, 615.586 841.843, 606.911 846.818, 598.236 849.184, 594.108 854.158, 585.433 859.132, 576.758 864.106, 568.083 869.080, 559.408 874.054, 550.732 875.402, 548.382 880.376, 539.706 885.350, 531.031 890.324, 522.356 895.299, 513.681 900.459, 504.681 905.433, 496.005 910.407, 487.330 915.381, 478.655 920.355, 469.980 924.244, 463.197 929.218, 454.522 934.192, 445.847 939.167, 437.172 944.141, 428.497 946.674, 424.078 951.648, 415.403 956.622, 406.728 961.596, 398.052 966.570, 389.377 967.723, 387.367 "
         fill="none"
         stroke="rgb(72, 72, 72)"
         stroke-linecap="butt"
         stroke-linejoin="round"
         stroke-opacity="1.0"
         stroke-width="3.0"
         id="path17" />
      <path
         d=" M 630.104, 881.788 633.455, 876.802 639.264, 868.662 645.072, 860.522 650.881, 852.382 656.689, 844.242 662.498, 836.102 668.307, 827.962 670.552, 824.815 676.035, 816.453 681.518, 808.090 687.001, 799.727 692.485, 791.364 697.968, 783.002 703.451, 774.639 704.195, 773.505 709.035, 764.754 713.874, 756.003 718.714, 747.253 723.554, 738.502 728.394, 729.751 733.514, 720.495 738.265, 711.696 743.015, 702.897 747.766, 694.097 752.517, 685.298 757.268, 676.498 761.113, 669.377 765.821, 660.555 770.530, 651.733 775.239, 642.911 779.947, 634.089 784.656, 625.267 787.305, 620.302 792.026, 611.487 796.747, 602.671 801.467, 593.855 806.188, 585.040 810.909, 576.224 812.467, 573.314 817.266, 564.540 822.064, 555.767 826.862, 546.993 831.661, 538.219 836.459, 529.446 837.092, 528.288 842.012, 519.582 846.932, 510.876 851.851, 502.170 856.771, 493.464 861.180, 485.661 866.268, 477.052 871.356, 468.444 876.444, 459.835 881.532, 451.226 884.700, 445.864 889.992, 437.379 895.283, 428.893 900.575, 420.408 905.866, 411.923 907.584, 409.168 913.799, 401.334 920.014, 393.500 926.229, 385.666 931.245, 379.343 939.196, 373.278 947.147, 367.213 955.098, 361.148 956.831, 359.826 "
         fill="none"
         stroke="rgb(72, 72, 72)"
         stroke-linecap="butt"
         stroke-linejoin="round"
         stroke-opacity="1.0"
         stroke-width="3.0"
         id="path19" />
      <path
         d=" M 544.033, 401.511 535.322, 406.423 532.894, 407.793 525.530, 414.558 518.165, 421.323 510.801, 428.089 506.940, 431.635 500.425, 439.221 493.910, 446.807 487.394, 454.394 482.091, 460.568 475.777, 468.322 469.462, 476.076 463.148, 483.830 456.804, 491.620 450.660, 499.510 444.516, 507.400 438.372, 515.290 432.228, 523.180 431.170, 524.538 425.151, 532.524 419.132, 540.510 413.114, 548.496 407.095, 556.483 405.234, 558.953 399.297, 567.000 393.360, 575.046 387.423, 583.093 381.486, 591.140 379.010, 594.496 373.086, 602.552 367.162, 610.608 361.238, 618.665 355.314, 626.721 352.006, 631.219 346.037, 639.242 340.068, 647.265 334.099, 655.288 328.130, 663.311 323.871, 669.035 317.807, 676.987 311.743, 684.938 305.679, 692.890 299.615, 700.841 294.334, 707.765 287.607, 715.164 280.880, 722.563 274.152, 729.962 267.425, 737.360 260.881, 744.557 253.833, 751.651 246.786, 758.746 239.738, 765.840 232.690, 772.934 225.642, 780.029 224.525, 781.153 221.269, 784.645 220.391, 794.607 220.294, 795.711 223.182, 796.426 232.890, 798.828 242.597, 801.230 252.304, 803.632 258.543, 805.176 260.149, 805.574 266.233, 807.079 275.940, 809.481 285.647, 811.884 295.354, 814.286 305.062, 816.688 314.769, 819.090 324.476, 821.492 334.183, 823.894 343.890, 826.297 353.598, 828.699 363.305, 831.101 373.012, 833.503 382.719, 835.905 392.426, 838.307 402.134, 840.710 411.841, 843.112 421.548, 845.514 431.255, 847.916 440.962, 850.318 450.670, 852.721 460.377, 855.123 470.084, 857.525 479.791, 859.927 489.498, 862.329 499.206, 864.731 508.913, 867.134 518.620, 869.536 528.327, 871.938 538.034, 874.340 547.741, 876.742 557.449, 879.144 567.156, 881.547 576.863, 883.949 586.570, 886.351 596.277, 888.753 605.985, 891.155 615.692, 893.557 625.399, 895.960 629.101, 896.876 632.457, 891.847 "
         fill="none"
         stroke="rgb(72, 72, 72)"
         stroke-linecap="butt"
         stroke-linejoin="round"
         stroke-opacity="1.0"
         stroke-width="3.0"
         id="path21" />
      <path
         d=" M 625.070, 957.461 629.931, 958.857 633.306, 953.634 638.204, 944.916 643.103, 936.198 648.001, 927.480 650.784, 922.527 655.683, 913.808 660.581, 905.090 665.479, 896.372 668.182, 891.563 673.258, 882.947 678.335, 874.332 683.411, 865.716 688.488, 857.100 693.565, 848.485 698.641, 839.869 702.722, 832.943 707.361, 824.084 712.000, 815.225 716.640, 806.366 721.279, 797.508 725.918, 788.649 730.557, 779.790 732.569, 775.948 "
         fill="none"
         stroke="rgb(72, 72, 72)"
         stroke-linecap="butt"
         stroke-linejoin="round"
         stroke-opacity="1.0"
         stroke-width="3.0"
         id="path23" />
      <path
         d=" M 626.080, 942.279 629.451, 937.120 634.758, 928.644 640.065, 920.168 640.297, 919.797 645.604, 911.321 650.911, 902.845 656.218, 894.369 661.524, 885.893 666.657, 877.695 671.836, 869.141 677.015, 860.586 682.194, 852.032 687.373, 843.477 692.552, 834.923 697.730, 826.369 701.184, 820.664 706.107, 811.961 711.031, 803.257 715.955, 794.553 720.879, 785.849 725.803, 777.145 730.726, 768.442 732.758, 764.850 728.141, 773.720 723.523, 782.590 718.906, 791.460 714.288, 800.331 709.671, 809.201 705.053, 818.071 703.477, 821.099 698.330, 829.673 693.183, 838.247 688.037, 846.821 682.890, 855.395 677.743, 863.969 672.597, 872.543 669.159, 878.270 664.147, 886.923 659.136, 895.577 654.125, 904.231 649.114, 912.885 644.480, 920.885 639.469, 929.539 634.458, 938.193 634.310, 938.448 630.941, 943.627 "
         fill="none"
         stroke="rgb(72, 72, 72)"
         stroke-linecap="butt"
         stroke-linejoin="round"
         stroke-opacity="1.0"
         stroke-width="3.0"
         id="path25" />
      <path
         d=" M 223.182, 796.426 222.582, 803.251 221.706, 813.213 221.609, 814.319 218.341, 817.881 216.218, 820.460 215.340, 830.421 215.238, 831.580 217.089, 832.099 226.718, 834.795 234.967, 837.104 244.597, 839.800 254.226, 842.497 263.856, 845.193 273.486, 847.889 283.115, 850.585 292.745, 853.281 302.375, 855.977 312.004, 858.673 321.634, 861.370 331.264, 864.066 340.893, 866.762 350.523, 869.458 360.153, 872.154 369.782, 874.850 379.412, 877.547 389.042, 880.243 398.671, 882.939 408.301, 885.635 417.931, 888.331 427.560, 891.027 437.190, 893.724 446.820, 896.420 456.449, 899.116 466.079, 901.812 475.709, 904.508 485.339, 907.204 494.968, 909.901 504.598, 912.597 514.228, 915.293 523.857, 917.989 533.487, 920.685 543.117, 923.381 552.746, 926.078 562.376, 928.774 572.006, 931.470 581.635, 934.166 591.265, 936.862 600.895, 939.558 610.524, 942.254 623.927, 946.007 626.080, 942.279 630.941, 943.627 630.604, 948.706 629.943, 958.685 629.931, 958.857 "
         fill="none"
         stroke="rgb(72, 72, 72)"
         stroke-linecap="butt"
         stroke-linejoin="round"
         stroke-opacity="1.0"
         stroke-width="3.0"
         id="path27" />
      <path
         d=" M 217.089, 832.099 216.384, 840.102 215.506, 850.063 215.403, 851.232 218.287, 852.089 222.095, 853.220 231.681, 856.069 241.267, 858.917 250.853, 861.766 260.438, 864.614 270.024, 867.463 279.610, 870.311 289.196, 873.160 298.781, 876.008 308.367, 878.857 317.953, 881.705 327.538, 884.554 337.124, 887.402 346.710, 890.251 356.296, 893.099 365.881, 895.948 375.467, 898.796 385.053, 901.644 394.639, 904.493 404.224, 907.341 413.810, 910.190 423.396, 913.038 432.981, 915.887 442.567, 918.735 452.153, 921.584 461.739, 924.432 471.324, 927.281 480.910, 930.129 490.496, 932.978 500.082, 935.826 509.667, 938.675 519.253, 941.523 528.839, 944.372 538.424, 947.220 548.010, 950.069 557.596, 952.917 567.182, 955.765 576.767, 958.614 586.353, 961.462 595.939, 964.311 605.525, 967.159 615.110, 970.008 624.058, 972.667 627.440, 967.420 626.778, 977.398 626.432, 982.606 "
         fill="none"
         stroke="rgb(72, 72, 72)"
         stroke-linecap="butt"
         stroke-linejoin="round"
         stroke-opacity="1.0"
         stroke-width="3.0"
         id="path29" />
      <path
         d=" M 632.457, 891.847 631.794, 901.825 631.456, 906.914 630.794, 916.892 630.766, 917.315 630.455, 922.005 "
         fill="none"
         stroke="rgb(72, 72, 72)"
         stroke-linecap="butt"
         stroke-linejoin="round"
         stroke-opacity="1.0"
         stroke-width="3.0"
         id="path31" />
      <path
         d=" M 221.269, 784.645 230.998, 786.957 240.727, 789.269 250.456, 791.580 260.185, 793.892 266.370, 795.362 276.099, 797.673 285.828, 799.985 295.557, 802.297 305.286, 804.608 315.015, 806.920 324.744, 809.232 334.473, 811.544 344.203, 813.855 353.932, 816.167 363.661, 818.479 373.390, 820.791 383.119, 823.102 392.848, 825.414 402.577, 827.726 412.306, 830.037 422.036, 832.349 431.765, 834.661 441.494, 836.973 451.223, 839.284 460.952, 841.596 470.681, 843.908 480.410, 846.219 490.139, 848.531 499.869, 850.843 509.598, 853.155 519.327, 855.466 529.056, 857.778 538.785, 860.090 548.514, 862.402 558.243, 864.713 567.972, 867.025 577.702, 869.337 587.431, 871.648 597.160, 873.960 606.889, 876.272 616.618, 878.584 626.347, 880.895 630.104, 881.788 629.483, 891.122 629.101, 896.876 "
         fill="none"
         stroke="rgb(72, 72, 72)"
         stroke-linecap="butt"
         stroke-linejoin="round"
         stroke-opacity="1.0"
         stroke-width="3.0"
         id="path33" />
      <path
         d=" M 221.609, 814.319 231.279, 816.866 240.949, 819.413 250.619, 821.960 260.290, 824.507 269.960, 827.054 279.630, 829.601 289.300, 832.148 298.970, 834.695 308.641, 837.242 318.311, 839.789 327.981, 842.336 337.651, 844.883 347.321, 847.431 356.992, 849.978 366.662, 852.525 376.332, 855.072 386.002, 857.619 395.672, 860.166 405.343, 862.713 415.013, 865.260 424.683, 867.807 434.353, 870.354 444.023, 872.901 453.693, 875.448 463.364, 877.995 473.034, 880.542 482.704, 883.089 492.374, 885.636 502.044, 888.183 511.715, 890.730 521.385, 893.277 531.055, 895.824 540.725, 898.371 550.395, 900.918 560.066, 903.466 569.736, 906.013 579.406, 908.560 589.076, 911.107 598.746, 913.654 608.417, 916.201 618.087, 918.748 630.455, 922.005 627.088, 927.121 624.939, 930.819 "
         fill="none"
         stroke="rgb(72, 72, 72)"
         stroke-linecap="butt"
         stroke-linejoin="round"
         stroke-opacity="1.0"
         stroke-width="3.0"
         id="path35" />
      <path
         d=" M 624.058, 972.667 624.465, 966.548 625.070, 957.461 "
         fill="none"
         stroke="rgb(72, 72, 72)"
         stroke-linecap="butt"
         stroke-linejoin="round"
         stroke-opacity="1.0"
         stroke-width="3.0"
         id="path37" />
      <path
         d=" M 216.218, 820.460 225.873, 823.067 235.527, 825.674 245.181, 828.280 254.835, 830.887 264.490, 833.494 274.144, 836.101 283.798, 838.707 293.453, 841.314 303.107, 843.921 312.761, 846.528 322.415, 849.134 332.070, 851.741 341.724, 854.348 351.378, 856.955 361.032, 859.561 370.687, 862.168 380.341, 864.775 389.995, 867.382 399.649, 869.988 409.304, 872.595 418.958, 875.202 428.612, 877.809 438.267, 880.415 447.921, 883.022 457.575, 885.629 467.229, 888.236 476.884, 890.842 486.538, 893.449 496.192, 896.056 505.846, 898.663 515.501, 901.269 525.155, 903.876 534.809, 906.483 544.463, 909.090 554.118, 911.696 563.772, 914.303 573.426, 916.910 583.081, 919.517 592.735, 922.123 602.389, 924.730 612.043, 927.337 624.939, 930.819 624.274, 940.797 624.210, 941.761 623.927, 946.007 "
         fill="none"
         stroke="rgb(72, 72, 72)"
         stroke-linecap="butt"
         stroke-linejoin="round"
         stroke-opacity="1.0"
         stroke-width="3.0"
         id="path39" />
    </g>
  </g>
  <g
     inkscape:groupmode="layer"
     id="layer1"
     inkscape:label="Layer 1">
    <g
       inkscape:label="View Layer_LineSet"
       id="View Layer_LineSet-3"
       transform="translate(-1.8601815,8.9185797)"
       style="fill:#969696;fill-opacity:1">
      <g
         inkscape:label="fills"
         inkscape:groupmode="layer"
         id="fills-6"
         style="fill:#969696;fill-opacity:1">
        <path
           id="path1829"
           fill_rule="evenodd"
           d="m 745.093,507.044 6.187,-9.979 -7.436,-14.188 -267.898,4.672 -6.456,8.382 -6.514,8.457 7.813,11.915 268.05,0.826 z"
           inkscape:connector-curvature="0"
           style="fill:#969696;fill-opacity:1;stroke:none" />
        <path
           id="path1831"
           fill_rule="evenodd"
           d="m 834.266,430.192 5.829,-8.828 -6.739,-14.389 -296.608,17.704 -6.243,7.394 -6.3,7.462 7.271,11.915 296.897,-12.333 z"
           inkscape:connector-curvature="0"
           style="fill:#969696;fill-opacity:1;stroke:none" />
      </g>
      <g
         inkscape:label="strokes"
         inkscape:groupmode="layer"
         id="strokes-7"
         style="fill:#969696;fill-opacity:1">
        <path
           id="path1834"
           d="m 834.266,430.192 5.509,-8.345 0.32,-0.483 -4.241,-9.056 -2.498,-5.333 -9.982,0.595 -9.982,0.596 -9.983,0.596 -9.982,0.596 -9.982,0.596 -9.982,0.596 -9.983,0.595 -9.982,0.596 -9.982,0.596 -9.982,0.596 -9.982,0.596 -9.983,0.596 -9.982,0.595 -9.982,0.596 -9.982,0.596 -9.983,0.596 -9.982,0.596 -9.982,0.596 -9.982,0.595 -9.983,0.596 -9.982,0.596 -9.982,0.596 -9.982,0.596 -9.983,0.596 -9.982,0.595 -9.982,0.596 -9.982,0.596 -9.982,0.596 -9.983,0.596 -7.123,0.425 -6.243,7.394 -6.3,7.462 5.209,8.536 2.062,3.379 9.992,-0.416 9.991,-0.415 9.991,-0.415 9.992,-0.415 9.991,-0.415 9.991,-0.415 9.992,-0.415 9.991,-0.415 9.992,-0.415 9.991,-0.415 9.991,-0.415 9.992,-0.415 9.991,-0.415 9.992,-0.415 9.991,-0.415 9.991,-0.415 9.992,-0.415 9.991,-0.415 9.991,-0.415 9.992,-0.415 9.991,-0.415 9.992,-0.415 9.991,-0.415 9.991,-0.415 9.992,-0.415 9.991,-0.415 9.992,-0.415 9.991,-0.415 9.991,-0.415 7.147,-0.297 5.51,-8.345 0.383,-0.58"
           inkscape:connector-curvature="0"
           style="fill:#969696;stroke:#484848;stroke-width:3;stroke-linecap:butt;stroke-linejoin:round;stroke-opacity:1;fill-opacity:1" />
        <path
           id="path1836"
           d="m 745.093,507.044 5.269,-8.499 0.918,-1.48 -4.642,-8.857 -2.794,-5.331 -9.998,0.175 -9.999,0.174 -9.998,0.174 -9.999,0.175 -9.998,0.174 -9.999,0.174 -9.998,0.175 -9.999,0.174 -9.998,0.174 -9.999,0.175 -9.998,0.174 -9.999,0.174 -9.998,0.175 -9.999,0.174 -9.998,0.175 -9.998,0.174 -9.999,0.174 -9.998,0.175 -9.999,0.174 -9.998,0.174 -9.999,0.175 -9.998,0.174 -9.999,0.174 -9.998,0.175 -9.999,0.174 -9.998,0.175 -7.938,0.138 -6.102,7.922 -0.354,0.46 -6.102,7.922 -0.412,0.535 5.484,8.363 2.329,3.552 10,0.031 10,0.031 10,0.03 10,0.031 10,0.031 10,0.031 10,0.031 10,0.03 10,0.031 10,0.031 10,0.031 10,0.031 10,0.031 10,0.03 10,0.031 10,0.031 10,0.031 10,0.031 9.999,0.03 10,0.031 10,0.031 10,0.031 10,0.031 10,0.03 10,0.031 10,0.031 8.051,0.025 5.27,-8.499 0.984,-1.586"
           inkscape:connector-curvature="0"
           style="fill:#969696;stroke:#484848;stroke-width:3;stroke-linecap:butt;stroke-linejoin:round;stroke-opacity:1;fill-opacity:1" />
        <path
           id="path1838"
           d="m 821.487,424.682 5.567,-8.306 0.4,-0.596 5.567,-8.306 0.335,-0.499"
           inkscape:connector-curvature="0"
           style="fill:#969696;stroke:#484848;stroke-width:3;stroke-linecap:butt;stroke-linejoin:round;stroke-opacity:1;fill-opacity:1" />
        <path
           id="path1840"
           d="m 524.205,439.535 9.987,-0.499 9.988,-0.499 9.987,-0.499 9.988,-0.499 9.987,-0.499 9.988,-0.499 9.987,-0.499 9.988,-0.499 9.987,-0.499 9.988,-0.499 9.988,-0.499 9.987,-0.499 9.988,-0.499 9.987,-0.499 9.988,-0.499 9.987,-0.499 9.988,-0.499 9.987,-0.499 9.988,-0.499 9.987,-0.499 9.988,-0.499 9.988,-0.499 9.987,-0.499 9.988,-0.499 9.987,-0.499 9.988,-0.499 9.987,-0.499 9.988,-0.499 9.987,-0.499 7.644,-0.382 4.305,9.026 2.581,5.409"
           inkscape:connector-curvature="0"
           style="fill:#969696;stroke:#484848;stroke-width:3;stroke-linecap:butt;stroke-linejoin:round;stroke-opacity:1;fill-opacity:1" />
        <path
           id="path1842"
           d="m 731.244,502.918 5.322,-8.466 1.011,-1.608 5.323,-8.466 0.944,-1.501"
           inkscape:connector-curvature="0"
           style="fill:#969696;stroke:#484848;stroke-width:3;stroke-linecap:butt;stroke-linejoin:round;stroke-opacity:1;fill-opacity:1" />
        <path
           id="path1844"
           d="m 462.976,504.388 10,-0.055 10,-0.054 10,-0.055 10,-0.055 10,-0.055 9.999,-0.055 10,-0.054 10,-0.055 10,-0.055 10,-0.055 10,-0.055 10,-0.054 9.999,-0.055 10,-0.055 10,-0.055 10,-0.055 10,-0.054 10,-0.055 9.999,-0.055 10,-0.055 10,-0.055 10,-0.054 10,-0.055 10,-0.055 10,-0.055 9.999,-0.055 8.272,-0.045 4.714,8.819 2.881,5.392"
           inkscape:connector-curvature="0"
           style="fill:#969696;stroke:#484848;stroke-width:3;stroke-linecap:butt;stroke-linejoin:round;stroke-opacity:1;fill-opacity:1" />
      </g>
    </g>
  </g>
  <g
     inkscape:groupmode="layer"
     id="layer2"
     inkscape:label="Layer 2">
    <g
       inkscape:label="View Layer_LineSet"
       id="View Layer_LineSet-9"
       transform="translate(11.201818,9.7375797)">
      <g
         inkscape:label="fills"
         inkscape:groupmode="layer"
         id="fills-36">
        <path
           id="path2726"
           fill_rule="evenodd"
           d="m 747.17,480.428 -1.045,-1.265 -6.487,-0.353 -13.291,-1.516 -0.722,12.685 0.448,8.679 -0.207,3.485 2.231,-3.813 6.88,-1.416 3.241,-0.668 3.073,-12.329 0.917,-0.544 4.962,-2.945 13.308,35.392 -34.612,-13.677 z"
           inkscape:connector-curvature="0"
           style="fill:#cccccc;fill-opacity:1;stroke:none" />
      </g>
      <g
         inkscape:label="strokes"
         inkscape:groupmode="layer"
         id="strokes-06">
        <path
           id="path2729"
           d="m 739.638,478.81 -9.936,-1.133 -3.355,-0.383 -0.569,9.984 -0.153,2.701 0.448,8.679 -0.207,3.485 2.231,-3.813 6.88,-1.416 3.241,-0.668 2.419,-9.703 0.654,-2.626 0.917,-0.544 4.962,-2.945 -1.045,-1.265 -6.487,-0.353"
           inkscape:connector-curvature="0"
           style="fill:none;stroke:#484848;stroke-width:3;stroke-linecap:butt;stroke-linejoin:round;stroke-opacity:1" />
        <path
           id="path2731"
           d="m 725.866,502.143 9.3,3.675 9.3,3.675 9.3,3.675 6.712,2.652 -3.52,-9.36 -3.519,-9.36 -3.52,-9.36 -2.749,-7.312"
           inkscape:connector-curvature="0"
           style="fill:#969696;stroke:#484848;stroke-width:3;stroke-linecap:butt;stroke-linejoin:round;stroke-opacity:1;fill-opacity:1" />
        <path
           id="path2733"
           d="m 725.625,489.979 8.032,5.956 1.32,0.979"
           inkscape:connector-curvature="0"
           style="fill:none;stroke:#484848;stroke-width:3;stroke-linecap:butt;stroke-linejoin:round;stroke-opacity:1" />
        <path
           id="path2735"
           d="m 742.208,483.373 -2.57,-4.563"
           inkscape:connector-curvature="0"
           style="fill:none;stroke:#484848;stroke-width:3;stroke-linecap:butt;stroke-linejoin:round;stroke-opacity:1" />
      </g>
    </g>
    <g
       inkscape:label="View Layer_LineSet"
       id="View Layer_LineSet-5"
       transform="translate(9.4394292,8.1997047)"
       style="fill:#ffb900;fill-opacity:1">
      <g
         inkscape:label="fills"
         inkscape:groupmode="layer"
         id="fills-3"
         style="fill:#ffb900;fill-opacity:1">
        <path
           id="path2358"
           fill_rule="evenodd"
           d="m 488.462,177.735 -3.51,-8.861 z"
           inkscape:connector-curvature="0"
           style="fill:#ffb900;fill-opacity:1;stroke:none" />
        <path
           id="path2360"
           fill_rule="evenodd"
           d="M 450.683,187.521 Z"
           inkscape:connector-curvature="0"
           style="fill:#ffb900;fill-opacity:1;stroke:none" />
        <path
           id="path2362"
           fill_rule="evenodd"
           d="M 484.952,168.874 Z"
           inkscape:connector-curvature="0"
           style="fill:#ffb900;fill-opacity:1;stroke:none" />
        <path
           id="path2364"
           fill_rule="evenodd"
           d="M 470.438,172.788 Z"
           inkscape:connector-curvature="0"
           style="fill:#ffb900;fill-opacity:1;stroke:none" />
        <path
           id="path2366"
           fill_rule="evenodd"
           d="m 450.683,187.521 v 0 l -17.83,20.033 -9.551,18.201 2.448,9.656 239.296,238.676 60.82,28.056 14.11439,-4.35913 L 747.17,480.428 723.658,426.311 717.03,414.885 484.952,168.874 v 0 l -14.514,3.914 -19.755,14.733 -17.83,20.033 -9.551,18.201 2.448,9.656 v 0 0 l 14.033,-2.954 17.789,-12.945 2.732,-1.988 z m 9.621,30.003 0.274,-0.308 18.51,-20.81 9.374,-18.67 v -10e-4 z m -4.938,-15.398 23.722,-5.72 -18.51,20.81 z m 23.722,-5.72 9.374,-18.671 v 0 z"
           inkscape:connector-curvature="0"
           style="fill:#ffb900;fill-opacity:1;stroke:none"
           sodipodi:nodetypes="cccccccccccccccccccccccccccccccccccccc" />
      </g>
      <g
         inkscape:label="strokes"
         inkscape:groupmode="layer"
         id="strokes-5"
         style="fill:#ffb900;fill-opacity:1">
        <path
           id="path2369"
           d="m 425.75,235.411 7.081,7.062 7.08,7.062 7.08,7.062 7.08,7.062 7.08,7.062 7.081,7.062 7.08,7.061 7.08,7.062 7.08,7.062 7.081,7.062 7.08,7.062 7.08,7.062 7.08,7.062 7.081,7.062 7.08,7.062 7.08,7.062 7.08,7.061 7.08,7.062 7.081,7.062 7.08,7.062 7.08,7.062 7.08,7.062 7.081,7.062 7.08,7.062 7.08,7.062 7.08,7.062 7.08,7.061 7.081,7.062 7.08,7.062 7.08,7.062 7.08,7.062 7.081,7.062 7.08,7.062 5.648,5.633 9.08,4.189 9.081,4.189 9.08,4.189 9.081,4.188 9.08,4.189 9.081,4.189 6.337,2.923 3.99339,-2.27513 6.88,-1.416 3.241,-0.668 0.60358,-3.76555 1.18759,-3.82951 1.28183,-4.73393 0.917,-0.544 3.19961,-4.48288 -3.985,-9.171 -3.985,-9.172 -3.984,-9.172 -3.985,-9.172 -3.985,-9.172 -3.588,-8.258 -5.018,-8.65 -1.61,-2.776 -6.862,-7.274 -6.863,-7.274 -6.862,-7.274 -6.862,-7.274 -6.862,-7.274 -6.862,-7.274 -6.862,-7.274 -6.862,-7.274 -6.862,-7.274 -6.862,-7.274 -6.862,-7.275 -6.862,-7.274 -6.862,-7.274 -6.862,-7.274 -6.862,-7.274 -6.862,-7.274 -6.863,-7.274 -6.862,-7.274 -6.862,-7.274 -6.862,-7.274 -6.862,-7.274 -6.862,-7.274 -6.862,-7.274 -6.862,-7.274 -6.862,-7.274 -6.862,-7.275 -6.862,-7.274 -6.862,-7.274 -6.862,-7.274 -6.862,-7.274 -6.863,-7.274 -6.862,-7.274 -6.862,-7.274 -5.629,-5.967"
           inkscape:connector-curvature="0"
           style="fill:#ffb900;fill-opacity:1;stroke:#484848;stroke-width:3;stroke-linecap:butt;stroke-linejoin:round;stroke-opacity:1"
           sodipodi:nodetypes="cccccccccccccccccccccccccccccccccccccccccccccccccccccccccccccccccccccccccccccccccccccccccccc" />
        <path
           id="path2371"
           d="m 460.578,217.216 6.646,-7.472 6.646,-7.472 5.218,-5.866 4.487,-8.937 4.487,-8.937 0.4,-0.796 v -10e-4"
           inkscape:connector-curvature="0"
           style="fill:#ffb900;stroke:#484848;stroke-width:3;stroke-linecap:butt;stroke-linejoin:round;stroke-opacity:1;fill-opacity:1" />
        <path
           id="path2373"
           d="m 425.75,235.411 v 0 l 9.786,-2.06 4.247,-0.894 8.086,-5.884 8.086,-5.884 1.617,-1.177 2.732,-1.988"
           inkscape:connector-curvature="0"
           style="fill:#ffb900;stroke:#484848;stroke-width:3;stroke-linecap:butt;stroke-linejoin:round;stroke-opacity:1;fill-opacity:1" />
        <path
           id="path2375"
           d="m 450.683,187.521 v 0 l -6.648,7.47 -6.649,7.47 -4.533,5.093 -4.646,8.855 -4.647,8.855 -0.258,0.491"
           inkscape:connector-curvature="0"
           style="fill:#ffb900;stroke:#484848;stroke-width:3;stroke-linecap:butt;stroke-linejoin:round;stroke-opacity:1;fill-opacity:1" />
        <path
           id="path2377"
           d="m 470.438,172.788 v 0"
           inkscape:connector-curvature="0"
           style="fill:#ffb900;stroke:#484848;stroke-width:3;stroke-linecap:butt;stroke-linejoin:round;stroke-opacity:1;fill-opacity:1" />
        <path
           id="path2379"
           d="m 425.75,235.411 v 0 l 9.786,-2.06 4.247,-0.894 8.086,-5.884 8.086,-5.884 1.617,-1.177 2.732,-1.988"
           inkscape:connector-curvature="0"
           style="fill:#ffb900;stroke:#484848;stroke-width:3;stroke-linecap:butt;stroke-linejoin:round;stroke-opacity:1;fill-opacity:1" />
        <path
           id="path2381"
           d="m 455.366,202.126 8.05,-5.933 8.05,-5.932 8.051,-5.933 8.05,-5.933 0.895,-0.66 v 0 l -3.51,-8.861 v 0"
           inkscape:connector-curvature="0"
           style="fill:#ffb900;stroke:#484848;stroke-width:3;stroke-linecap:butt;stroke-linejoin:round;stroke-opacity:1;fill-opacity:1" />
        <path
           id="path2383"
           d="m 470.438,172.788 9.655,-2.604 4.859,-1.31 v 0 l -6.647,7.471 -6.647,7.471 -6.648,7.47 -6.647,7.471 -2.997,3.369"
           inkscape:connector-curvature="0"
           style="fill:#ffb900;stroke:#484848;stroke-width:3;stroke-linecap:butt;stroke-linejoin:round;stroke-opacity:1;fill-opacity:1" />
        <path
           id="path2385"
           d="m 479.088,196.406 -6.646,7.472 -6.646,7.472 -5.218,5.866 -0.274,0.308"
           inkscape:connector-curvature="0"
           style="fill:#ffb900;stroke:#484848;stroke-width:3;stroke-linecap:butt;stroke-linejoin:round;stroke-opacity:1;fill-opacity:1" />
        <path
           id="path2387"
           d="m 455.366,202.126 9.722,-2.344 9.721,-2.344 4.279,-1.032 4.487,-8.937 4.487,-8.937 0.4,-0.797 v 0"
           inkscape:connector-curvature="0"
           style="fill:#ffb900;stroke:#484848;stroke-width:3;stroke-linecap:butt;stroke-linejoin:round;stroke-opacity:1;fill-opacity:1" />
        <path
           id="path2389"
           d="m 450.683,187.521 8.016,-5.978 8.017,-5.978 3.722,-2.777 v 0 l -4.569,8.895 -4.57,8.895 -4.57,8.895 -1.363,2.653"
           inkscape:connector-curvature="0"
           style="fill:#ffb900;stroke:#484848;stroke-width:3;stroke-linecap:butt;stroke-linejoin:round;stroke-opacity:1;fill-opacity:1" />
        <path
           id="path2391"
           d="m 432.853,207.554 6.648,-7.47 6.649,-7.47 4.533,-5.093 v 0 l 3.053,9.522 1.63,5.083 -6.647,7.471 -6.647,7.47 -6.648,7.471 -6.647,7.471 -3.027,3.402 v 0 l -2.448,-9.656"
           inkscape:connector-curvature="0"
           style="fill:#ffb900;stroke:#484848;stroke-width:3;stroke-linecap:butt;stroke-linejoin:round;stroke-opacity:1;fill-opacity:1" />
        <path
           id="path2393"
           d="m 423.302,225.755 4.647,-8.855 4.646,-8.855 0.258,-0.491"
           inkscape:connector-curvature="0"
           style="fill:#ffb900;stroke:#484848;stroke-width:3;stroke-linecap:butt;stroke-linejoin:round;stroke-opacity:1;fill-opacity:1" />
        <path
           id="path2395"
           d="m 488.462,177.735 -3.51,-8.861"
           inkscape:connector-curvature="0"
           style="fill:#ffb900;stroke:#484848;stroke-width:3;stroke-linecap:butt;stroke-linejoin:round;stroke-opacity:1;fill-opacity:1" />
      </g>
    </g>
  </g>
  <g
     inkscape:groupmode="layer"
     id="layer3"
     inkscape:label="Layer 3">
    <g
       inkscape:label="View Layer_LineSet"
       id="View Layer_LineSet-6"
       transform="translate(13.923914,12.880992)">
      <g
         inkscape:label="fills"
         inkscape:groupmode="layer"
         id="fills-2">
        <path
           id="path2489"
           fill_rule="evenodd"
           d="m 403.549,95.135 -1.955,-6.916 -12.159,4.79 -17.513,14.294 -16.471,18.458 -9.527,16.014 1.089,7.626 11.713,-4.016 18.104,-14.523 17.281,-19.376 z"
           inkscape:connector-curvature="0"
           style="fill:#cccccc;fill-opacity:1;stroke:none" />
        <path
           id="path2491"
           fill_rule="evenodd"
           d="m 483.915,195.242 11.198,-22.408 -4.332,-10.512 -79.582,-84.87 -16.545,6.656 -23.548,19.274 -22.092,24.756 -12.9,21.577 1.273,10.476 82.521,81.786 16.741,-3.419 24.66,-17.899 z"
           inkscape:connector-curvature="0"
           style="fill:#cccccc;fill-opacity:1;stroke:none" />
      </g>
      <g
         inkscape:label="strokes"
         inkscape:groupmode="layer"
         id="strokes-9">
        <path
           id="path2494"
           d="m 483.915,195.242 4.471,-8.945 4.47,-8.946 2.257,-4.517 -3.81,-9.246 -0.522,-1.266 -6.84,-7.294 -6.84,-7.295 -6.84,-7.295 -6.84,-7.294 -6.841,-7.295 -6.84,-7.295 -6.84,-7.294 -6.84,-7.295 -6.84,-7.295 -6.841,-7.294 -6.84,-7.295 -4.34,-4.629 -9.278,3.732 -7.267,2.924 -7.738,6.334 -7.739,6.334 -7.738,6.334 -0.333,0.272 -6.659,7.462 -6.658,7.461 -6.658,7.461 -2.117,2.372 -5.131,8.583 -5.132,8.583 -2.637,4.411 1.206,9.927 0.067,0.549 7.102,7.039 7.103,7.039 7.103,7.04 7.102,7.039 7.103,7.04 7.103,7.039 7.102,7.039 7.103,7.04 7.102,7.039 7.103,7.039 7.103,7.04 4.392,4.353 9.798,-2.001 6.943,-1.418 8.093,-5.874 8.092,-5.874 8.093,-5.874 0.382,-0.277 6.646,-7.472 6.646,-7.473 6.646,-7.472 2.668,-3"
           inkscape:connector-curvature="0"
           style="fill:none;stroke:#484848;stroke-width:3;stroke-linecap:butt;stroke-linejoin:round;stroke-opacity:1" />
        <path
           id="path2496"
           d="m 337.387,160.191 9.488,-3.16 6.242,-2.079 7.81,-6.245 7.81,-6.245 7.81,-6.245 1.198,-0.959 6.656,-7.463 6.656,-7.463 6.656,-7.463 3.607,-4.045 4.977,-8.673 4.978,-8.674 2.78,-4.846 -2.856,-9.179"
           inkscape:connector-curvature="0"
           style="fill:none;stroke:#484848;stroke-width:3;stroke-linecap:butt;stroke-linejoin:round;stroke-opacity:1" />
        <path
           id="path2498"
           d="m 403.549,95.135 -1.955,-6.916 -9.304,3.665 -2.855,1.125 -7.747,6.323 -7.747,6.323 -2.019,1.648 -6.658,7.461 -6.658,7.461 -3.155,3.536 -5.113,8.594 -4.414,7.42 1.089,7.626 9.459,-3.243 2.254,-0.773 7.8,-6.257 7.8,-6.258 2.504,-2.008 6.656,-7.463 6.656,-7.463 3.969,-4.45 4.999,-8.661 4.439,-7.69"
           inkscape:connector-curvature="0"
           style="fill:none;stroke:#484848;stroke-width:3;stroke-linecap:butt;stroke-linejoin:round;stroke-opacity:1" />
      </g>
    </g>
  </g>
  <g
     inkscape:groupmode="layer"
     id="layer4"
     inkscape:label="Layer 4">
    <g
       inkscape:label="View Layer_LineSet"
       id="View Layer_LineSet-1"
       transform="translate(13.923914,12.880992)"
       style="fill:#b1785f;fill-opacity:1">
      <g
         inkscape:label="fills"
         inkscape:groupmode="layer"
         id="fills-27"
         style="fill:#b1785f;fill-opacity:1">
        <path
           id="path2644"
           fill_rule="evenodd"
           d="m 358.726,145.385 -11.713,4.016 -31.118,-31.138 -3.215,-10.806 -0.515,-6.22 2.03,-9.406 6.58,-10.42 11.043,-12.36 11.463,-9.777 7.628,-3.518 10.204,-2.523 10.188,2.986 30.293,32 1.955,6.916 -9.438,16.351 -17.281,19.376 z"
           inkscape:connector-curvature="0"
           style="fill:#b1785f;fill-opacity:1;stroke:none" />
      </g>
      <g
         inkscape:label="strokes"
         inkscape:groupmode="layer"
         id="strokes-0"
         style="fill:#b1785f;fill-opacity:1">
        <path
           id="path2647"
           d="m 401.594,88.219 1.955,6.916 -4.999,8.661 -4.439,7.69 -6.656,7.463 -6.656,7.463 -3.969,4.45 -7.801,6.258 -7.8,6.257 -2.503,2.008 -9.46,3.243 -2.253,0.773"
           inkscape:connector-curvature="0"
           style="fill:#b1785f;stroke:#484848;stroke-width:3;stroke-linecap:butt;stroke-linejoin:round;stroke-opacity:1;fill-opacity:1" />
        <path
           id="path2649"
           d="m 401.594,88.219 -6.875,-7.262 -6.874,-7.262 -6.875,-7.262 -6.875,-7.263 -2.794,-2.951 -9.596,-2.813 -0.592,-0.173 -9.707,2.4 -0.497,0.123 -7.628,3.518 -7.608,6.489 -3.855,3.288 -6.662,7.457 -4.381,4.903 -5.339,8.455 -1.241,1.965 -2.03,9.406 0.515,6.22 2.851,9.585 0.364,1.221 7.068,7.073 7.069,7.074 7.069,7.073 7.069,7.073 2.843,2.845"
           inkscape:connector-curvature="0"
           style="fill:#b1785f;stroke:#484848;stroke-width:3;stroke-linecap:butt;stroke-linejoin:round;stroke-opacity:1;fill-opacity:1" />
      </g>
    </g>
  </g>
</svg>
