<?xml version="1.0" encoding="UTF-8" standalone="no"?>
<svg
   xmlns:dc="http://purl.org/dc/elements/1.1/"
   xmlns:cc="http://creativecommons.org/ns#"
   xmlns:rdf="http://www.w3.org/1999/02/22-rdf-syntax-ns#"
   xmlns:svg="http://www.w3.org/2000/svg"
   xmlns="http://www.w3.org/2000/svg"
   xmlns:sodipodi="http://sodipodi.sourceforge.net/DTD/sodipodi-0.dtd"
   xmlns:inkscape="http://www.inkscape.org/namespaces/inkscape"
   height="1024"
   version="1.1"
   width="1024"
   id="svg29"
   sodipodi:docname="OpenCustomer.svg"
   inkscape:version="0.92.4 5da689c313, 2019-01-14">
  <metadata
     id="metadata35">
    <rdf:RDF>
      <cc:Work
         rdf:about="">
        <dc:format>image/svg+xml</dc:format>
        <dc:type
           rdf:resource="http://purl.org/dc/dcmitype/StillImage" />
        <dc:title></dc:title>
      </cc:Work>
    </rdf:RDF>
  </metadata>
  <defs
     id="defs33" />
  <sodipodi:namedview
     pagecolor="#ffffff"
     bordercolor="#666666"
     borderopacity="1"
     objecttolerance="10"
     gridtolerance="10"
     guidetolerance="10"
     inkscape:pageopacity="0"
     inkscape:pageshadow="2"
     inkscape:window-width="1993"
     inkscape:window-height="1354"
     id="namedview31"
     showgrid="false"
     inkscape:zoom="0.921875"
     inkscape:cx="515.25424"
     inkscape:cy="488.13559"
     inkscape:window-x="1393"
     inkscape:window-y="553"
     inkscape:window-maximized="0"
     inkscape:current-layer="strokes-7" />
  <g
     inkscape:groupmode="layer"
     id="layer1"
     inkscape:label="Layer 1">
    <g
       inkscape:label="View Layer_LineSet"
       id="View Layer_LineSet-3">
      <g
         inkscape:label="fills"
         inkscape:groupmode="layer"
         id="fills-6">
        <path
           id="path934"
           fill_rule="evenodd"
           d="M 765.242,361.067 753.747,346.348 738.034,328.29 727.081,316.078 714.11,303.03 l -14.42,-13.291 -15.208,-12.918 -15.288,-11.945 -14.663,-10.428 -13.382,-8.463 -21.377,-13.462 -15.598,-8.312 -12.278,-4.79 -36.641,-13.348 -38.559,-10.373 -11.599,-1.301 -5.231,4.153 0.836,9.007 6.394,13.148 11.317,16.532 15.547,19.165 19.066,21.083 21.89,22.329 24.038,22.951 25.531,22.987 26.385,22.462 26.599,21.392 26.158,19.775 25.031,17.602 23.177,14.858 20.547,11.531 17.098,7.62 12.806,3.153 7.684,-1.798 1.813,-7.103 -4.647,-12.557 -15.852,-35.981 -18.468,-33.547 z"
           inkscape:connector-curvature="0"
           style="fill:#cccccc;fill-opacity:1;stroke:none" />
        <path
           id="path936"
           fill_rule="evenodd"
           d="m 802.724,315.248 100.952,-43.443 5.948,-3.204 5.211,-4.151 4.268,-4.935 3.158,-5.526 1.923,-5.897 0.615,-6.037 -0.626,-15.53 -0.729,-6.063 -2.055,-5.721 -3.296,-5.159 -4.403,-4.4 -5.335,-3.474 -6.057,-2.421 -6.545,-1.281 -3.359,-0.201 -6.615,0.098 -6.64,1.184 -6.327,2.192 -94.889,41.886 -5.691,3.104 -3.718,2.885 -0.214,0.173 -1.183,0.919 -3.727,3.035 -4.236,4.899 -3.187,5.488 -2.021,5.871 -0.774,6.036 0.505,5.972 1.768,5.684 4.482,13.767 2.909,5.08 3.98,4.392 4.902,3.532 5.64,2.531 6.163,1.428 6.45,0.264 6.486,-0.915 z"
           inkscape:connector-curvature="0"
           style="fill:#ffe100;fill-opacity:1;stroke:none" />
        <path
           id="path938"
           fill_rule="evenodd"
           d="m 688.69,195.84 23.71,-90.835 0.843,-5.49 -0.341,-5.381 -1.508,-5.061 -5.339,-17.801 -2.662,-4.621 -3.681,-3.915 -4.554,-3.062 -5.248,-2.096 -2.884,-0.907 -5.263,-1.013 -5.539,0.069 -5.594,1.142 -5.43,2.161 -5.064,3.091 -4.517,3.899 -3.813,4.567 -2.978,5.074 -1.996,5.312 -23.086,85.305 -1.69,6.754 -0.94,5.668 0.245,5.598 1.424,5.317 7.184,15.28 2.51,4.748 3.526,4.094 4.412,3.279 5.131,2.333 5.657,1.294 5.964,0.199 6.04,-0.908 5.88,-1.983 5.488,-2.983 4.881,-3.868 4.079,-4.602 3.119,-5.154 z"
           inkscape:connector-curvature="0"
           style="fill:#ffe100;fill-opacity:1;stroke:none" />
        <path
           id="path940"
           fill_rule="evenodd"
           d="m 774.667,226.9 67.121,-78.462 3.579,-5.066 2.463,-5.489 1.253,-5.697 -0.005,-5.68 -2.357,-17.629 -1.284,-5.544 -2.51,-5.081 -3.634,-4.422 -4.611,-3.596 -5.408,-2.635 -2.991,-1.033 -5.604,-1.332 -5.975,-0.239 -6.116,0.852 -6.03,1.899 -5.728,2.87 -5.228,3.739 -4.465,4.402 -63.171,73.846 -3.534,4.948 -3.309,5.381 -2.543,5.547 -1.369,5.786 -0.14,5.808 1.098,5.61 5.302,15.273 2.255,5.105 3.35,4.509 4.32,3.739 5.131,2.822 5.746,1.79 6.141,0.684 6.3,-0.453 6.213,-1.576 5.88,-2.642 5.317,-3.606 z"
           inkscape:connector-curvature="0"
           style="fill:#ffe100;fill-opacity:1;stroke:none" />
      </g>
      <g
         inkscape:label="strokes"
         inkscape:groupmode="layer"
         id="strokes-7">
        <path
           id="path943"
           d="m 774.667,226.9 6.501,-7.599 6.5,-7.599 6.501,-7.599 6.5,-7.599 6.501,-7.599 6.5,-7.599 6.501,-7.599 6.5,-7.599 6.501,-7.599 6.5,-7.599 2.116,-2.472 3.579,-5.066 2.463,-5.489 1.253,-5.697 -0.005,-5.68 -1.325,-9.912 -1.032,-7.717 -1.284,-5.544 -2.51,-5.081 -3.634,-4.422 -4.611,-3.596 -5.408,-2.635 -2.991,-1.033 -5.604,-1.332 -5.975,-0.239 -6.116,0.852 -6.03,1.899 -5.728,2.87 -5.228,3.739 -4.465,4.402 -6.5,7.599 -6.501,7.599 -6.5,7.598 -6.501,7.599 -6.5,7.599 -6.501,7.599 -6.5,7.599 -6.501,7.599 -6.5,7.599 -4.667,5.456 -3.534,4.948 -3.309,5.381 -2.543,5.547 -1.369,5.786 -0.14,5.808 1.098,5.61 3.28,9.447 2.022,5.826 2.255,5.105 3.35,4.509 4.32,3.739 5.131,2.822 5.746,1.79 6.141,0.684 6.3,-0.453 6.213,-1.576 5.88,-2.642 5.317,-3.606 4.543,-4.428"
           inkscape:connector-curvature="0"
           style="fill:none;stroke:#484848;stroke-width:3;stroke-linecap:butt;stroke-linejoin:round;stroke-opacity:1" />
        <path
           id="path945"
           d="m 812.508,89.633 -4.993,0.937 -4.991,1.82 -4.799,2.631 -4.427,3.342 -3.888,3.926 -6.5,7.599 -6.501,7.599 -6.5,7.599 -6.501,7.599 -6.5,7.599 -6.501,7.599 -6.5,7.599 -6.501,7.599 -6.492,7.589 -3.209,4.37 -2.415,4.656 -1.531,4.768 -0.585,4.698 0.384,4.45 1.341,4.033 2.25,3.461 3.076,2.753 3.787,1.937 4.354,1.044 4.754,0.107 4.972,-0.836 4.996,-1.75 4.826,-2.598 4.466,-3.345 3.932,-3.963 6.501,-7.598 6.5,-7.599 6.501,-7.599 6.5,-7.599 6.501,-7.599 6.5,-7.599 6.501,-7.599 6.5,-7.599 6.501,-7.599 0.71,-0.831 3.237,-4.416 2.407,-4.691 1.486,-4.78 0.507,-4.683 -0.488,-4.405 -1.463,-3.955 -2.378,-3.354 -3.197,-2.627 -3.891,-1.799 -4.434,-0.908 -4.805,0.017"
           inkscape:connector-curvature="0"
           style="fill:none;stroke:#484848;stroke-width:3;stroke-linecap:butt;stroke-linejoin:round;stroke-opacity:1" />
        <path
           id="path947"
           d="m 826.283,86.566 5.005,2.383 4.202,3.345 3.227,4.175 2.128,4.84 0.953,5.315 -0.249,5.591 -1.434,5.66 -2.561,5.527 -3.554,5.093 -6.5,7.599 -6.501,7.599 -6.501,7.599 -6.5,7.599 -6.501,7.599 -6.5,7.599 -6.501,7.599 -6.5,7.599 -6.501,7.599 -5.675,6.634 -4.549,4.379 -5.308,3.671 -5.786,2.78 -6.054,1.778 -6.098,0.7 -5.912,-0.417 -5.494,-1.526 -4.857,-2.579 -4.027,-3.527 -3.041,-4.327 -1.947,-4.948 -0.795,-5.369 0.373,-5.585 1.513,-5.595 2.594,-5.404"
           inkscape:connector-curvature="0"
           style="fill:none;stroke:#484848;stroke-width:3;stroke-linecap:butt;stroke-linejoin:round;stroke-opacity:1" />
        <path
           id="path949"
           d="m 714.169,205.683 2.299,5.199 3.418,4.589 4.411,3.8 5.241,2.861 5.87,1.807 6.277,0.678 6.44,-0.483 6.351,-1.63 6.014,-2.715 5.438,-3.696 4.648,-4.535"
           inkscape:connector-curvature="0"
           style="fill:none;stroke:#484848;stroke-width:3;stroke-linecap:butt;stroke-linejoin:round;stroke-opacity:1" />
        <path
           id="path951"
           d="m 839.255,131.274 3.663,-5.18 2.521,-5.609 1.284,-5.815 -0.002,-5.793"
           inkscape:connector-curvature="0"
           style="fill:none;stroke:#484848;stroke-width:3;stroke-linecap:butt;stroke-linejoin:round;stroke-opacity:1" />
        <path
           id="path953"
           d="m 688.69,195.84 2.526,-9.676 2.526,-9.676 2.525,-9.675 2.526,-9.676 2.526,-9.676 2.525,-9.676 2.526,-9.676 2.525,-9.675 2.526,-9.676 0.979,-3.753 0.843,-5.49 -0.341,-5.381 -1.508,-5.061 -2.873,-9.579 -2.466,-8.222 -2.662,-4.621 -3.681,-3.915 -4.554,-3.062 -5.248,-2.096 -2.884,-0.907 -5.263,-1.013 -5.539,0.069 -5.594,1.142 -5.43,2.161 -5.064,3.091 -4.517,3.899 -3.813,4.567 -2.978,5.074 -1.996,5.312 -2.612,9.653 -2.613,9.653 -2.612,9.652 -2.612,9.653 -2.613,9.653 -2.612,9.653 -2.612,9.652 -2.612,9.653 -2.188,8.083 -1.69,6.754 -0.94,5.668 0.245,5.598 1.424,5.317 4.255,9.05 2.929,6.23 2.51,4.748 3.526,4.094 4.412,3.279 5.131,2.333 5.657,1.294 5.964,0.199 6.04,-0.908 5.88,-1.983 5.488,-2.983 4.881,-3.868 4.079,-4.602 3.119,-5.154 2.034,-5.504"
           inkscape:connector-curvature="0"
           style="fill:none;stroke:#484848;stroke-width:3;stroke-linecap:butt;stroke-linejoin:round;stroke-opacity:1" />
        <path
           id="path955"
           d="m 666.093,62.876 -4.025,2.72 -3.624,3.428 -3.085,4.005 -2.431,4.433 -1.684,4.692 -2.607,9.655 -2.606,9.654 -2.607,9.654 -2.607,9.655 -2.606,9.654 -2.607,9.654 -2.606,9.655 -2.607,9.654 -0.461,1.708 -0.897,4.885 -0.045,4.799 0.811,4.531 1.639,4.09 2.407,3.491 3.085,2.755 3.646,1.91 4.07,0.989 4.335,0.026 4.434,-0.94 4.359,-1.873 4.115,-2.733 3.708,-3.489 3.156,-4.107 2.481,-4.564 1.71,-4.844 2.554,-9.668 2.553,-9.668 2.554,-9.669 2.554,-9.668 2.554,-9.669 2.553,-9.668 2.554,-9.669 2.554,-9.668 0.655,-2.481 0.848,-4.821 -0.015,-4.706 -0.876,-4.409 -1.7,-3.94 -2.456,-3.322 -3.114,-2.578 -3.651,-1.738 -4.046,-0.835 -4.287,0.098 -4.363,1.024 -4.276,1.908"
           inkscape:connector-curvature="0"
           style="fill:none;stroke:#484848;stroke-width:3;stroke-linecap:butt;stroke-linejoin:round;stroke-opacity:1" />
        <path
           id="path957"
           d="m 687.026,56.671 4.778,2.056 4.108,3.019 3.284,3.863 2.344,4.561 1.323,5.092 0.259,5.443 -0.825,5.496 -2.543,9.671 -2.544,9.671 -2.544,9.671 -2.544,9.671 -2.544,9.671 -2.543,9.671 -2.544,9.671 -2.544,9.672 -2.414,9.178 -2.058,5.432 -3.077,5.175 -3.932,4.653 -4.648,3.952 -5.198,3.092 -5.555,2.103 -5.696,1.02 -5.609,-0.109 -5.296,-1.233 -4.77,-2.3 -4.062,-3.262 -3.206,-4.081 -2.243,-4.736 -1.212,-5.205 -0.144,-5.483 0.919,-5.488"
           inkscape:connector-curvature="0"
           style="fill:none;stroke:#484848;stroke-width:3;stroke-linecap:butt;stroke-linejoin:round;stroke-opacity:1" />
        <path
           id="path959"
           d="m 622.785,189.615 2.556,4.832 3.594,4.161 4.499,3.328 5.236,2.361 5.774,1.3 6.089,0.183 6.169,-0.947 6.007,-2.042 5.608,-3.061 4.989,-3.961 4.172,-4.707 3.191,-5.267 2.084,-5.618"
           inkscape:connector-curvature="0"
           style="fill:none;stroke:#484848;stroke-width:3;stroke-linecap:butt;stroke-linejoin:round;stroke-opacity:1" />
        <path
           id="path961"
           d="m 707.066,87.501 0.867,-5.597 -0.343,-5.481 -1.535,-5.151"
           inkscape:connector-curvature="0"
           style="fill:none;stroke:#484848;stroke-width:3;stroke-linecap:butt;stroke-linejoin:round;stroke-opacity:1" />
        <path
           id="path963"
           d="m 768.3,249.327 0.214,-0.173 3.718,-2.885 -3.692,2.871 -0.24,0.187 -1.183,0.919 -3.727,3.035 -4.236,4.899 -3.187,5.488 -2.021,5.871 -0.774,6.036 0.505,5.972 1.768,5.684 3.096,9.509 1.386,4.258 2.909,5.08 3.98,4.392 4.902,3.532 5.64,2.531 6.163,1.428 6.45,0.264 6.486,-0.915 6.267,-2.062 9.186,-3.953 9.185,-3.953 9.186,-3.953 9.185,-3.953 9.186,-3.953 9.186,-3.952 9.185,-3.953 9.186,-3.953 9.185,-3.953 9.186,-3.953 9.096,-3.914 5.948,-3.204 5.211,-4.151 4.268,-4.935 3.158,-5.526 1.923,-5.897 0.615,-6.037 -0.403,-9.992 -0.223,-5.538 -0.729,-6.063 -2.055,-5.721 -3.296,-5.159 -4.403,-4.4 -5.335,-3.474 -6.057,-2.421 -6.545,-1.281 -3.359,-0.201 -6.615,0.098 -6.64,1.184 -6.327,2.192 -9.148,4.039 -9.149,4.038 -9.148,4.038 -9.149,4.039 -9.148,4.038 -9.148,4.038 -9.149,4.038 -9.148,4.039 -9.148,4.038 -9.149,4.038 -3.405,1.503 -5.691,3.104"
           inkscape:connector-curvature="0"
           style="fill:none;stroke:#484848;stroke-width:3;stroke-linecap:butt;stroke-linejoin:round;stroke-opacity:1" />
        <path
           id="path965"
           d="m 892.394,197.805 6.354,0.997 5.856,2.067 5.13,3.073 4.194,3.972 3.079,4.72 1.83,5.28 0.506,5.629 -0.834,5.75 -2.13,5.649 -3.335,5.337 -4.404,4.831 -5.304,4.156 -5.922,3.255 -9.176,3.975 -9.176,3.975 -9.176,3.976 -9.176,3.975 -9.176,3.975 -9.175,3.976 -9.176,3.975 -9.176,3.975 -9.176,3.976 -9.176,3.975 -4.806,2.082 -6.268,2.037 -6.532,1.002 -6.451,-0.074 -6.135,-1.155 -5.592,-2.202 -4.836,-3.174 -3.89,-4.032 -2.79,-4.736 -1.582,-5.249 -0.317,-5.553 0.946,-5.637 2.16,-5.506 3.28,-5.173 4.009,-4.367 0.151,-0.164 0.115,-0.127"
           inkscape:connector-curvature="0"
           style="fill:none;stroke:#484848;stroke-width:3;stroke-linecap:butt;stroke-linejoin:round;stroke-opacity:1" />
        <path
           id="path967"
           d="m 898.802,204.852 -4.908,-1.45 -5.393,-0.583 -5.67,0.304 -5.729,1.177 -5.573,2.001 -9.15,4.034 -9.15,4.034 -9.151,4.034 -9.15,4.033 -9.15,4.034 -9.151,4.034 -9.15,4.034 -9.15,4.033 -9.151,4.034 -5.534,2.44 -5.092,2.694 -4.555,3.337 -3.849,3.855 -2.997,4.228 -2.032,4.44 -0.988,4.485 0.094,4.362 1.175,4.071 2.215,3.627 3.174,3.041 4.015,2.337 4.704,1.542 5.216,0.682 5.527,-0.206 5.623,-1.089 5.503,-1.933 9.171,-3.986 9.172,-3.985 9.171,-3.985 9.172,-3.985 9.172,-3.985 9.171,-3.986 9.172,-3.985 9.171,-3.985 9.172,-3.985 6.538,-2.841 5.281,-2.759 4.714,-3.423 3.962,-3.955 3.054,-4.33 2.026,-4.537 0.921,-4.566 -0.219,-4.416 -1.346,-4.094 -2.419,-3.615 -3.394,-2.997 -4.235,-2.266"
           inkscape:connector-curvature="0"
           style="fill:none;stroke:#484848;stroke-width:3;stroke-linecap:butt;stroke-linejoin:round;stroke-opacity:1" />
        <path
           id="path969"
           d="m 902.54,256.977 6.091,-3.291 5.336,-4.256 4.372,-5.055 3.233,-5.654 1.97,-6.029 0.631,-6.167"
           inkscape:connector-curvature="0"
           style="fill:none;stroke:#484848;stroke-width:3;stroke-linecap:butt;stroke-linejoin:round;stroke-opacity:1" />
        <path
           id="path971"
           d="m 755.445,287.231 2.971,5.178 4.066,4.472 5.01,3.592 5.766,2.568 6.303,1.44 6.597,0.251 6.635,-0.953 6.413,-2.125"
           inkscape:connector-curvature="0"
           style="fill:none;stroke:#484848;stroke-width:3;stroke-linecap:butt;stroke-linejoin:round;stroke-opacity:1" />
        <path
           id="path973"
           d="m 765.242,361.067 -6.155,-7.881 -5.34,-6.838 -6.565,-7.544 -6.564,-7.544 -2.584,-2.97 -6.677,-7.444 -4.276,-4.768 -7.051,-7.092 -5.92,-5.956 -7.353,-6.777 -7.067,-6.514 -7.622,-6.474 -7.586,-6.444 -7.88,-6.157 -7.408,-5.788 -8.149,-5.795 -6.514,-4.633 -8.452,-5.345 -4.93,-3.118 -8.462,-5.329 -8.462,-5.328 -4.453,-2.805 -8.826,-4.703 -6.772,-3.609 -9.316,-3.634 -2.962,-1.156 -9.396,-3.423 -9.396,-3.422 -9.396,-3.423 -8.453,-3.08 -9.656,-2.598 -9.657,-2.598 -9.657,-2.598 -9.589,-2.579 -9.938,-1.115 -1.661,-0.186 -5.231,4.153 0.836,9.007 4.374,8.993 2.02,4.155 5.649,8.251 5.668,8.281 6.3,7.766 6.3,7.766 2.947,3.633 6.707,7.417 6.708,7.417 5.651,6.249 7.001,7.141 7,7.141 7.001,7.141 0.888,0.906 7.233,6.906 7.232,6.906 7.233,6.906 2.34,2.233 7.431,6.691 7.432,6.691 7.432,6.691 3.236,2.914 7.615,6.482 7.614,6.483 7.614,6.482 3.542,3.015 7.793,6.267 7.793,6.267 7.792,6.267 3.221,2.591 7.978,6.03 7.977,6.031 7.977,6.031 2.226,1.683 8.18,5.752 8.18,5.752 8.18,5.753 0.491,0.345 8.419,5.397 8.418,5.397 6.34,4.064 8.72,4.894 8.721,4.894 3.106,1.743 9.134,4.07 7.964,3.55 9.71,2.391 3.096,0.762 7.684,-1.798 1.813,-7.103 -3.471,-9.379 -1.176,-3.178 -4.032,-9.151 -4.032,-9.151 -4.031,-9.151 -3.757,-8.528 -4.823,-8.76 -4.822,-8.76 -4.823,-8.761 -4,-7.266 -5.308,-8.476 -2.266,-3.618"
           inkscape:connector-curvature="0"
           style="fill:#ffe200;stroke:#484848;stroke-width:3;stroke-linecap:butt;stroke-linejoin:round;stroke-opacity:1;fill-opacity:1" />
        <path
           id="path975"
           d="m 807.136,442.689 -5.386,-8.425 -5.386,-8.426 -0.653,-1.021 -6.245,-7.81 -6.244,-7.811 -5.656,-7.074 -6.747,-7.381 -6.747,-7.381 -6.747,-7.381 -4.105,-4.49 -7.097,-7.045 -7.097,-7.045 -7.097,-7.045 -7.098,-7.045 -1.137,-1.129 -7.375,-6.754 -7.375,-6.754 -7.375,-6.753 -7.374,-6.754 -3.721,-3.407 -7.62,-6.477 -7.619,-6.476 -7.62,-6.476 -7.619,-6.477 -4.6,-3.909 -7.857,-6.187 -7.856,-6.187 -7.856,-6.187 -7.857,-6.187 -3.509,-2.763 -8.107,-5.854 -8.107,-5.854 -8.108,-5.854 -8.107,-5.854 -0.41,-0.296 -8.398,-5.428 -8.399,-5.428 -8.399,-5.428 -3.842,-2.483 -8.771,-4.803 -8.771,-4.803 -6.384,-3.496 -9.291,-3.699 -8.671,-3.452"
           inkscape:connector-curvature="0"
           style="fill:none;stroke:#484848;stroke-width:3;stroke-linecap:butt;stroke-linejoin:round;stroke-opacity:1" />
      </g>
    </g>
  </g>
  <g
     id="View Layer_LineSet"
     inkscape:groupmode="lineset"
     inkscape:label="View Layer_LineSet">
    <g
       id="fills"
       inkscape:groupmode="layer"
       inkscape:label="fills">
      <path
         d=" M 433.469, 437.628 345.868, 540.032 341.537, 539.685 337.608, 539.809 333.281, 540.986 328.726, 543.160 324.111, 546.243 319.600, 550.126 315.396, 553.842 311.661, 557.829 252.694, 626.761 249.266, 631.146 246.258, 635.785 243.782, 640.506 241.747, 644.836 239.745, 650.328 238.568, 655.583 238.270, 660.402 238.873, 664.590 239.024, 664.930 88.153, 841.294 85.055, 848.046 85.045, 857.165 85.733, 893.431 88.080, 901.938 92.738, 911.572 99.558, 921.941 108.278, 932.605 118.537, 943.095 129.888, 952.944 141.826, 961.712 153.820, 969.017 165.342, 974.555 175.904, 978.117 185.079, 979.594 192.523, 978.976 230.111, 973.750 237.000, 970.260 583.132, 565.641 709.379, 579.937 809.970, 462.349 811.783, 455.246 807.136, 442.689 795.711, 424.817 777.566, 402.122 753.220, 375.489 723.694, 346.180 690.474, 315.758 655.396, 285.943 620.461, 258.432 587.622, 234.720 558.584, 215.953 534.658, 202.851 516.696, 195.700 505.097, 194.399 499.866, 198.552 399.765, 315.568 433.469, 437.628  z"
         fill="rgb(204, 204, 204)"
         fill-opacity="1.0"
         fill_rule="evenodd"
         stroke="none"
         id="path2" />
    </g>
    <g
       id="strokes"
       inkscape:groupmode="layer"
       inkscape:label="strokes">
      <path
         d=" M 809.970, 462.349 803.470, 469.948 796.969, 477.547 790.469, 485.146 783.968, 492.745 777.468, 500.343 770.967, 507.942 764.467, 515.541 757.966, 523.140 751.466, 530.739 744.965, 538.338 738.465, 545.937 731.964, 553.536 725.464, 561.135 718.963, 568.734 712.463, 576.333 709.379, 579.937 699.443, 578.812 689.506, 577.686 679.570, 576.561 669.633, 575.436 659.697, 574.311 649.760, 573.186 639.824, 572.060 629.887, 570.935 619.951, 569.810 610.014, 568.685 600.078, 567.560 590.141, 566.434 583.132, 565.641 576.631, 573.240 570.131, 580.838 563.630, 588.437 557.130, 596.036 550.629, 603.635 544.129, 611.234 537.628, 618.833 531.128, 626.432 524.627, 634.031 518.127, 641.630 511.626, 649.229 505.126, 656.828 498.625, 664.426 492.125, 672.025 485.624, 679.624 479.124, 687.223 472.623, 694.822 466.123, 702.421 459.622, 710.020 453.122, 717.619 446.621, 725.218 440.121, 732.817 433.620, 740.416 427.120, 748.015 420.619, 755.613 414.119, 763.212 407.618, 770.811 401.118, 778.410 394.617, 786.009 388.117, 793.608 381.616, 801.207 375.116, 808.806 368.615, 816.405 362.115, 824.004 355.614, 831.603 349.114, 839.202 342.613, 846.800 336.113, 854.399 329.612, 861.998 323.112, 869.597 316.611, 877.196 310.111, 884.795 303.610, 892.394 297.110, 899.993 290.609, 907.592 284.109, 915.191 277.608, 922.790 271.108, 930.388 264.607, 937.987 258.107, 945.586 251.606, 953.185 245.106, 960.784 237.000, 970.260 230.111, 973.750 220.449, 974.524 210.593, 972.835 208.317, 972.446 198.876, 969.151 194.161, 967.506 185.185, 963.098 178.558, 959.843 170.047, 954.592 162.190, 949.745 154.146, 943.803 146.103, 937.861 145.807, 937.643 138.252, 931.091 130.697, 924.540 130.177, 924.089 123.161, 916.962 116.030, 909.718 109.652, 902.016 104.010, 895.205 98.441, 886.899 94.630, 881.214 90.182, 872.258 88.245, 868.359 85.497, 858.745 85.045, 857.165 85.055, 848.046 88.153, 841.294 94.653, 833.695 101.154, 826.096 107.654, 818.497 114.155, 810.898 120.655, 803.299 127.156, 795.700 133.656, 788.101 140.157, 780.503 146.657, 772.904 153.158, 765.305 159.658, 757.706 166.159, 750.107 172.659, 742.508 179.160, 734.909 185.660, 727.310 192.161, 719.711 198.661, 712.112 205.162, 704.513 211.662, 696.914 218.163, 689.316 224.663, 681.717 231.164, 674.118 239.024, 664.930 "
         fill="none"
         stroke="rgb(72, 72, 72)"
         stroke-linecap="butt"
         stroke-linejoin="round"
         stroke-opacity="1.0"
         stroke-width="3.0"
         id="path5" />
      <path
         d=" M 433.469, 437.628 435.064, 438.895 439.610, 442.689 447.031, 448.949 454.658, 455.416 457.105, 457.490 464.723, 463.969 469.463, 468.000 477.074, 474.487 483.595, 480.045 491.199, 486.539 498.874, 493.092 506.473, 499.592 514.072, 506.092 514.595, 506.539 522.189, 513.045 529.783, 519.551 530.023, 519.757 537.612, 526.270 544.443, 532.133 552.025, 538.654 557.209, 543.113 564.782, 549.644 567.787, 552.236 575.345, 558.783 575.776, 559.156 580.926, 563.656 583.132, 565.641 "
         fill="none"
         stroke="rgb(72, 72, 72)"
         stroke-linecap="butt"
         stroke-linejoin="round"
         stroke-opacity="1.0"
         stroke-width="3.0"
         id="path7" />
      <path
         d=" M 499.866, 198.552 493.366, 206.151 486.865, 213.750 480.365, 221.349 473.864, 228.948 467.364, 236.547 460.863, 244.146 454.363, 251.745 447.862, 259.344 441.362, 266.943 434.861, 274.542 428.361, 282.141 421.860, 289.739 415.360, 297.338 408.859, 304.937 402.359, 312.536 399.765, 315.568 402.427, 325.207 405.088, 334.846 407.750, 344.486 410.412, 354.125 413.073, 363.764 415.735, 373.404 418.397, 383.043 421.058, 392.682 423.720, 402.321 426.382, 411.961 429.043, 421.600 431.705, 431.239 433.469, 437.628 426.969, 445.227 420.468, 452.826 413.968, 460.425 407.467, 468.024 400.967, 475.623 394.466, 483.222 387.966, 490.821 381.465, 498.420 374.965, 506.019 368.464, 513.617 361.964, 521.216 355.463, 528.815 348.963, 536.414 345.868, 540.032 "
         fill="none"
         stroke="rgb(72, 72, 72)"
         stroke-linecap="butt"
         stroke-linejoin="round"
         stroke-opacity="1.0"
         stroke-width="3.0"
         id="path9" />
      <path
         d=" M 399.765, 315.568 402.146, 314.746 410.897, 319.376 419.178, 324.981 426.146, 329.698 434.177, 335.657 442.208, 341.615 447.639, 345.644 455.521, 351.800 463.402, 357.955 471.283, 364.110 474.672, 366.757 482.445, 373.047 490.219, 379.338 497.993, 385.628 506.064, 392.160 513.750, 398.557 521.435, 404.955 529.121, 411.353 536.807, 417.750 540.214, 420.587 547.820, 427.079 555.426, 433.572 563.031, 440.064 570.637, 446.557 575.229, 450.476 582.754, 457.062 590.280, 463.647 597.805, 470.232 605.331, 476.817 609.110, 480.125 616.547, 486.810 623.984, 493.495 631.421, 500.180 638.858, 506.866 639.974, 507.869 647.302, 514.674 654.629, 521.480 661.957, 528.285 666.238, 532.261 673.412, 539.228 680.585, 546.196 686.753, 552.187 693.664, 559.414 700.575, 566.642 700.852, 566.932 707.144, 574.705 708.334, 576.175 709.379, 579.937 "
         fill="none"
         stroke="rgb(72, 72, 72)"
         stroke-linecap="butt"
         stroke-linejoin="round"
         stroke-opacity="1.0"
         stroke-width="3.0"
         id="path11" />
      <path
         d=" M 499.866, 198.552 505.097, 194.399 515.035, 195.513 516.696, 195.700 525.987, 199.399 534.658, 202.851 543.429, 207.654 552.200, 212.457 558.584, 215.953 566.982, 221.381 575.381, 226.809 583.780, 232.237 587.622, 234.720 595.730, 240.574 603.837, 246.428 611.945, 252.282 620.052, 258.137 620.461, 258.432 628.318, 264.619 636.174, 270.806 644.031, 276.993 651.887, 283.179 655.396, 285.943 663.015, 292.419 670.635, 298.895 678.254, 305.372 685.874, 311.848 690.474, 315.758 697.849, 322.511 705.224, 329.265 712.598, 336.019 719.973, 342.772 723.694, 346.180 730.791, 353.225 737.888, 360.269 744.985, 367.314 752.082, 374.359 753.220, 375.489 759.967, 382.870 766.714, 390.250 773.461, 397.631 777.566, 402.122 783.810, 409.933 790.055, 417.743 795.711, 424.817 801.097, 433.243 806.483, 441.669 807.136, 442.689 810.606, 452.068 811.783, 455.246 809.970, 462.349 "
         fill="none"
         stroke="rgb(72, 72, 72)"
         stroke-linecap="butt"
         stroke-linejoin="round"
         stroke-opacity="1.0"
         stroke-width="3.0"
         id="path13" />
      <path
         d=" M 85.045, 857.165 85.235, 867.164 85.424, 877.162 85.614, 887.160 85.733, 893.431 88.080, 901.938 92.434, 910.941 92.738, 911.572 98.233, 919.927 99.558, 921.941 105.888, 929.682 108.278, 932.605 115.270, 939.754 118.537, 943.095 126.090, 949.649 129.888, 952.944 137.948, 958.863 141.826, 961.712 150.367, 966.913 153.820, 969.017 162.833, 973.349 165.342, 974.555 174.818, 977.750 175.904, 978.117 185.079, 979.594 192.523, 978.976 202.427, 977.599 212.332, 976.222 222.237, 974.845 230.111, 973.750 "
         fill="none"
         stroke="rgb(72, 72, 72)"
         stroke-linecap="butt"
         stroke-linejoin="round"
         stroke-opacity="1.0"
         stroke-width="3.0"
         id="path15" />
      <path
         d=" M 353.293, 541.509 349.705, 540.340 345.868, 540.032 341.537, 539.685 337.608, 539.809 333.281, 540.986 328.726, 543.160 324.111, 546.243 319.600, 550.126 315.396, 553.842 311.661, 557.829 305.161, 565.428 298.660, 573.027 292.160, 580.626 285.659, 588.225 279.159, 595.824 272.658, 603.423 266.158, 611.022 259.657, 618.621 252.694, 626.761 249.266, 631.146 246.258, 635.785 243.782, 640.506 241.747, 644.836 239.745, 650.328 238.568, 655.583 238.270, 660.402 238.873, 664.590 239.024, 664.930 240.367, 667.971 243.841, 675.072 246.358, 677.787 "
         fill="none"
         stroke="rgb(72, 72, 72)"
         stroke-linecap="butt"
         stroke-linejoin="round"
         stroke-opacity="1.0"
         stroke-width="3.0"
         id="path17"
         style="fill:#8a8a8a;fill-opacity:1" />
      <path
         d=" M 243.782, 640.506 243.290, 641.736 243.282, 641.757 241.932, 645.132 240.781, 649.492 240.375, 653.419 240.735, 656.762 241.853, 659.389 242.892, 660.408 243.691, 661.193 246.184, 662.100 249.238, 662.066 252.739, 661.087 256.550, 659.196 260.522, 656.464 264.497, 652.997 268.317, 648.930 274.817, 641.331 281.318, 633.732 287.818, 626.133 294.319, 618.535 300.819, 610.936 307.320, 603.337 313.820, 595.738 320.321, 588.139 326.821, 580.540 328.827, 578.195 332.323, 573.710 335.342, 569.002 337.764, 564.259 339.496, 559.671 340.472, 555.417 340.658, 551.661 340.053, 548.549 339.458, 547.525 338.685, 546.195 336.613, 544.684 333.921, 544.067 330.715, 544.362 327.120, 545.551 323.271, 547.585 319.314, 550.384 315.396, 553.842 "
         fill="none"
         stroke="rgb(72, 72, 72)"
         stroke-linecap="butt"
         stroke-linejoin="round"
         stroke-opacity="1.0"
         stroke-width="3.0"
         id="path19" />
      <path
         d=" M 341.537, 539.685 344.910, 540.636 345.179, 540.838 347.581, 542.641 349.432, 545.630 350.385, 549.491 350.402, 554.074 349.488, 559.199 347.686, 564.672 345.072, 570.287 341.754, 575.840 337.893, 581.021 331.393, 588.620 324.892, 596.219 318.392, 603.818 311.891, 611.417 305.391, 619.016 298.890, 626.614 292.390, 634.213 285.889, 641.812 279.389, 649.411 272.888, 657.010 272.099, 657.933 267.668, 662.445 262.965, 666.269 258.257, 669.211 253.715, 671.155 249.505, 672.020 245.786, 671.765 242.700, 670.397 240.367, 667.971 "
         fill="none"
         stroke="rgb(72, 72, 72)"
         stroke-linecap="butt"
         stroke-linejoin="round"
         stroke-opacity="1.0"
         stroke-width="3.0"
         id="path21" />
      <path
         d=" M 347.289, 583.575 351.318, 578.290 354.690, 572.645 357.272, 566.870 358.963, 561.196 359.702, 555.851 359.468, 551.043 358.279, 546.954 356.191, 543.738 353.293, 541.509 "
         fill="none"
         stroke="rgb(72, 72, 72)"
         stroke-linecap="butt"
         stroke-linejoin="round"
         stroke-opacity="1.0"
         stroke-width="3.0"
         id="path23" />
      <path
         d=" M 246.358, 677.787 249.628, 679.442 253.531, 679.962 257.918, 679.315 262.618, 677.517 267.445, 674.633 272.203, 670.773 276.701, 666.092 "
         fill="none"
         stroke="rgb(72, 72, 72)"
         stroke-linecap="butt"
         stroke-linejoin="round"
         stroke-opacity="1.0"
         stroke-width="3.0"
         id="path25" />
    </g>
  </g>
</svg>
