<?xml version="1.0" encoding="UTF-8" standalone="no"?>
<svg
   xmlns:dc="http://purl.org/dc/elements/1.1/"
   xmlns:cc="http://creativecommons.org/ns#"
   xmlns:rdf="http://www.w3.org/1999/02/22-rdf-syntax-ns#"
   xmlns:svg="http://www.w3.org/2000/svg"
   xmlns="http://www.w3.org/2000/svg"
   xmlns:sodipodi="http://sodipodi.sourceforge.net/DTD/sodipodi-0.dtd"
   xmlns:inkscape="http://www.inkscape.org/namespaces/inkscape"
   height="1024"
   version="1.1"
   width="1024"
   id="svg141"
   sodipodi:docname="QueryWizard-Fundo0000.svg"
   inkscape:version="0.92.4 5da689c313, 2019-01-14">
  <metadata
     id="metadata147">
    <rdf:RDF>
      <cc:Work
         rdf:about="">
        <dc:format>image/svg+xml</dc:format>
        <dc:type
           rdf:resource="http://purl.org/dc/dcmitype/StillImage" />
      </cc:Work>
    </rdf:RDF>
  </metadata>
  <defs
     id="defs145" />
  <sodipodi:namedview
     pagecolor="#ffffff"
     bordercolor="#666666"
     borderopacity="1"
     objecttolerance="10"
     gridtolerance="10"
     guidetolerance="10"
     inkscape:pageopacity="0"
     inkscape:pageshadow="2"
     inkscape:window-width="3840"
     inkscape:window-height="2081"
     id="namedview143"
     showgrid="false"
     inkscape:zoom="0.65186406"
     inkscape:cx="195.25424"
     inkscape:cy="525.01695"
     inkscape:window-x="0"
     inkscape:window-y="0"
     inkscape:window-maximized="1"
     inkscape:current-layer="layer1" />
  <g
     id="View Layer_LineSet"
     inkscape:label="View Layer_LineSet"
     transform="translate(-19.942808,-24.544995)">
    <g
       id="fills"
       inkscape:groupmode="layer"
       inkscape:label="fills">
      <path
         d="m 220.374,720.584 -4.875,1.699 -6.275,2.26 -4.391,1.536 -5.354,1.729 -5.591,1.642 -8.931,2.334 -15.594,3.895 -6.84,1.693 -11.246,2.945 -3.962,1.058 -8.627,2.322 -12.264,3.443 -10.121,2.839 -20.059,5.738 -11.168,3.086 -3.559,1.016 -1.685,0.492 -3.521,1.058 -2.271,0.745 -3.421,1.163 -4.302,1.65 -3.201,1.356 -3.71,1.801 -0.405,0.206 -2.561,1.356 -2.813,1.683 -0.786,0.53 -2.668,1.81 -2.507,1.937 -1.89,1.619 -2.264,2.135 -2.089,2.266 -1.484,1.812 -1.824,2.468 -1.106,1.731 -0.533,0.873 -1.01,1.797 -0.891,1.843 -0.455,0.957 -0.792,1.912 -1.042,2.997 -0.829,3.117 -0.164,0.703 -0.609,3.233 -0.383,3.345 -0.151,3.447 0.029,2.488 0.06,1.056 0.153,2.53 0.463,3.669 0.719,3.745 0.155,0.71 0.985,3.811 1.252,3.866 1.527,3.914 1.808,3.954 0.463,0.931 2.097,3.984 2.386,4.003 2.681,4.014 2.983,4.018 2.15,2.671 1.136,1.343 2.304,2.664 3.743,3.984 2.754,2.717 1.956,1.835 2.336,2.105 2.033,1.822 4.678,3.879 4.992,3.829 5.31,3.772 5.624,3.705 3.999,2.488 1.939,1.145 4.142,2.443 6.385,3.501 6.698,3.415 7.004,3.321 4.286,1.939 6.765,2.844 7.74,3.058 1.141,0.43 8.003,2.941 8.288,2.834 7.998,2.543 8.846,2.617 9.11,2.51 1.089,0.29 9.324,2.391 9.575,2.286 9.308,2.078 10.061,2.083 10.732,2.073 10.472,1.875 10.662,1.774 10.464,1.593 6.196,0.907 4.847,0.669 11.222,1.476 6.329,0.8 5.016,0.571 11.48,1.265 6.343,0.678 5.252,0.478 11.701,1.044 6.366,0.555 5.42,0.373 11.862,0.808 6.314,0.423 17.749,0.855 11.931,0.421 11.943,0.287 11.946,0.149 12.189,0.005 12.166,-0.144 11.517,-0.284 11.441,-0.419 11.708,-0.584 11.623,-0.74 11.506,-0.896 0.446,-0.035 11.45,-1.059 11.313,-1.221 11.166,-1.385 11.007,-1.55 10.833,-1.716 10.64,-1.881 10.451,-2.049 10.243,-2.215 10.026,-2.38 9.787,-2.541 9.562,-2.704 9.316,-2.861 7.333,-2.406 4.061,-1.416 3.624,-1.298 8.095,-3.03 8.433,-3.38 8.16,-3.507 7.88,-3.623 7.591,-3.727 7.312,-3.824 7.021,-3.905 6.729,-3.973 6.436,-4.03 0.963,-0.624 5.702,-3.747 5.857,-4.11 5.568,-4.132 5.276,-4.141 0.69,-0.542 4.99,-4.141 4.694,-4.122 4.411,-4.102 3.906,-3.869 2.744,-2.823 3.695,-3.998 3.411,-3.943 3.135,-3.887 2.857,-3.82 2.583,-3.752 2.312,-3.682 0.532,-0.885 2.047,-3.614 1.779,-3.538 1.517,-3.471 1.257,-3.406 0.806,-2.598 0.871,-3.316 0.62,-3.267 0.37,-3.219 0.109,-2.494 0.014,-0.685 -10e-4,-2.24 -0.241,-3.123 -0.264,-1.993 -0.553,-2.869 -0.545,-2.167 -0.939,-3.039 -1.182,-3.038 -1.352,-3.008 -1.794,-3.357 -1.808,-2.962 -0.379,-0.569 -2.012,-2.944 -2.214,-2.931 -2.406,-2.915 -2.927,-3.242 -2.779,-2.885 -2.636,-2.54 -2.866,-2.626 -0.965,-0.856 -3.302,-2.836 -3.455,-2.806 -3.247,-2.492 -3.77,-2.752 -4.266,-2.988 -4.047,-2.662 -5.495,-3.405 -4.345,-2.542 -3.085,-1.7 -5.199,-2.777 -4.016,-1.969 -2.95,-1.445 -4.998,-2.277 -4.904,-2.094 -5,-1.992 -5.091,-1.884 -5.175,-1.767 -5.252,-1.645 -3.353,-0.963 -1.98,-0.558 -3.372,-0.893 -2.032,-0.498 -3.391,-0.822 -5.551,-1.197 -5.585,-1.048 -4.049,-0.657 -0.763,-0.117 -3.488,-0.503 -1.116,-0.147 -4.423,-0.555 -3.656,-0.368 -5.746,-0.472 -5.797,-0.334 -5.844,-0.199 -7.374,-0.092 -6.39,0.09 -5.505,0.188 -0.463,0.018 -5.498,0.269 -5.994,0.392 -1.926,0.158 -4.165,-6.376 -2.738,-4.319 -1.08,-1.836 -1.383,-2.449 -0.309,-0.614 -0.67,-1.59 -0.108,-0.317 -0.14,-0.637 -0.029,-0.266 0.008,-0.472 0.081,-0.664 0.092,-0.545 0.84,-4.033 0.529,-2.624 0.269,-1.564 0.58,-3.665 0.354,-2.975 0.44,-4.104 0.186,-2.926 0.266,-5.209 0.084,-4.063 -0.053,-4.78 -0.167,-4.537 -0.303,-4.058 -0.154,-1.499 -0.517,-4.808 -0.572,-3.673 -0.253,-1.602 -0.961,-4.896 -1.219,-4.872 -1.585,-5.32 -1.563,-4.683 -1.725,-4.694 -1.602,-4.068 -2.268,-5.415 -4.251,-9.698 -1.177,-2.754 -1.035,-2.558 -1.068,-2.991 -0.57,-1.988 -0.549,-2.488 -0.301,-2.336 -0.153,-2.984 0.077,-2.855 0.317,-5.629 0.018,-0.722 -0.019,-3.635 -0.231,-3.618 -0.653,-4.023 -1.171,-4.312 -1.902,-4.888 -2.507,-4.889 -3.055,-4.979 -3.661,-5.414 -3.703,-5.139 -3.883,-5.089 -7.228,-9.296 -2.937,-3.902 -2.451,-3.431 -1.954,-3.053 -1.496,-2.725 -1.103,-2.479 -0.916,-2.59 -0.705,-2.702 -0.673,-3.063 -2.225,-11.027 -1.384,-6.163 -1.377,-5.482 -1.648,-5.77 -2.003,-6.353 -2.436,-6.703 -2.778,-6.802 -3.145,-6.869 -3.502,-6.892 -4.034,-7.365 -4.081,-6.891 -4.582,-7.236 -4.359,-6.482 -4.573,-6.345 -4.435,-5.77 -4.684,-5.628 -3.929,-4.403 -0.469,-0.513 -3.928,-4.15 -4.645,-4.521 -3.715,-3.48 -4.82,-4.281 -10.97,-9.268 -7.294,-6.003 -4.263,-3.321 -4.123,-3.187 -4.098,-3.032 -3.905,-2.787 -5.027,-3.522 -5.483,-3.641 -5.54,-3.465 -5.979,-3.46 -6.566,-3.418 -5.975,-2.768 -0.699,-0.293 -6.73,-2.657 -6.344,-1.978 -1.057,-0.325 -6.987,-1.645 -7.2,-1.129 -7.049,-0.617 -7.643,-0.186 -6.701,0.203 -6.608,0.564 -0.949,0.124 -5.821,0.784 -6.348,1.208 -6.067,1.511 -5.511,1.692 -4.951,1.797 -3.038,1.299 -4.796,2.293 -2.861,1.512 -3.751,2.113 -2.293,1.437 -0.017,0.01 -0.037,0.023 -3.329,2.086 -5.014,3.392 -3.016,2.219 -4.505,3.58 -0.431,0.34 -0.094,0.078 -1.269,1.008 -1.246,1.078 -0.356,0.295 -2.035,1.773 -5.777,5.191 -6.727,6.525 -5.86,6.078 -5.928,6.481 -5.589,6.532 -5.309,6.567 -4.822,6.453 -3.946,5.71 -3.656,5.832 -2.937,5.36 -2.368,5.095 -1.828,4.877 -1.31,4.611 -0.833,4.678 -0.381,4.419 0.051,4.48 0.451,4.481 0.827,4.518 1.112,4.38 1.37,4.274 1.551,4.092 1.785,3.996 1.834,3.683 1.916,3.439 1.913,3.136 1.965,2.884 1.996,2.67 2.056,2.503 2.048,2.381 2.94,3.16 8.333,8.499 4.978,4.96 2.74,2.66 4.724,4.396 4.901,3.938 -1.735,-5.954 -0.701,-1.863 -3.602,-9.434 -1.286,-3.633 -0.153,-0.442 -0.8,-2.625 -0.768,-2.665 -0.54,-2.433 -0.37,-2.309 -0.196,-2.332 -0.05,-2.089 0.119,-2.137 0.253,-2.047 0.376,-2.03 0.551,-2.13 0.823,-2.693 1.661,-4.857 1.066,-3.075 0.781,-2.628 0.554,-2.296 0.337,-1.948 0.098,-0.555 0.233,-2.314 0.106,-2.639 -0.029,-6.803 0.104,-3.11 0.229,-2.693 0.441,-3.017 0.677,-2.973 0.842,-2.879 1.191,-3.249 1.326,-3.041 1.511,-2.946 1.824,-2.983 1.654,-2.309 1.947,-2.213 1.439,-1.193 1.755,-0.993 0.937,-0.3 0.526,-0.083 0.91,-0.111 1.866,0.069 2.073,0.417 1.998,0.77 2.139,1.163 2.206,1.56 0.245,0.208 1.324,1.171 2.394,2.418 2.415,2.703 2.236,2.712 2.446,3.236 2.577,3.735 2.495,3.844 2.472,4.16 2.44,4.323 2.246,4.28 2.187,4.314 2.069,4.43 1.854,4.11 1.668,3.946 1.491,3.851 1.196,3.271 1.025,3.241 0.811,2.863 0.602,2.459 0.765,3.693 0.832,5.096 1.244,8.541 0.779,5.866 0.826,7.285 0.25,2.783 0.285,3.275 0.322,4.34 0.559,7.826 0.363,4.515 0.576,5.48 0.43,3.424 0.193,1.266 0.607,3.954 0.902,4.296 1.013,3.74 1.303,3.929 1.124,2.9 1.374,3.114 1.394,2.82 1.661,3.049 0.324,0.552 -0.157,0.635 -0.757,3.738 -0.993,5.725 -0.551,3.731 -0.566,4.999 -0.504,5.805 -0.35,4.514 -0.528,6.313 -0.524,5.583 -0.458,5.572 -0.088,3.616 -0.052,4.413 0.083,2.198 -0.776,1.08 -1.798,2.58 -1.187,1.735 -1.657,2.655 -1.792,3.101 -1.213,2.182 -1.259,2.304 -2.792,5.531 -1.423,2.965 -2.449,5.25 -1.588,3.604 -1.108,2.481 -0.992,2.427 -1.256,3.009 -1.504,3.813 -1.635,4.47 -0.696,2.021 -1.034,3.184 -0.844,2.665 -0.507,1.781 -0.882,3.148 -0.225,0.88 -0.798,3.213 -0.104,0.455 -1.381,1.324 -4.322,3.881 -9.348,8.146 -4.785,4.295 -4.817,4.516 -4.33,4.224 -4.304,4.415 -3.13,3.37 -2.848,3.232 -2.615,3.18 -2.378,3.132 -0.74,1.038 -1.828,2.774 -1.459,2.34 -1.24,2.26 -1.025,2.253 -1.019,0.275 -3.301,1.027 z"
         fill_rule="evenodd"
         id="path2"
         inkscape:connector-curvature="0"
         style="fill:#547ac6;fill-opacity:1;stroke:none" />
    </g>
    <g
       id="strokes"
       inkscape:groupmode="layer"
       inkscape:label="strokes">
      <path
         d="m 222.744,743.67 -0.03,0.523 0.174,4.184 0.59,4.343 1.024,4.479 0.125,0.388 1.352,4.199 1.95,4.671 2.443,4.728 2.95,4.754 3.478,4.756 4.015,4.726 4.559,4.663 5.108,4.575 5.649,4.455 6.18,4.321 6.701,4.17 7.201,4.005 7.699,3.834 8.167,3.646 8.607,3.447 9.017,3.23 9.385,3 9.715,2.755 9.702,2.426 0.316,0.079 9.77,2.132 0.504,0.11 9.828,1.849 0.665,0.125 9.875,1.576 0.789,0.126 9.914,1.311 0.883,0.117 9.944,1.054 0.93,0.099 9.967,0.802 0.95,0.077 8.108,0.465 7.963,0.318 9.998,0.179 0.58,0.011 9.999,-0.089 0.694,-0.006 9.422,-0.339 6.643,-0.38 7.635,-0.586 9.945,-1.049 0.149,-0.015 9.834,-1.37 9.557,-1.669 9.255,-1.959 8.909,-2.234 8.556,-2.498 8.163,-2.737 7.758,-2.958 7.331,-3.152 6.887,-3.322 6.431,-3.469 5.956,-3.588 4.821,-3.234 4.434,-3.276 4.608,-3.831 4.098,-3.9 3.582,-3.968 3.064,-4.029 1.265,-2.028"
         id="path5"
         inkscape:connector-curvature="0"
         style="fill:none;stroke:#484848;stroke-width:3;stroke-linecap:butt;stroke-linejoin:round;stroke-opacity:1" />
      <path
         d="m 226.745,718.637 -1.019,0.275 -3.301,1.027 -2.051,0.645 -4.875,1.699 -6.275,2.26 -4.391,1.536 -1.576,0.552"
         id="path7"
         inkscape:connector-curvature="0"
         style="fill:none;stroke:#484848;stroke-width:3;stroke-linecap:butt;stroke-linejoin:round;stroke-opacity:1" />
      <path
         d="m 306.814,597.723 -0.776,1.08 -1.798,2.58 -1.187,1.735 -1.657,2.655 -1.792,3.101 -1.213,2.182 -1.259,2.304 -2.792,5.531 -1.423,2.965 -2.449,5.25 -1.588,3.604 -1.108,2.481 -0.992,2.427 -1.256,3.009 -1.504,3.813 -1.635,4.47 -0.696,2.021 -1.034,3.184 -0.844,2.665 -0.507,1.781 -0.882,3.148 -0.225,0.88 -0.798,3.213 -0.104,0.455 -0.117,0.508 -0.707,3.214 -0.346,1.697 -0.006,0.028 -0.101,0.498 -0.46,2.016"
         id="path9"
         inkscape:connector-curvature="0"
         style="fill:none;stroke:#484848;stroke-width:3;stroke-linecap:butt;stroke-linejoin:round;stroke-opacity:1" />
      <path
         d="m 567.114,687.294 0.091,-0.743 v -0.006 l 0.016,-0.13 0.014,-0.115 0.004,-0.031 0.015,-0.126 0.032,-0.259 0.081,-0.664 0.092,-0.545 0.84,-4.033 0.529,-2.624 0.269,-1.564 0.58,-3.665 0.354,-2.975 0.44,-4.104 0.186,-2.926 0.266,-5.209 0.084,-4.063 -0.053,-4.78 -0.167,-4.537 -0.303,-4.058 -0.154,-1.499 -0.517,-4.808 -0.572,-3.673 -0.253,-1.602 -0.961,-4.896 -1.219,-4.872 -1.585,-5.32 -1.563,-4.683 -1.725,-4.694 -1.602,-4.068 -2.268,-5.415 -4.015,-9.158 -0.236,-0.54 -1.177,-2.754 -1.035,-2.558 -1.068,-2.991"
         id="path11"
         inkscape:connector-curvature="0"
         style="fill:none;stroke:#484848;stroke-width:3;stroke-linecap:butt;stroke-linejoin:round;stroke-opacity:1" />
      <path
         d="m 550.726,577.276 -0.192,-0.67 -0.57,-1.988 -0.549,-2.488"
         id="path13"
         inkscape:connector-curvature="0"
         style="fill:none;stroke:#484848;stroke-width:3;stroke-linecap:butt;stroke-linejoin:round;stroke-opacity:1" />
      <path
         d="m 549.447,572.379 -0.032,-0.249 -0.301,-2.336 -0.153,-2.984 0.077,-2.855 0.317,-5.629 0.018,-0.722 -0.019,-3.635 -0.231,-3.618 -0.653,-4.023 -1.171,-4.312 -1.902,-4.888 -2.507,-4.889 -3.055,-4.979 -3.661,-5.414 -3.703,-5.139 -3.883,-5.089 -6.138,-7.894 -1.09,-1.402 -2.937,-3.902 -2.451,-3.431 -1.954,-3.053 -1.496,-2.725 -1.103,-2.479 -0.916,-2.59 -0.034,-0.095"
         id="path15"
         inkscape:connector-curvature="0"
         style="fill:none;stroke:#484848;stroke-width:3;stroke-linecap:butt;stroke-linejoin:round;stroke-opacity:1" />
      <path
         d="m 306.871,587.496 -0.088,3.616 -0.052,4.413 0.083,2.198 0.005,0.126 0.297,5.032 0.663,6.005 0.696,4.772 1.138,6.691 0.172,1.014"
         id="path17"
         inkscape:connector-curvature="0"
         style="fill:none;stroke:#484848;stroke-width:3;stroke-linecap:butt;stroke-linejoin:round;stroke-opacity:1" />
      <path
         d="m 307.832,577.222 -0.029,0.31 -0.479,5.108 -0.453,4.856 0.458,-5.572"
         id="path19"
         inkscape:connector-curvature="0"
         style="fill:none;stroke:#484848;stroke-width:3;stroke-linecap:butt;stroke-linejoin:round;stroke-opacity:1" />
      <path
         d="m 308.504,571.04 -0.672,6.182 -0.503,4.702 0.524,-5.583 0.528,-6.313 0.35,-4.514 0.504,-5.805 0.566,-4.999 0.551,-3.731 0.993,-5.725 0.757,-3.738 0.157,-0.635"
         id="path21"
         inkscape:connector-curvature="0"
         style="fill:none;stroke:#484848;stroke-width:3;stroke-linecap:butt;stroke-linejoin:round;stroke-opacity:1" />
      <path
         d="m 274.985,403.741 0.087,0.148 2.472,4.16 2.44,4.323 2.246,4.28 2.187,4.314 2.069,4.43 1.854,4.11 1.668,3.946 1.491,3.851 1.196,3.271 1.025,3.241 0.811,2.863 0.602,2.459 0.765,3.693 0.832,5.096 1.244,8.541 0.779,5.866 0.826,7.285 0.034,0.293 0.216,2.49 0.285,3.275 0.063,0.72 0.259,3.62 0.559,7.826 0.363,4.515 0.576,5.48 0.43,3.424 0.193,1.266 0.607,3.954 0.902,4.296 1.013,3.74 1.303,3.929 1.124,2.9 1.374,3.114 1.394,2.82 1.661,3.049 0.324,0.552 2.481,4.234 0.636,1.205 0.465,1.157 0.074,0.186"
         id="path23"
         inkscape:connector-curvature="0"
         style="fill:none;stroke:#484848;stroke-width:3;stroke-linecap:butt;stroke-linejoin:round;stroke-opacity:1" />
      <path
         d="m 510.503,484.142 -0.705,-2.702 -0.673,-3.063 -1.978,-9.802 -0.247,-1.225 -1.384,-6.163 -1.377,-5.482 -1.648,-5.77 -2.003,-6.353 -2.436,-6.703 -2.778,-6.802 -3.145,-6.869 -3.502,-6.892 -4.034,-7.365 -4.081,-6.891 -4.582,-7.236 -4.359,-6.482 -4.573,-6.345 -4.435,-5.77 -4.684,-5.628 -3.929,-4.403 -0.469,-0.513 -3.928,-4.15 -4.645,-4.521 -3.715,-3.48 -4.82,-4.281 -7.638,-6.454 -3.332,-2.814 -7.294,-6.003 -4.263,-3.321 -4.123,-3.187 -4.098,-3.032 -3.905,-2.787 -5.027,-3.522 -5.483,-3.641 -5.54,-3.465 -5.979,-3.46 -6.566,-3.418 -5.975,-2.768 -0.699,-0.293 -6.73,-2.657 -6.344,-1.978 -1.057,-0.325 -6.987,-1.645 -7.2,-1.129 -7.049,-0.617 -7.643,-0.186 -6.701,0.203 -6.608,0.564 -0.949,0.124 -5.821,0.784 -6.348,1.208 -6.067,1.511 -5.511,1.692 -4.951,1.797 -3.038,1.299 -4.796,2.293 -2.861,1.512 -3.751,2.113 -2.293,1.437"
         id="path25"
         inkscape:connector-curvature="0"
         style="fill:none;stroke:#484848;stroke-width:3;stroke-linecap:butt;stroke-linejoin:round;stroke-opacity:1" />
      <path
         d="m 246.565,380.18 0.057,-0.009 0.036,-0.006 0.065,-0.01 0.02,-0.003 0.479,-0.075 0.526,-0.083 0.748,-0.117 0.162,0.006 1.866,0.069 2.073,0.417 1.998,0.77 2.139,1.163 2.206,1.56 0.245,0.208"
         id="path27"
         inkscape:connector-curvature="0"
         style="fill:none;stroke:#484848;stroke-width:3;stroke-linecap:butt;stroke-linejoin:round;stroke-opacity:1" />
      <path
         d="m 314.237,293.135 -6.912,0.715 -6.767,1.076 -6.524,1.386 -6.021,1.66 -5.439,1.822 -4.662,1.842 -3.72,1.691 -4.022,2.062 -2.478,1.394 -3.946,2.303 -0.017,0.01 -0.037,0.023 -4.633,2.994 -2.366,1.659"
         id="path29"
         inkscape:connector-curvature="0"
         style="fill:none;stroke:#484848;stroke-width:3;stroke-linecap:butt;stroke-linejoin:round;stroke-opacity:1" />
      <path
         d="m 254.104,380.4 0.245,0.151 0.001,0.001 1.824,1.122 2.12,1.607 0.891,0.789 1.324,1.171 2.394,2.418 2.415,2.703 2.236,2.712 2.446,3.236"
         id="path31"
         inkscape:connector-curvature="0"
         style="fill:none;stroke:#484848;stroke-width:3;stroke-linecap:butt;stroke-linejoin:round;stroke-opacity:1" />
      <path
         d="m 269.988,396.293 0.012,0.017 2.577,3.735 2.495,3.844"
         id="path33"
         inkscape:connector-curvature="0"
         style="fill:none;stroke:#484848;stroke-width:3;stroke-linecap:butt;stroke-linejoin:round;stroke-opacity:1" />
      <path
         d="m 268.133,369.099 7.13,7.011 7.131,7.012 7.13,7.011 1.867,1.837"
         id="path35"
         inkscape:connector-curvature="0"
         style="fill:none;stroke:#484848;stroke-width:3;stroke-linecap:butt;stroke-linejoin:round;stroke-opacity:1" />
      <path
         d="m 259.957,325.564 2.189,-1.024"
         id="path37"
         inkscape:connector-curvature="0"
         style="fill:none;stroke:#484848;stroke-width:3;stroke-linecap:butt;stroke-linejoin:round;stroke-opacity:1" />
      <path
         d="m 263.63,317.676 2.936,-1.253"
         id="path39"
         inkscape:connector-curvature="0"
         style="fill:none;stroke:#484848;stroke-width:3;stroke-linecap:butt;stroke-linejoin:round;stroke-opacity:1" />
      <path
         d="m 272.182,312.228 -3.76,1.551 -3.126,1.471"
         id="path41"
         inkscape:connector-curvature="0"
         style="fill:none;stroke:#484848;stroke-width:3;stroke-linecap:butt;stroke-linejoin:round;stroke-opacity:1" />
      <path
         d="m 276.865,304.578 -3.418,1.461 -1.939,0.914 -1.58,0.752"
         id="path43"
         inkscape:connector-curvature="0"
         style="fill:none;stroke:#484848;stroke-width:3;stroke-linecap:butt;stroke-linejoin:round;stroke-opacity:1" />
      <path
         d="m 263.849,310.998 0.468,-0.259 1.835,-1.015 1.803,-0.964 1.973,-1.055 1.456,-0.689 0.269,-0.128 1.794,-0.849 1.647,-0.676 2.772,-1.137 5.157,-1.795"
         id="path45"
         inkscape:connector-curvature="0"
         style="fill:none;stroke:#484848;stroke-width:3;stroke-linecap:butt;stroke-linejoin:round;stroke-opacity:1" />
      <path
         d="m 269.928,307.705 -3.843,2.006 -2.236,1.287 -4.805,2.807"
         id="path47"
         inkscape:connector-curvature="0"
         style="fill:none;stroke:#484848;stroke-width:3;stroke-linecap:butt;stroke-linejoin:round;stroke-opacity:1" />
      <path
         d="m 268.844,309.193 3.232,-1.456 4.269,-1.676"
         id="path49"
         inkscape:connector-curvature="0"
         style="fill:none;stroke:#484848;stroke-width:3;stroke-linecap:butt;stroke-linejoin:round;stroke-opacity:1" />
      <path
         d="m 243.84,381.761 0.69,-0.391 1.755,-0.993"
         id="path51"
         inkscape:connector-curvature="0"
         style="fill:none;stroke:#484848;stroke-width:3;stroke-linecap:butt;stroke-linejoin:round;stroke-opacity:1" />
      <path
         d="m 233.625,399.338 0.013,-0.034 1.191,-3.249 1.326,-3.041 1.511,-2.946 1.824,-2.983 1.654,-2.309 1.947,-2.213 1.439,-1.193"
         id="path53"
         inkscape:connector-curvature="0"
         style="fill:none;stroke:#484848;stroke-width:3;stroke-linecap:butt;stroke-linejoin:round;stroke-opacity:1" />
      <path
         d="m 281.829,300.422 -4.178,1.657 -0.284,0.113 -0.005,10e-4 -0.524,0.208 -1.388,0.628 -0.195,0.088 -1.832,0.829 -2.315,1.163 -1.852,0.949 -2.99,1.635 -3.33,2.004 -1.392,0.839"
         id="path55"
         inkscape:connector-curvature="0"
         style="fill:none;stroke:#484848;stroke-width:3;stroke-linecap:butt;stroke-linejoin:round;stroke-opacity:1" />
      <path
         d="m 276.838,302.401 0.5,-0.197 0.273,-0.108 3.317,-1.309 0.692,-0.272"
         id="path57"
         inkscape:connector-curvature="0"
         style="fill:none;stroke:#484848;stroke-width:3;stroke-linecap:butt;stroke-linejoin:round;stroke-opacity:1" />
      <path
         d="m 227.083,466.417 0.057,0.164 0.153,0.442 1.001,2.886 0.285,0.747 3.602,9.434 0.701,1.863 1.735,5.954 -4.901,-3.938 -4.724,-4.396 -2.74,-2.66 -4.978,-4.96 -7.001,-7.14 -1.332,-1.359 -2.94,-3.16 -2.048,-2.381 -2.056,-2.503 -1.996,-2.67 -1.965,-2.884 -1.913,-3.136 -1.916,-3.439 -1.834,-3.683 -1.785,-3.996 -1.551,-4.092 -1.37,-4.274 -1.112,-4.38 -0.827,-4.518 -0.451,-4.481 -0.051,-4.48 0.381,-4.419 0.833,-4.678 1.31,-4.611 1.828,-4.877 2.368,-5.095 2.937,-5.36 3.656,-5.832 3.946,-5.71 4.822,-6.453 5.309,-6.567 5.589,-6.532 5.928,-6.481 5.86,-6.078 6.727,-6.525 5.777,-5.191 2.035,-1.773 0.356,-0.295 2.515,-2.086 0.094,-0.078 0.431,-0.34 4.636,-3.65 4.229,-2.974 -4.054,2.989 -5.153,3.907 -0.089,0.068"
         id="path59"
         inkscape:connector-curvature="0"
         style="fill:none;stroke:#484848;stroke-width:3;stroke-linecap:butt;stroke-linejoin:round;stroke-opacity:1" />
      <path
         d="m 245.568,380.606 0.051,-0.017 0.071,-0.022 0.166,-0.053 0.134,-0.043 0.295,-0.094 0.937,-0.3"
         id="path61"
         inkscape:connector-curvature="0"
         style="fill:none;stroke:#484848;stroke-width:3;stroke-linecap:butt;stroke-linejoin:round;stroke-opacity:1" />
      <path
         d="m 263.692,309.119 -3.329,2.086 -5.014,3.392 -3.016,2.219 -4.505,3.58"
         id="path63"
         inkscape:connector-curvature="0"
         style="fill:none;stroke:#484848;stroke-width:3;stroke-linecap:butt;stroke-linejoin:round;stroke-opacity:1" />
      <path
         d="m 252.25,379.564 2.1,0.988"
         id="path65"
         inkscape:connector-curvature="0"
         style="fill:none;stroke:#484848;stroke-width:3;stroke-linecap:butt;stroke-linejoin:round;stroke-opacity:1" />
      <path
         d="m 240.902,368.477 -3.415,2.714 1.706,-2.253"
         id="path67"
         inkscape:connector-curvature="0"
         style="fill:none;stroke:#484848;stroke-width:3;stroke-linecap:butt;stroke-linejoin:round;stroke-opacity:1" />
      <path
         d="m 271.592,669.462 -7.539,6.569 -1.809,1.577 -4.785,4.295 -4.817,4.516 -4.33,4.224 -4.304,4.415 -3.13,3.37 -2.848,3.232 -2.615,3.18 -2.378,3.132 -0.74,1.038 -1.828,2.774 -1.459,2.34 -1.24,2.26 -1.025,2.253 -0.415,0.913 -0.642,1.415 -1.037,3.004 -1,3.536 -0.577,3.085 -0.088,0.673 -0.408,3.192 -0.136,4.055 0.102,3.23 0.2,1.93 0.245,2.375 0.42,2.264 0.225,1.15 0.21,1.078 0.542,2.255 0.565,1.976 0.088,0.306 0.594,1.791 0.06,0.181 0.11,0.333 0.032,0.093 0.516,1.495 0.01,0.028"
         id="path69"
         inkscape:connector-curvature="0"
         style="fill:none;stroke:#484848;stroke-width:3;stroke-linecap:butt;stroke-linejoin:round;stroke-opacity:1" />
      <path
         d="m 277.295,664.257 -1.381,1.324 -4.322,3.881 -0.393,0.353"
         id="path71"
         inkscape:connector-curvature="0"
         style="fill:none;stroke:#484848;stroke-width:3;stroke-linecap:butt;stroke-linejoin:round;stroke-opacity:1" />
      <path
         d="m 578.07,799.733 3.378,-3.204 0.14,-0.134 1.959,-1.971 1.637,-1.816 1.25,-1.386 1.252,-1.505 0.799,-1.025 1.553,-1.991 2.664,-4.082 0.744,-1.178 2.131,-4.106 1.825,-4.446 1.215,-4.094 0.119,-0.514 0.825,-4.049 0.39,-3.687 0.078,-3.439 -0.02,-1.353 -0.305,-3.819 -0.404,-2.909 -0.656,-3.045 -0.584,-2.232 -0.668,-2.281 -1.01,-2.888 -1.374,-3.348 -1.074,-2.568 -1.666,-3.505 -1.426,-2.832 -2.313,-4.255 -0.832,-1.444 -3.381,-5.781 -0.032,-0.051 -3.615,-5.768 -0.802,-1.257 -1.967,-3.01 -4.165,-6.376"
         id="path73"
         inkscape:connector-curvature="0"
         style="fill:none;stroke:#484848;stroke-width:3;stroke-linecap:butt;stroke-linejoin:round;stroke-opacity:1" />
      <path
         d="m 572.119,695.971 -1.122,-1.906 -1.08,-1.836 -1.383,-2.449 -0.309,-0.614"
         id="path75"
         inkscape:connector-curvature="0"
         style="fill:none;stroke:#484848;stroke-width:3;stroke-linecap:butt;stroke-linejoin:round;stroke-opacity:1" />
      <path
         d="m 573.794,698.476 -0.059,-0.092 -2.738,-4.319"
         id="path77"
         inkscape:connector-curvature="0"
         style="fill:none;stroke:#484848;stroke-width:3;stroke-linecap:butt;stroke-linejoin:round;stroke-opacity:1" />
      <path
         d="m 359.306,957.399 9.988,0.481 7.761,0.374 9.994,0.353 1.937,0.068 9.997,0.24 1.946,0.047 9.999,0.124 1.947,0.025 10,0.004 2.189,10e-4 9.999,-0.119 2.167,-0.025 9.997,-0.246 1.52,-0.038 9.993,-0.366 1.448,-0.053 9.988,-0.498 1.72,-0.086 9.98,-0.635 1.643,-0.105 9.97,-0.776 1.536,-0.12 0.446,-0.035 9.958,-0.921 1.492,-0.138 9.942,-1.073 1.371,-0.148 9.924,-1.231 1.242,-0.154 9.902,-1.395 1.105,-0.155 9.877,-1.564 0.956,-0.152 9.847,-1.741 0.793,-0.14 9.813,-1.924 0.638,-0.125 9.774,-2.114 0.469,-0.101 9.73,-2.31 0.296,-0.07 9.679,-2.513 0.108,-0.028 9.562,-2.704 9.316,-2.861 7.333,-2.406 4.061,-1.416 3.624,-1.298 8.095,-3.03 8.433,-3.38 8.16,-3.507 7.88,-3.623 7.591,-3.727 7.312,-3.824 7.021,-3.905 6.729,-3.973 6.436,-4.03 0.963,-0.624 5.702,-3.747 5.857,-4.11 5.568,-4.132 5.276,-4.141 0.69,-0.542 4.99,-4.141 4.694,-4.122 4.411,-4.102 3.906,-3.869 2.744,-2.823 3.695,-3.998 3.411,-3.943 3.135,-3.887 2.857,-3.82 2.583,-3.752 2.312,-3.682 0.532,-0.885 2.047,-3.614 1.779,-3.538 1.517,-3.471 1.257,-3.406 0.806,-2.598 0.871,-3.316 0.62,-3.267 0.37,-3.219 0.109,-2.494 0.014,-0.685 -10e-4,-2.24 -0.241,-3.123 -0.264,-1.993 -0.553,-2.869 -0.545,-2.167 -0.939,-3.039 -1.182,-3.038 -1.352,-3.008 -1.794,-3.357 -1.808,-2.962 -0.379,-0.569 -2.012,-2.944 -2.214,-2.931 -2.406,-2.915 -2.927,-3.242 -2.779,-2.885 -2.636,-2.54 -2.866,-2.626 -0.965,-0.856 -3.302,-2.836 -3.455,-2.806 -3.247,-2.492 -3.77,-2.752 -4.266,-2.988 -4.047,-2.662 -5.495,-3.405 -4.345,-2.542 -3.085,-1.7 -5.199,-2.777 -4.016,-1.969 -2.95,-1.445 -4.998,-2.277 -4.904,-2.094 -5,-1.992 -5.091,-1.884 -5.175,-1.767 -5.252,-1.645 -3.353,-0.963 -1.98,-0.558 -3.372,-0.893 -2.032,-0.498 -3.391,-0.822 -5.551,-1.197 -5.585,-1.048 -4.049,-0.657 -0.763,-0.117 -3.488,-0.503 -1.116,-0.147 -4.423,-0.555 -3.656,-0.368 -5.746,-0.472 -5.797,-0.334 -5.844,-0.199 -7.374,-0.092 -6.39,0.09 -5.505,0.188 -0.463,0.018 -5.498,0.269 -5.994,0.392 -1.926,0.158"
         id="path79"
         inkscape:connector-curvature="0"
         style="fill:none;stroke:#484848;stroke-width:3;stroke-linecap:butt;stroke-linejoin:round;stroke-opacity:1" />
      <path
         d="m 96.244,755.717 -9.639,2.664 -1.529,0.422 -3.559,1.016 -1.685,0.492 -3.521,1.058 -2.271,0.745 -3.421,1.163 -4.302,1.65 -3.201,1.356 -3.71,1.801 -0.405,0.206 -2.561,1.356 -2.813,1.683 -0.786,0.53 -2.668,1.81 -2.507,1.937 -1.89,1.619 -2.264,2.135 -2.089,2.266 -1.484,1.812 -1.824,2.468 -1.106,1.731 -0.533,0.873 -1.01,1.797 -0.891,1.843 -0.455,0.957 -0.792,1.912 -1.042,2.997 -0.829,3.117 -0.164,0.703 -0.609,3.233 -0.383,3.345 -0.151,3.447 0.029,2.488 0.06,1.056 0.153,2.53 0.463,3.669 0.719,3.745 0.155,0.71 0.985,3.811 1.252,3.866 1.527,3.914 1.808,3.954 0.463,0.931 2.097,3.984 2.386,4.003 2.681,4.014 2.983,4.018 2.15,2.671 1.136,1.343 2.304,2.664 3.743,3.984 2.754,2.717 1.956,1.835 2.336,2.105 2.033,1.822 4.678,3.879 4.992,3.829 5.31,3.772 5.624,3.705 3.999,2.488 1.939,1.145 4.142,2.443 6.385,3.501 6.698,3.415 7.004,3.321 4.286,1.939 6.765,2.844 7.74,3.058 1.141,0.43 8.003,2.941 8.288,2.834 7.998,2.543 8.846,2.617 9.11,2.51 1.089,0.29 9.324,2.391 9.575,2.286 9.308,2.078 9.792,2.028 0.269,0.055 9.819,1.897 0.913,0.176 9.843,1.763 0.629,0.112 9.865,1.641 0.797,0.133 9.886,1.505 0.578,0.088 6.196,0.907 4.847,0.669 9.914,1.304 1.308,0.172 6.329,0.8 5.016,0.571 9.94,1.095 1.54,0.17 6.343,0.678 5.252,0.478 9.961,0.889 1.74,0.155 6.366,0.555 5.42,0.373 9.977,0.68 1.885,0.128 6.314,0.423 5.609,0.262 9.989,0.464 1.968,0.092"
         id="path81"
         inkscape:connector-curvature="0"
         style="fill:none;stroke:#484848;stroke-width:3;stroke-linecap:butt;stroke-linejoin:round;stroke-opacity:1" />
      <path
         d="m 184.093,732.034 -9.707,2.402 -5.023,1.243 -6.84,1.693 -9.673,2.533 -1.573,0.412 -3.962,1.058 -8.627,2.322 -9.627,2.703 -2.637,0.74 -9.628,2.701 -0.493,0.138 -9.614,2.75 -9.615,2.75 -0.83,0.238 -0.474,0.135"
         id="path83"
         inkscape:connector-curvature="0"
         style="fill:none;stroke:#484848;stroke-width:3;stroke-linecap:butt;stroke-linejoin:round;stroke-opacity:1" />
      <path
         d="m 204.833,726.079 -5.354,1.729 -5.591,1.642 -1.505,0.442"
         id="path85"
         inkscape:connector-curvature="0"
         style="fill:none;stroke:#484848;stroke-width:3;stroke-linecap:butt;stroke-linejoin:round;stroke-opacity:1" />
      <path
         d="m 585.184,792.608 -0.022,0.031 -2.048,2.487 -2.719,2.975 -4.084,3.891 -4.593,3.821 -5.094,3.745 -5.586,3.66 -6.063,3.553 -5.691,2.999 -6.038,2.899 -7.314,3.144 -7.74,2.95 -8.145,2.731 -8.534,2.492 -8.889,2.23 -9.235,1.958 -9.541,1.669 -9.817,1.371 -9.944,1.053 -0.136,0.015 -9.973,0.742 -0.34,0.025 -9.99,0.448 -0.516,0.023 -9.304,0.166 -9.553,-0.051 -9.995,-0.298 -1.036,-0.03 -9.984,-0.56 -0.914,-0.052 -9.309,-0.751 -6.616,-0.65 -8.083,-0.928 -9.905,-1.378 -0.852,-0.119 -9.863,-1.646 -0.757,-0.126 -9.813,-1.924 -0.619,-0.122 -9.752,-2.212 -0.453,-0.102 -9.68,-2.509 -0.253,-0.066 -9.624,-2.825 -9.277,-3.066 -8.896,-3.293 -8.476,-3.504 -8.029,-3.703 -7.544,-3.881 -7.048,-4.053 -6.535,-4.208 -6.009,-4.35 -5.474,-4.476 -4.934,-4.587 -4.39,-4.669 -3.853,-4.725 -3.319,-4.746 -2.801,-4.738 -2.3,-4.703 -1.815,-4.638 -0.736,-2.477 -0.616,-2.073 -0.907,-4.434 -0.174,-1.554"
         id="path87"
         inkscape:connector-curvature="0"
         style="fill:none;stroke:#484848;stroke-width:3;stroke-linecap:butt;stroke-linejoin:round;stroke-opacity:1" />
      <path
         d="m 581.448,796.529 -2.84,2.916 -4.331,3.855 -4.84,3.783 -5.337,3.704 -5.82,3.606 -6.296,3.492 -6.754,3.352 -7.199,3.188 -7.632,3.001 -8.042,2.788 -8.434,2.555 -8.802,2.3 -9.148,2.029 -9.472,1.748 -7.296,1.107 -4.948,0.651 -5.012,0.575 -5.077,0.5 -5.135,0.425 -5.183,0.349 -5.235,0.276 -5.282,0.202 -5.321,0.129 -5.348,0.056 -5.387,-0.016 -5.413,-0.087 -5.43,-0.158 -5.446,-0.229 -5.459,-0.3 -5.464,-0.369 -5.569,-0.452 -5.616,-0.522 -8.299,-0.906 -9.271,-1.231 -9.192,-1.415 -9.839,-1.789 -0.7,-0.128 -9.783,-2.074 -0.539,-0.114 -9.716,-2.368 -0.362,-0.088 -9.636,-2.672 -0.143,-0.04 -9.451,-2.959 -9.086,-3.193 -8.68,-3.414 -8.238,-3.616 -7.776,-3.809 -7.274,-3.978 -6.771,-4.142 -6.248,-4.287 -5.717,-4.418 -5.173,-4.53 -4.638,-4.629 -4.094,-4.695 -3.565,-4.738 -3.037,-4.739 -2.531,-4.721 -2.039,-4.668 -1.412,-4.135 -0.156,-0.458 -0.563,-2.261"
         id="path89"
         inkscape:connector-curvature="0"
         style="fill:none;stroke:#484848;stroke-width:3;stroke-linecap:butt;stroke-linejoin:round;stroke-opacity:1" />
      <path
         d="m 225.633,756.865 0.171,0.592 0.006,0.017 0.551,1.521 1.115,3.076"
         id="path91"
         inkscape:connector-curvature="0"
         style="fill:none;stroke:#484848;stroke-width:3;stroke-linecap:butt;stroke-linejoin:round;stroke-opacity:1" />
      <path
         d="m 230.937,426.287 0.098,-0.555 0.233,-2.314 0.106,-2.639 -0.029,-6.803 0.104,-3.11 0.229,-2.693 0.441,-3.017 0.677,-2.973 0.842,-2.879"
         id="path93"
         inkscape:connector-curvature="0"
         style="fill:none;stroke:#484848;stroke-width:3;stroke-linecap:butt;stroke-linejoin:round;stroke-opacity:1" />
      <path
         d="m 247.303,320.814 -1.269,1.008 -1.246,1.078"
         id="path95"
         inkscape:connector-curvature="0"
         style="fill:none;stroke:#484848;stroke-width:3;stroke-linecap:butt;stroke-linejoin:round;stroke-opacity:1" />
      <path
         d="m 228.199,436.234 1.066,-3.075 0.781,-2.628 0.554,-2.296 0.337,-1.948 0.062,-0.356"
         id="path97"
         inkscape:connector-curvature="0"
         style="fill:none;stroke:#484848;stroke-width:3;stroke-linecap:butt;stroke-linejoin:round;stroke-opacity:1" />
      <path
         d="m 227.14,466.581 -0.8,-2.625 -0.768,-2.665 -0.54,-2.433 -0.37,-2.309 -0.196,-2.332 -0.05,-2.089 0.119,-2.137 0.253,-2.047 0.376,-2.03 0.551,-2.13 0.823,-2.693 1.661,-4.857 0.926,-2.708"
         id="path99"
         inkscape:connector-curvature="0"
         style="fill:none;stroke:#484848;stroke-width:3;stroke-linecap:butt;stroke-linejoin:round;stroke-opacity:1" />
      <path
         d="m 225.467,464.695 -0.877,-2.59"
         id="path101"
         inkscape:connector-curvature="0"
         style="fill:none;stroke:#484848;stroke-width:3;stroke-linecap:butt;stroke-linejoin:round;stroke-opacity:1" />
      <path
         d="m 232.76,481.789 1.857,6.118 -2.671,-4.9"
         id="path103"
         inkscape:connector-curvature="0"
         style="fill:none;stroke:#484848;stroke-width:3;stroke-linecap:butt;stroke-linejoin:round;stroke-opacity:1" />
      <path
         d="m 227.068,466.906 -0.897,-2.728"
         id="path105"
         inkscape:connector-curvature="0"
         style="fill:none;stroke:#484848;stroke-width:3;stroke-linecap:butt;stroke-linejoin:round;stroke-opacity:1" />
      <path
         d="m 315.841,547.477 0.11,0.452 0.048,1.002"
         id="path107"
         inkscape:connector-curvature="0"
         style="fill:none;stroke:#484848;stroke-width:3;stroke-linecap:butt;stroke-linejoin:round;stroke-opacity:1" />
      <path
         d="m 568.415,689.618 -0.19,-0.452 -0.67,-1.59 -0.108,-0.317"
         id="path109"
         inkscape:connector-curvature="0"
         style="fill:none;stroke:#484848;stroke-width:3;stroke-linecap:butt;stroke-linejoin:round;stroke-opacity:1" />
      <path
         d="m 567.455,687.294 -0.008,-0.035 -0.14,-0.637"
         id="path111"
         inkscape:connector-curvature="0"
         style="fill:none;stroke:#484848;stroke-width:3;stroke-linecap:butt;stroke-linejoin:round;stroke-opacity:1" />
      <path
         d="m 567.366,687.171 -0.022,-0.208 -0.002,-0.015 -0.035,-0.326 -0.029,-0.266"
         id="path113"
         inkscape:connector-curvature="0"
         style="fill:none;stroke:#484848;stroke-width:3;stroke-linecap:butt;stroke-linejoin:round;stroke-opacity:1" />
      <path
         d="m 567.272,686.645 0.003,-0.164 0.003,-0.125 0.008,-0.472"
         id="path115"
         inkscape:connector-curvature="0"
         style="fill:none;stroke:#484848;stroke-width:3;stroke-linecap:butt;stroke-linejoin:round;stroke-opacity:1" />
      <path
         d="m 245.284,380.77 0.133,-0.057 0.075,-0.031 0.498,-0.211"
         id="path117"
         inkscape:connector-curvature="0"
         style="fill:none;stroke:#484848;stroke-width:3;stroke-linecap:butt;stroke-linejoin:round;stroke-opacity:1" />
      <path
         d="m 251.983,378.993 -1.446,-0.474"
         id="path119"
         inkscape:connector-curvature="0"
         style="fill:none;stroke:#484848;stroke-width:3;stroke-linecap:butt;stroke-linejoin:round;stroke-opacity:1" />
      <path
         d="m 193.888,729.45 -8.931,2.334 -9.702,2.424 -5.892,1.471"
         id="path121"
         inkscape:connector-curvature="0"
         style="fill:none;stroke:#484848;stroke-width:3;stroke-linecap:butt;stroke-linejoin:round;stroke-opacity:1" />
      <path
         d="m 228.579,470.656 -1.286,-3.633"
         id="path123"
         inkscape:connector-curvature="0"
         style="fill:none;stroke:#484848;stroke-width:3;stroke-linecap:butt;stroke-linejoin:round;stroke-opacity:1" />
      <path
         d="m 247.748,379.994 0.91,-0.111"
         id="path125"
         inkscape:connector-curvature="0"
         style="fill:none;stroke:#484848;stroke-width:3;stroke-linecap:butt;stroke-linejoin:round;stroke-opacity:1" />
      <path
         d="m 276.125,669.676 -0.177,0.594"
         id="path127"
         inkscape:connector-curvature="0"
         style="fill:none;stroke:#484848;stroke-width:3;stroke-linecap:butt;stroke-linejoin:round;stroke-opacity:1" />
      <path
         d="m 299.579,479.618 0.25,2.783"
         id="path129"
         inkscape:connector-curvature="0"
         style="fill:none;stroke:#484848;stroke-width:3;stroke-linecap:butt;stroke-linejoin:round;stroke-opacity:1" />
      <path
         d="m 300.114,485.676 0.322,4.34"
         id="path131"
         inkscape:connector-curvature="0"
         style="fill:none;stroke:#484848;stroke-width:3;stroke-linecap:butt;stroke-linejoin:round;stroke-opacity:1" />
      <path
         d="m 310.146,623.773 0.109,2.493"
         id="path133"
         inkscape:connector-curvature="0"
         style="fill:none;stroke:#484848;stroke-width:3;stroke-linecap:butt;stroke-linejoin:round;stroke-opacity:1" />
      <path
         d="m 309.613,620.349 0.528,3.375 0.004,0.028 0.002,0.01 0.14,0.894 0.072,0.46"
         id="path135"
         inkscape:connector-curvature="0"
         style="fill:none;stroke:#484848;stroke-width:3;stroke-linecap:butt;stroke-linejoin:round;stroke-opacity:1" />
      <path
         d="m 310.141,623.724 0.005,0.049 0.002,0.017 0.223,2.05"
         id="path137"
         inkscape:connector-curvature="0"
         style="fill:none;stroke:#484848;stroke-width:3;stroke-linecap:butt;stroke-linejoin:round;stroke-opacity:1" />
    </g>
  </g>
  <g
     inkscape:groupmode="layer"
     id="layer1"
     inkscape:label="Layer 1">
    <g
       inkscape:label="View Layer_LineSet"
       id="View Layer_LineSet-3"
       transform="matrix(1.2650419,0,0,1.3035011,-190.62009,-153.4609)">
      <g
         inkscape:label="fills"
         inkscape:groupmode="layer"
         id="fills-6">
        <path
           id="path1182"
           fill_rule="evenodd"
           d="m 512.854,327.917 -58.388,-14.997 50.835,-32.402 -3.78,-60.165 46.525,38.335 56.052,-22.188 -22.082,56.094 38.423,46.453 -60.172,-3.667 -32.306,50.897 z"
           inkscape:connector-curvature="0"
           style="fill:#ffcc07;fill-opacity:1;stroke:none" />
        <path
           id="path1184"
           fill_rule="evenodd"
           d="m 664.924,199.351 -30.421,-7.814 26.486,-16.882 -1.97,-31.347 24.241,19.973 29.204,-11.56 -11.505,29.226 20.019,24.203 -31.351,-1.911 -16.832,26.519 z"
           inkscape:connector-curvature="0"
           style="fill:#ffb300;fill-opacity:1;stroke:none" />
        <path
           id="path1186"
           fill_rule="evenodd"
           d="m 700.344,406.877 -47.014,-12.075 40.932,-26.089 -3.044,-48.444 37.461,30.866 45.132,-17.865 -17.779,45.166 30.937,37.403 -48.45,-2.952 -26.012,40.981 z"
           inkscape:connector-curvature="0"
           style="fill:#ffed00;fill-opacity:1;stroke:none" />
        <path
           style="fill:#d7dad7;fill-opacity:1;stroke:none;stroke-width:0.43133548"
           inkscape:connector-curvature="0"
           d="m 427.43468,516.38015 -25.11294,-6.48725 21.86436,-14.01613 -1.62579,-26.02557 20.01061,16.58257 24.10822,-9.59786 -9.49757,24.26458 16.52591,20.09417 -25.88025,-1.58624 -13.89496,22.01652 z"
           fill_rule="evenodd"
           id="path1298" />
        <path
           id="path1300"
           fill_rule="evenodd"
           d="m 524.04434,657.36215 -17.43408,-3.82795 15.17883,-8.27055 -1.12867,-15.357 13.89191,9.78494 16.73658,-5.66345 -6.59347,14.31789 11.47273,11.85704 -17.96677,-0.936 -9.64626,12.99136 z"
           inkscape:connector-curvature="0"
           style="fill:#d7dad7;fill-opacity:1;stroke:none;stroke-width:0.27606985" />
        <path
           style="fill:#d7dad7;fill-opacity:1;stroke:none;stroke-width:0.24378304"
           inkscape:connector-curvature="0"
           d="m 406.3017,638.36555 -13.59465,-3.82795 11.83606,-8.27055 -0.8801,-15.357 10.83255,9.78494 13.05076,-5.66345 -5.14142,14.31789 8.94615,11.85704 -14.01003,-0.936 -7.52191,12.99136 z"
           fill_rule="evenodd"
           id="path1302" />
      </g>
      <g
         inkscape:label="strokes"
         inkscape:groupmode="layer"
         id="strokes-7">
        <path
           id="path1189"
           d="m 700.344,406.877 -9.686,-2.488 -9.686,-2.487 -9.685,-2.488 -9.686,-2.488 -8.271,-2.124 8.433,-5.375 8.432,-5.375 8.433,-5.375 8.433,-5.375 7.201,-4.589 -0.627,-9.981 -0.627,-9.98 -0.628,-9.98 -0.627,-9.981 -0.535,-8.522 7.718,6.359 7.717,6.359 7.718,6.359 7.718,6.359 6.59,5.43 9.298,-3.68 9.298,-3.681 9.298,-3.68 9.298,-3.681 7.94,-3.143 -3.663,9.305 -3.662,9.305 -3.663,9.305 -3.663,9.305 -3.128,7.946 6.373,7.706 6.374,7.705 6.374,7.706 6.373,7.706 5.443,6.58 -9.981,-0.608 -9.982,-0.609 -9.981,-0.608 -9.982,-0.608 -8.524,-0.519 -5.358,8.442 -5.359,8.443 -5.359,8.443 -5.359,8.443 -4.577,7.21 -2.506,-9.681 -2.506,-9.681 -2.505,-9.681 -2.507,-9.681 -2.139,-8.267"
           inkscape:connector-curvature="0"
           style="fill:none;stroke:#484848;stroke-width:3;stroke-linecap:butt;stroke-linejoin:round;stroke-opacity:1" />
        <path
           id="path1191"
           d="m 664.924,199.351 -9.685,-2.488 -9.686,-2.488 -9.686,-2.487 -1.364,-0.351 8.432,-5.375 8.433,-5.375 8.433,-5.375 1.188,-0.757 -0.627,-9.98 -0.627,-9.981 -0.627,-9.98 -0.089,-1.406 7.718,6.359 7.718,6.359 7.717,6.359 1.088,0.896 9.298,-3.681 9.298,-3.68 9.298,-3.681 1.31,-0.518 -3.663,9.305 -3.663,9.305 -3.663,9.305 -0.516,1.311 6.374,7.706 6.374,7.705 6.373,7.706 0.898,1.086 -9.981,-0.609 -9.982,-0.608 -9.981,-0.608 -1.407,-0.086 -5.359,8.443 -5.359,8.443 -5.358,8.443 -0.756,1.19 -2.506,-9.681 -2.506,-9.681 -2.506,-9.681 -0.353,-1.364"
           inkscape:connector-curvature="0"
           style="fill:none;stroke:#484848;stroke-width:3;stroke-linecap:butt;stroke-linejoin:round;stroke-opacity:1" />
        <path
           id="path1193"
           d="m 512.854,327.917 -9.686,-2.488 -9.685,-2.488 -9.686,-2.487 -9.685,-2.488 -9.686,-2.488 -9.96,-2.558 8.432,-5.375 8.433,-5.375 8.433,-5.375 8.432,-5.374 8.433,-5.375 8.672,-5.528 -0.627,-9.98 -0.627,-9.98 -0.627,-9.981 -0.627,-9.98 -0.628,-9.98 -0.644,-10.264 7.717,6.359 7.718,6.359 7.718,6.359 7.717,6.359 7.718,6.359 7.937,6.54 9.298,-3.681 9.298,-3.68 9.298,-3.681 9.298,-3.68 9.298,-3.681 9.562,-3.785 -3.663,9.305 -3.663,9.305 -3.663,9.305 -3.663,9.305 -3.663,9.305 -3.767,9.569 6.374,7.706 6.373,7.706 6.374,7.705 6.374,7.706 6.373,7.706 6.555,7.924 -9.982,-0.608 -9.981,-0.609 -9.982,-0.608 -9.981,-0.608 -9.982,-0.608 -10.264,-0.626 -5.359,8.443 -5.359,8.443 -5.359,8.443 -5.359,8.443 -5.359,8.442 -5.511,8.683 -2.506,-9.681 -2.506,-9.681 -2.506,-9.681 -2.506,-9.681 -2.506,-9.681 -2.577,-9.955"
           inkscape:connector-curvature="0"
           style="fill:none;stroke:#484848;stroke-width:3;stroke-linecap:butt;stroke-linejoin:round;stroke-opacity:1" />
      </g>
    </g>
  </g>
  <g
     inkscape:groupmode="layer"
     id="layer2"
     inkscape:label="Layer 2">
    <g
       inkscape:label="View Layer_LineSet"
       id="View Layer_LineSet-5"
       transform="matrix(1.113631,0,0,1.026861,-95.913233,-52.842068)"
       style="display:inline">
      <g
         inkscape:label="fills"
         inkscape:groupmode="layer"
         id="fills-3">
        <path
           id="path1272"
           fill_rule="evenodd"
           d="m 845.352,842.532 -9.839,-0.668 -9.839,0.668 -9.447,1.943 -8.967,3.131 -8.399,4.23 -7.742,5.24 -6.996,6.163 -6.163,6.996 -5.24,7.742 -4.23,8.399 -3.131,8.967 -1.943,9.447 -0.668,9.839 0.668,9.839 1.943,9.447 3.131,8.967 4.23,8.399 5.24,7.741 6.163,6.997 6.996,6.162 7.742,5.241 8.399,4.23 8.967,3.131 9.447,1.943 9.839,0.667 9.839,-0.667 9.447,-1.943 8.967,-3.131 8.398,-4.23 7.742,-5.241 6.997,-6.162 6.162,-6.997 5.241,-7.741 4.23,-8.399 3.131,-8.967 1.943,-9.447 0.667,-9.839 -0.667,-9.839 -1.943,-9.447 -3.131,-8.967 -4.23,-8.399 -5.241,-7.742 -6.162,-6.996 -6.997,-6.163 -7.742,-5.24 -8.398,-4.23 -8.967,-3.131 z"
           inkscape:connector-curvature="0"
           style="fill:#cccccc;fill-opacity:1;stroke:none" />
        <path
           id="path1274"
           fill_rule="evenodd"
           d="m 839.098,140.22 -33.904,-1.746 -56.999,116.423 3.389,-0.653 3.512,-0.728 3.654,-0.779 3.819,-0.805 4.003,-0.804 4.211,-0.779 4.437,-0.728 4.686,-0.653 4.956,-0.552 5.246,-0.425 5.558,-0.274 5.89,-0.097 11.765,0.673 11.008,1.978 10.198,3.224 9.34,4.411 8.43,5.54 7.471,6.61 6.459,7.62 5.399,8.572 4.286,9.465 3.125,10.299 1.911,11.073 0.649,11.789 -2.673,27.099 -7.388,26.279 -11.162,25.697 -13.991,25.356 -15.878,25.255 -16.822,25.394 -16.821,25.773 -15.878,26.391 -13.991,27.251 -11.162,28.35 -7.389,29.689 -2.672,31.268 0.435,13.174 1.328,12.272 2.254,11.429 3.214,10.647 4.208,9.922 5.236,9.257 6.297,8.651 7.391,8.103 8.52,7.615 9.683,7.185 10.878,6.815 12.108,6.503 0.036,-31.619 7.633,-32.449 13.781,-33.35 18.48,-34.322 21.731,-35.367 23.534,-36.482 23.887,-37.671 22.792,-38.929 20.249,-40.26 16.257,-41.662 10.816,-43.135 3.928,-44.682 -1.109,-19.533 -3.417,-20.106 -5.858,-20.24 -8.436,-19.937 -11.148,-19.196 -13.994,-18.017 -16.976,-16.401 -20.091,-14.345 -23.343,-11.852 -26.728,-8.922 z"
           inkscape:connector-curvature="0"
           style="fill:#cccccc;fill-opacity:1;stroke:none" />
      </g>
      <g
         inkscape:label="strokes"
         inkscape:groupmode="layer"
         id="strokes-5">
        <path
           id="path1277"
           d="m 839.098,140.22 -9.987,-0.515 -9.987,-0.514 -9.987,-0.514 -3.943,-0.203 -4.397,8.981 -4.397,8.981 -4.397,8.982 -4.397,8.981 -4.397,8.981 -4.398,8.982 -4.397,8.981 -4.397,8.982 -4.397,8.981 -4.397,8.981 -4.397,8.982 -4.397,8.981 -4.234,8.647 3.389,-0.653 3.512,-0.728 3.654,-0.779 3.819,-0.805 4.003,-0.804 4.211,-0.779 4.437,-0.728 4.686,-0.653 4.956,-0.552 5.246,-0.425 5.558,-0.274 5.89,-0.097 9.984,0.571 1.781,0.102 9.843,1.768 1.165,0.21 9.534,3.014 0.664,0.21 9.042,4.271 0.298,0.14 8.43,5.54 7.471,6.61 6.459,7.62 5.329,8.462 0.07,0.11 4.125,9.11 0.161,0.355 2.903,9.569 0.222,0.73 1.701,9.854 0.21,1.219 0.55,9.985 0.099,1.804 -0.981,9.952 -0.982,9.952 -0.71,7.195 -2.706,9.627 -2.707,9.627 -1.975,7.025 -3.984,9.172 -3.984,9.172 -3.194,7.353 -4.831,8.755 -4.832,8.756 -4.328,7.845 -5.323,8.466 -5.323,8.465 -5.232,8.324 -5.523,8.336 -5.522,8.337 -5.523,8.337 -0.254,0.384 -5.465,8.374 -5.466,8.374 -5.465,8.374 -0.425,0.651 -5.155,8.568 -5.155,8.569 -5.155,8.569 -0.413,0.685 -4.567,8.896 -4.568,8.896 -4.567,8.896 -0.289,0.563 -3.664,9.305 -3.663,9.305 -3.663,9.305 -0.172,0.435 -2.415,9.704 -2.415,9.704 -2.415,9.704 -0.144,0.577 -0.851,9.964 -0.852,9.964 -0.851,9.963 -0.118,1.377 0.33,9.995 0.105,3.179 1.076,9.942 0.252,2.33 1.935,9.811 0.319,1.618 2.89,9.574 0.324,1.073 3.905,9.206 0.303,0.716 4.923,8.705 0.313,0.552 5.885,8.085 0.412,0.566 6.739,7.388 0.652,0.715 7.456,6.664 1.064,0.951 8.031,5.959 1.652,1.226 8.474,5.309 2.404,1.506 8.81,4.731 3.298,1.772 0.011,-10 0.012,-10 0.011,-10 0.002,-1.619 2.29,-9.735 2.29,-9.734 2.29,-9.734 0.763,-3.246 3.819,-9.242 3.819,-9.242 3.819,-9.242 2.324,-5.624 4.741,-8.804 4.741,-8.805 4.74,-8.805 4.258,-7.908 5.235,-8.52 5.236,-8.52 5.235,-8.52 5.235,-8.521 0.79,-1.286 5.421,-8.403 5.421,-8.404 5.42,-8.403 5.421,-8.403 1.851,-2.869 5.355,-8.446 5.355,-8.445 5.355,-8.445 5.356,-8.445 2.466,-3.89 5.052,-8.629 5.053,-8.63 5.053,-8.63 5.052,-8.629 2.582,-4.411 4.493,-8.933 4.494,-8.934 4.493,-8.934 4.493,-8.933 2.276,-4.526 3.635,-9.315 3.635,-9.316 3.636,-9.316 3.635,-9.316 1.716,-4.399 2.432,-9.699 2.432,-9.7 2.433,-9.7 2.432,-9.699 1.087,-4.337 0.876,-9.962 0.876,-9.962 0.875,-9.961 0.876,-9.962 0.425,-4.835 -0.567,-9.984 -0.542,-9.549 -1.675,-9.858 -1.676,-9.859 -0.066,-0.389 -2.78,-9.605 -2.781,-9.606 -0.297,-1.029 -3.897,-9.21 -3.897,-9.209 -0.642,-1.518 -5.022,-8.648 -5.022,-8.647 -1.104,-1.901 -6.134,-7.898 -6.134,-7.898 -1.726,-2.221 -7.192,-6.949 -7.192,-6.948 -2.592,-2.504 -8.138,-5.81 -8.139,-5.811 -3.814,-2.724 -8.917,-4.527 -8.916,-4.527 -5.51,-2.798 -9.485,-3.166 -9.486,-3.166 -7.757,-2.59 -9.836,-1.805 -9.835,-1.806 -9.836,-1.805 -0.741,-0.136"
           inkscape:connector-curvature="0"
           style="fill:none;stroke:#484848;stroke-width:3;stroke-linecap:butt;stroke-linejoin:round;stroke-opacity:1" />
        <path
           id="path1279"
           d="m 845.352,842.532 -9.839,-0.668 -9.839,0.668 -9.447,1.943 -8.967,3.131 -8.399,4.23 -7.742,5.24 -6.996,6.163 -6.163,6.996 -5.24,7.742 -4.23,8.399 -3.131,8.967 -1.943,9.447 -0.668,9.839 0.668,9.839 1.943,9.447 3.131,8.967 4.23,8.399 5.24,7.741 6.163,6.997 6.996,6.162 7.742,5.241 8.399,4.23 8.967,3.131 9.447,1.943 9.839,0.667 9.839,-0.667 9.447,-1.943 8.967,-3.131 8.398,-4.23 7.742,-5.241 6.997,-6.162 6.162,-6.997 5.241,-7.741 4.23,-8.399 3.131,-8.967 1.943,-9.447 0.667,-9.839 -0.667,-9.839 -1.943,-9.447 -3.131,-8.967 -4.23,-8.399 -5.241,-7.742 -6.162,-6.996 -6.997,-6.163 -7.742,-5.24 -8.398,-4.23 -8.967,-3.131 -9.447,-1.943"
           inkscape:connector-curvature="0"
           style="fill:none;stroke:#484848;stroke-width:3;stroke-linecap:butt;stroke-linejoin:round;stroke-opacity:1" />
      </g>
    </g>
  </g>
</svg>
